<?xml version="1.0" encoding="utf-8"?>
<!-- Generator: Adobe Illustrator 23.0.2, SVG Export Plug-In . SVG Version: 6.00 Build 0)  -->
<svg version="1.1" id="Layer_1" xmlns="http://www.w3.org/2000/svg" xmlns:xlink="http://www.w3.org/1999/xlink" x="0px" y="0px"
	 viewBox="0 0 55.17 55.17" style="enable-background:new 0 0 55.17 55.17;" xml:space="preserve">
<g>
	<g>
		<path d="M27.59,55.17C12.35,55.18,0,42.83-0.01,27.59S12.33,0,27.57-0.01s27.59,12.34,27.6,27.58c0,0.01,0,0.01,0,0.02
			C55.15,42.81,42.81,55.15,27.59,55.17z M27.59,4C14.56,3.99,4,14.55,3.99,27.58s10.55,23.59,23.58,23.6s23.59-10.55,23.6-23.58
			c0,0,0-0.01,0-0.01C51.16,14.57,40.61,4.02,27.59,4z"/>
		<circle cx="27.59" cy="18.19" r="3.2"/>
		<rect x="25.1" y="23.85" width="4.96" height="16.33"/>
	</g>
</g>
</svg>
