<?xml version="1.0" encoding="utf-8"?>
<!-- Generator: Adobe Illustrator 23.0.2, SVG Export Plug-In . SVG Version: 6.00 Build 0)  -->
<svg version="1.1" id="Layer_1" xmlns="http://www.w3.org/2000/svg" xmlns:xlink="http://www.w3.org/1999/xlink" x="0px" y="0px"
	 viewBox="0 0 32.74 30" style="enable-background:new 0 0 32.74 30;" xml:space="preserve">
<style type="text/css">
	.st0{fill:#FFFFFF;}
</style>
<g>
	<path class="st0" d="M17.84,11.64l-6.45-6.45l2.15-2.15l4.18,4.18l6.44-7.16l2.26,2.03L17.84,11.64z M11.71,25.38
		c-1.26,0-2.28,1.02-2.28,2.28s1.02,2.28,2.28,2.28s2.28-1.02,2.28-2.28S12.97,25.38,11.71,25.38z M29.18,27.66
		c0,1.26-1.02,2.28-2.28,2.28s-2.28-1.02-2.28-2.28s1.02-2.28,2.28-2.28S29.18,26.4,29.18,27.66z M9.36,20.51L4.92,4.9
		C4.74,4.31,4.17,3.89,3.51,3.87L0.48,3.82l0.06-3.04l3.04,0.06c1.96,0.04,3.68,1.32,4.26,3.2l3.02,10.61l14.19,0.27l4.4-11.09
		l2.82,1.12l-5.17,13.04L11.72,17.7l0.56,1.97c0.18,0.65,0.76,1.09,1.43,1.1l13.79,0.26l-0.06,3.04l-13.79-0.26
		C11.64,23.78,9.91,22.45,9.36,20.51z"/>
</g>
</svg>
