<?xml version="1.0" encoding="utf-8"?>
<!-- Generator: Adobe Illustrator 23.0.1, SVG Export Plug-In . SVG Version: 6.00 Build 0)  -->
<svg version="1.1" id="Layer_1" xmlns="http://www.w3.org/2000/svg" xmlns:xlink="http://www.w3.org/1999/xlink" x="0px" y="0px"
	 viewBox="0 0 91.9 91.9" style="enable-background:new 0 0 91.9 91.9;" xml:space="preserve">
<style type="text/css">
	.st0{fill:#FFFFFF;}
</style>
<g>
	<path class="st0" d="M42.6,49.3c-0.1-0.1-0.2-0.2-0.4-0.3c-0.7-0.5-1.5-0.9-2.4-0.9c-2.5,0-15.7,0-19.7,0c-0.9,0-1.8,0-2.8,0
		c-2.1,0-4.1,1.8-4,4c0.1,2.2,1.8,4,4,4c2.5,0,5.1,0,7.6,0c1.7,0,3.5,0,5.2,0c-1.8,1.8-3.5,3.5-5.3,5.3C21.4,64.9,8.5,77.7,5.6,80.7
		c-1.5,1.4-2.9,2.9-4.3,4.3c0,0,0,0-0.1,0.1c-1.5,1.5-1.6,4.2,0,5.7c1.6,1.5,4.1,1.6,5.7,0c1.2-1.2,2.4-2.4,3.6-3.6
		c2.9-2.9,5.7-5.7,8.6-8.6c3.4-3.4,6.9-6.9,10.3-10.3c2.2-2.2,4.4-4.4,6.5-6.5c0,3.4,0,6.7,0,10.1c0,0.9,0,1.8,0,2.8
		c0,2.1,1.8,4.1,4,4c2.2-0.1,4-1.8,4-4c0-2.5,0-5.1,0-7.6c0-4,0-8.1,0-12.1c0-0.9,0-1.8,0-2.8c0-0.4-0.1-0.7-0.1-1
		C43.5,50.4,43.2,49.8,42.6,49.3z"/>
	<path class="st0" d="M90.8,1.1c-1.6-1.5-4.1-1.6-5.7,0c-1.2,1.2-2.4,2.4-3.6,3.6c-2.9,2.9-5.7,5.7-8.6,8.6
		c-3.4,3.4-6.9,6.9-10.3,10.3c-2.2,2.2-4.3,4.3-6.5,6.5c0-3.4,0-6.7,0-10.1c0-0.9,0-1.8,0-2.8c0-2.1-1.8-4.1-4-4c-2.2,0.1-4,1.8-4,4
		c0,2.5,0,5.1,0,7.6c0,4,0,8.1,0,12.1c0,0.9,0,1.8,0,2.8c0,0.2,0,0.5,0.1,0.7c0.1,0.8,0.5,1.6,1.1,2.1c0.2,0.2,0.5,0.4,0.7,0.5
		c0.6,0.4,1.3,0.6,2.1,0.6c2.5,0,5.1,0,7.6,0c4,0,8.1,0,12.1,0c0.9,0,1.8,0,2.8,0c2.1,0,4.1-1.8,4-4c-0.1-2.2-1.8-4-4-4
		c-2.5,0-5.1,0-7.6,0c-1.7,0-3.5,0-5.2,0c1.8-1.8,3.5-3.5,5.3-5.3c3.4-3.4,6.9-6.9,10.3-10.3c3-3,6-6,9-8.9c1.4-1.4,2.9-2.9,4.3-4.3
		c0,0,0,0,0.1-0.1C92.3,5.3,92.4,2.6,90.8,1.1z"/>
</g>
</svg>
