<?xml version="1.0" encoding="utf-8"?>
<!-- Generator: Adobe Illustrator 23.0.2, SVG Export Plug-In . SVG Version: 6.00 Build 0)  -->
<svg version="1.1" id="Layer_1" xmlns="http://www.w3.org/2000/svg" xmlns:xlink="http://www.w3.org/1999/xlink" x="0px" y="0px"
	 viewBox="0 0 919.23 918.98" style="enable-background:new 0 0 919.23 918.98;" xml:space="preserve">
<style type="text/css">
	.st0{fill:#FFFFFF;}
</style>
<path class="st0" d="M11.8,907.28c1.22,1.12,2.5,2.15,3.81,3.11c6.8,5.35,15.29,8.59,24.39,8.59c25.4,0,156.9,0,197.2,0
	c9.2,0,18.4,0,27.6,0c20.9,0,41-18.4,40-40c-1-21.7-17.6-40-40-40c-25.4,0-50.7,0-76.1,0c-17.34,0-34.67,0-52,0
	c17.69-17.69,35.38-35.38,53.1-53.1c34.4-34.4,162.9-162.9,192.7-192.7c14.5-14.5,29.2-28.7,43.4-43.4c0.2-0.2,0.4-0.4,0.6-0.6
	c14.8-14.8,15.9-42,0-56.6c-16-14.6-40.8-15.8-56.6,0c-11.9,11.9-23.8,23.8-35.7,35.7c-28.6,28.6-57.1,57.1-85.7,85.7
	c-34.4,34.4-68.8,68.8-103.2,103.2c-21.74,21.74-43.53,43.53-65.3,65.3c0-33.6,0-67.18,0-100.7c0-9.2,0-18.4,0-27.6
	c0-20.9-18.4-41-40-40c-21.6,1-40,17.6-40,40c0,25.4,0,50.7,0,76.1c0,40.4,0,80.8,0,121.1c0,9.2,0,18.4,0,27.6
	c0,3.58,0.51,7.06,1.45,10.4C3.09,896.13,6.49,902.41,11.8,907.28z"/>
<path class="st0" d="M492.83,426.3c16,14.7,40.8,15.9,56.6,0c11.9-11.9,23.8-23.8,35.7-35.7c28.6-28.6,57.1-57.1,85.7-85.7
	c34.4-34.4,68.8-68.8,103.2-103.2c21.71-21.71,43.46-43.46,65.2-65.2c0,33.6,0,67.18,0,100.7c0,9.2,0,18.4,0,27.6
	c0,20.9,18.4,41,40,40c21.7-1,40-17.6,40-40c0-25.4,0-50.7,0-76.1c0-40.4,0-80.8,0-121.1c0-9.2,0-18.4,0-27.6
	c0-2.42-0.24-4.79-0.68-7.11c-1.23-8.02-4.84-15.61-11.02-21.29c-2.3-2.11-4.78-3.93-7.39-5.47C894.01,2.26,886.83,0,879.23,0
	c-25.4,0-50.7,0-76.1,0c-40.4,0-80.8,0-121.1,0c-9.2,0-18.4,0-27.6,0c-20.9,0-41,18.4-40,40c1,21.7,17.6,40,40,40
	c25.4,0,50.7,0,76.1,0c17.34,0,34.67,0,52,0c-17.66,17.66-35.31,35.31-53,53c-34.4,34.4-68.8,68.8-103.2,103.2
	c-29.8,29.8-59.7,59.7-89.5,89.5c-14.5,14.5-29.2,28.7-43.4,43.4c-0.2,0.2-0.4,0.4-0.6,0.6C478.03,384.5,476.93,411.7,492.83,426.3z
	"/>
</svg>
