<?xml version="1.0" encoding="utf-8"?>
<!-- Generator: Adobe Illustrator 23.0.1, SVG Export Plug-In . SVG Version: 6.00 Build 0)  -->
<svg version="1.1" id="Layer_1" xmlns="http://www.w3.org/2000/svg" xmlns:xlink="http://www.w3.org/1999/xlink" x="0px" y="0px"
	 viewBox="0 0 78.1 25.5" style="enable-background:new 0 0 78.1 25.5;" xml:space="preserve">
<style type="text/css">
	.st0{fill:#231F20;}
	.st1{clip-path:url(#SVGID_2_);fill:url(#SVGID_3_);}
	.st2{clip-path:url(#SVGID_2_);fill:url(#SVGID_4_);}
	.st3{clip-path:url(#SVGID_2_);fill:url(#SVGID_5_);}
	.st4{clip-path:url(#SVGID_2_);fill:url(#SVGID_6_);}
	.st5{fill:#F9F9F9;}
</style>
<g>
	<path class="st0" d="M77.9,21.8c0,1.9-1.5,3.5-3.5,3.5H3.3c-1.9,0-3.5-1.5-3.5-3.5V3.1c0-1.9,1.5-3.5,3.5-3.5h71.2
		c1.9,0,3.5,1.5,3.5,3.5V21.8z"/>
	<g id="PLAY_1_">
		<defs>
			<path id="SVGID_1_" d="M16.7,10.9l-3.5-2c0,0-6.4-3.7-6.8-3.9C6,4.7,5.7,4.9,5.7,5.3c0,0.8,0,7.9,0,7.9s0,7.7,0,8.1
				c0,0.3,0.3,0.5,0.6,0.3c0.3-0.2,6.9-4,6.9-4l3.5-2c0,0,3-1.7,3.4-2c0.4-0.2,0.4-0.5,0-0.7C19.8,12.7,16.7,10.9,16.7,10.9z"/>
		</defs>
		<clipPath id="SVGID_2_">
			<use xlink:href="#SVGID_1_"  style="overflow:visible;"/>
		</clipPath>
		<linearGradient id="SVGID_3_" gradientUnits="userSpaceOnUse" x1="10.0287" y1="4.5919" x2="10.0287" y2="21.8897">
			<stop  offset="0" style="stop-color:#257DB0"/>
			<stop  offset="0.208" style="stop-color:#3C90B3"/>
			<stop  offset="0.7416" style="stop-color:#73BDB9"/>
			<stop  offset="1" style="stop-color:#89CEBC"/>
		</linearGradient>
		<polygon class="st1" points="5.7,4.6 5.7,13.2 5.7,21.9 14.4,13.2 		"/>
		<linearGradient id="SVGID_4_" gradientUnits="userSpaceOnUse" x1="5.6675" y1="8.885" x2="16.7328" y2="8.885">
			<stop  offset="0" style="stop-color:#51BFAC"/>
			<stop  offset="1" style="stop-color:#DEE899"/>
		</linearGradient>
		<polygon class="st2" points="16.7,10.9 13.2,8.9 5.7,4.5 5.7,4.6 14.4,13.2 		"/>
		<linearGradient id="SVGID_5_" gradientUnits="userSpaceOnUse" x1="11.2001" y1="13.2409" x2="11.2001" y2="21.9526">
			<stop  offset="0" style="stop-color:#EB403D"/>
			<stop  offset="0.1937" style="stop-color:#D64252"/>
			<stop  offset="0.7369" style="stop-color:#9F4887"/>
			<stop  offset="1" style="stop-color:#894A9C"/>
		</linearGradient>
		<polygon class="st3" points="5.7,21.9 5.7,22 13.2,17.6 16.7,15.6 14.4,13.2 		"/>
		<linearGradient id="SVGID_6_" gradientUnits="userSpaceOnUse" x1="17.5733" y1="10.9178" x2="17.5733" y2="15.5638">
			<stop  offset="0" style="stop-color:#F48779"/>
			<stop  offset="0.6121" style="stop-color:#FAB076"/>
			<stop  offset="1" style="stop-color:#FDC674"/>
		</linearGradient>
		<polygon class="st4" points="16.7,10.9 14.4,13.2 16.7,15.6 20.8,13.2 		"/>
	</g>
	<g>
		<path class="st5" d="M60.6,16.6c-0.3,0-0.6-0.1-0.9-0.2c-0.3-0.1-0.5-0.3-0.7-0.6h-0.1c0,0.3,0.1,0.6,0.1,0.8v2.1h-0.8v-7.3h0.6
			l0.1,0.7h0c0.2-0.3,0.4-0.5,0.7-0.6c0.3-0.1,0.6-0.2,0.9-0.2c0.7,0,1.2,0.2,1.5,0.7c0.4,0.5,0.5,1.1,0.5,1.9
			c0,0.8-0.2,1.5-0.6,1.9C61.7,16.4,61.2,16.6,60.6,16.6z M60.5,12.1c-0.5,0-0.9,0.1-1.1,0.4c-0.2,0.3-0.3,0.7-0.4,1.4V14
			c0,0.7,0.1,1.2,0.4,1.5c0.2,0.3,0.6,0.5,1.1,0.5c0.4,0,0.8-0.2,1-0.5c0.2-0.4,0.4-0.8,0.4-1.5c0-0.6-0.1-1.1-0.4-1.4
			C61.3,12.2,60.9,12.1,60.5,12.1z"/>
		<path class="st5" d="M64.4,16.5h-0.8V9.4h0.8V16.5z"/>
		<path class="st5" d="M68.8,16.5l-0.2-0.7h0c-0.3,0.3-0.5,0.5-0.8,0.6c-0.2,0.1-0.6,0.2-0.9,0.2c-0.5,0-0.9-0.1-1.2-0.4
			c-0.3-0.3-0.4-0.6-0.4-1.1c0-1,0.8-1.5,2.4-1.6l0.9,0v-0.3c0-0.4-0.1-0.7-0.3-0.9c-0.2-0.2-0.4-0.3-0.8-0.3
			c-0.4,0-0.9,0.1-1.4,0.4l-0.2-0.6c0.2-0.1,0.5-0.2,0.8-0.3c0.3-0.1,0.6-0.1,0.9-0.1c0.6,0,1,0.1,1.3,0.4c0.3,0.3,0.4,0.7,0.4,1.3
			v3.4H68.8z M67.1,16c0.5,0,0.8-0.1,1.1-0.4c0.3-0.3,0.4-0.6,0.4-1.1v-0.5l-0.8,0c-0.6,0-1,0.1-1.3,0.3c-0.3,0.2-0.4,0.4-0.4,0.8
			c0,0.3,0.1,0.5,0.3,0.6C66.6,15.9,66.8,16,67.1,16z"/>
		<path class="st5" d="M69.8,11.5h0.8l1.1,2.9c0.2,0.7,0.4,1.1,0.5,1.4h0c0-0.2,0.1-0.4,0.3-0.8c0.1-0.4,0.5-1.5,1.2-3.5h0.8
			l-2.2,5.7c-0.2,0.6-0.5,1-0.8,1.2c-0.3,0.2-0.6,0.4-1.1,0.4c-0.2,0-0.5,0-0.7-0.1v-0.6c0.2,0,0.4,0.1,0.6,0.1
			c0.5,0,0.9-0.3,1.1-0.9l0.3-0.7L69.8,11.5z"/>
	</g>
	<g>
		<path class="st5" d="M46.5,12c0.2,0.2,0.7,0.6,0.7,1.4c0,0.8-0.4,1.1-0.9,1.5C46.2,15,46,15.2,46,15.4c0,0.2,0.2,0.4,0.3,0.5
			l0.4,0.3c0.5,0.4,0.9,0.7,0.9,1.5c0,1-1,2-2.8,2c-1.5,0-2.3-0.7-2.3-1.5c0-0.4,0.2-0.9,0.8-1.3c0.7-0.4,1.5-0.5,2-0.5
			c-0.1-0.2-0.3-0.4-0.3-0.7c0-0.2,0.1-0.3,0.1-0.4c-0.1,0-0.2,0-0.3,0c-1.1,0-1.7-0.8-1.7-1.7c0-0.5,0.2-1,0.7-1.4
			c0.6-0.5,1.3-0.6,1.9-0.6h2.2L47.1,12H46.5z M45.7,16.6c-0.1,0-0.1,0-0.2,0c-0.1,0-0.7,0-1.1,0.2c-0.2,0.1-0.9,0.3-0.9,1.1
			c0,0.7,0.7,1.3,1.9,1.3c1,0,1.5-0.5,1.5-1.1C46.9,17.5,46.5,17.2,45.7,16.6z M46,14.6c0.2-0.2,0.3-0.6,0.3-0.8
			c0-0.8-0.5-1.9-1.3-1.9c-0.3,0-0.6,0.1-0.7,0.3C44,12.5,44,12.8,44,13.1c0,0.7,0.4,1.9,1.3,1.9C45.6,14.9,45.9,14.8,46,14.6z"/>
		<path class="st5" d="M39.8,16.5c-1.7,0-2.6-1.3-2.6-2.5c0-1.4,1.1-2.6,2.7-2.6c1.5,0,2.5,1.2,2.5,2.5
			C42.5,15.2,41.6,16.5,39.8,16.5z M41.2,15.6c0.3-0.3,0.3-0.8,0.3-1.2c0-0.9-0.4-2.7-1.7-2.7c-0.3,0-0.7,0.1-0.9,0.4
			c-0.4,0.4-0.5,0.8-0.5,1.3c0,1,0.5,2.8,1.8,2.8C40.5,16.2,40.9,16,41.2,15.6z"/>
		<path class="st5" d="M34.1,16.5c-1.7,0-2.6-1.3-2.6-2.5c0-1.4,1.1-2.6,2.7-2.6c1.5,0,2.5,1.2,2.5,2.5
			C36.8,15.2,35.9,16.5,34.1,16.5z M35.5,15.6c0.3-0.3,0.3-0.8,0.3-1.2c0-0.9-0.4-2.7-1.7-2.7c-0.3,0-0.7,0.1-0.9,0.4
			c-0.4,0.4-0.5,0.8-0.5,1.3c0,1,0.5,2.8,1.8,2.8C34.8,16.2,35.2,16,35.5,15.6z"/>
		<path class="st5" d="M30.8,16.3l-1.5,0.3c-0.6,0.1-1.2,0.2-1.7,0.2c-2.9,0-4-2.1-4-3.8c0-2,1.6-3.9,4.3-3.9c0.6,0,1.1,0.1,1.6,0.2
			c0.8,0.2,1.2,0.5,1.4,0.7l-0.9,0.8l-0.4,0.1l0.3-0.4c-0.4-0.3-1-1-2.3-1c-1.7,0-2.9,1.3-2.9,3.1c0,2,1.4,3.9,3.7,3.9
			c0.7,0,1-0.1,1.3-0.3v-1.7l-1.6,0.1l0.8-0.5h2.2l-0.3,0.3c-0.1,0.1-0.1,0.1-0.1,0.2c0,0.1,0,0.4,0,0.5V16.3z"/>
		<path class="st5" d="M49.8,16c-0.3,0-0.4-0.1-0.4-0.5v-0.1V9.5c0,0,0,0,0-0.1c0-0.4,0.1-0.4,0.5-0.6h-1.5l-0.8,0.4h0.8v0l0,0v6.2
			v0.3c0,0.2,0,0.2-0.3,0.6H50l0.4-0.2C50.2,16,50,16,49.8,16z"/>
		<path class="st5" d="M54.1,16.1c-0.1,0.1-0.2,0.1-0.3,0.2c-0.3,0.2-0.7,0.2-1,0.2c-0.3,0-0.9,0-1.4-0.4c-0.7-0.5-1.1-1.4-1.1-2.2
			c0-1.6,1.3-2.4,2.4-2.4c0.4,0,0.8,0.1,1.1,0.3c0.5,0.3,0.7,0.8,0.7,1l-2.5,1l-0.8,0.1c0.3,1.3,1.2,2.1,2.2,2.1
			c0.5,0,0.9-0.2,1.3-0.4L54.1,16.1z M53.1,13c0.2-0.1,0.3-0.1,0.3-0.3c0-0.4-0.5-0.9-1-0.9c-0.4,0-1.2,0.3-1.2,1.5
			c0,0.2,0,0.4,0,0.6L53.1,13z"/>
		<g>
			<path class="st5" d="M55.1,11.5v0.7H55L55.1,11.5h-0.3v-0.1h0.5v0.1H55.1z"/>
			<path class="st5" d="M56.1,12.2v-0.7h0l-0.2,0.7h-0.1l-0.2-0.7h0v0.7h-0.1v-0.8h0.1l0.2,0.6h0l0.2-0.6h0.1L56.1,12.2L56.1,12.2z"
				/>
		</g>
	</g>
	<g>
		<path class="st5" d="M25.6,7h-0.5c0-0.1,0-0.3-0.1-0.6h-0.8C24.1,6.7,24,6.9,24,7h-0.5c0,0,0.1-0.4,0.4-1c0.3-0.7,0.4-1,0.4-1.1
			h0.6c0,0.1,0.1,0.4,0.3,1.1C25.5,6.6,25.6,6.9,25.6,7z M24.8,6.1c-0.2-0.6-0.3-0.9-0.3-0.9h0c0,0-0.1,0.3-0.3,0.9H24.8z"/>
		<path class="st5" d="M27.7,7h-0.4c0,0-0.2-0.3-0.5-0.7c-0.3-0.5-0.5-0.8-0.5-0.9h0c0,0.2,0,0.5,0,0.6c0,0.3,0,0.6,0,1H26
			c0-0.3,0-0.7,0-1.1c0-0.4,0-0.7,0-1h0.5c0,0.1,0.1,0.3,0.4,0.7c0.3,0.4,0.5,0.7,0.5,0.9h0c0-0.2,0-0.5,0-0.7c0-0.3,0-0.6,0-0.9
			h0.4c0,0.3,0,0.6,0,1C27.7,6.3,27.7,6.7,27.7,7z"/>
		<path class="st5" d="M30.1,5.9c0,0.3-0.1,0.6-0.3,0.8C29.6,6.9,29.3,7,29,7c-0.2,0-0.4,0-0.7,0c0-0.3,0-0.7,0-1.1c0-0.4,0-0.7,0-1
			h0.3c0,0,0.1,0,0.2,0c0.1,0,0.2,0,0.2,0c0.4,0,0.7,0.1,0.9,0.3C30,5.4,30.1,5.6,30.1,5.9z M29.6,5.9c0-0.2-0.1-0.4-0.2-0.5
			c-0.1-0.1-0.3-0.2-0.6-0.2c0,0-0.1,0-0.2,0c0,0.2,0,0.4,0,0.7c0,0.3,0,0.5,0,0.8c0.1,0,0.1,0,0.2,0c0.2,0,0.4-0.1,0.5-0.2
			C29.6,6.3,29.6,6.1,29.6,5.9z"/>
		<path class="st5" d="M32.3,7h-0.5c-0.1-0.4-0.2-0.6-0.3-0.7c-0.1-0.1-0.2-0.1-0.3-0.1c-0.1,0-0.1,0-0.2,0c0,0.3,0,0.6,0,0.9h-0.5
			c0-0.3,0-0.7,0-1.1c0-0.4,0-0.7,0-1h0.3c0,0,0.1,0,0.2,0c0.1,0,0.2,0,0.3,0c0.5,0,0.8,0.2,0.8,0.5c0,0.3-0.1,0.5-0.4,0.6v0
			c0.1,0,0.2,0.1,0.3,0.3C32,6.4,32.1,6.6,32.3,7z M31.7,5.5c0-0.2-0.1-0.3-0.4-0.3c-0.1,0-0.2,0-0.3,0c0,0.2,0,0.4,0,0.7
			c0.1,0,0.1,0,0.2,0C31.5,5.9,31.7,5.7,31.7,5.5z"/>
		<path class="st5" d="M34.6,5.9c0,0.3-0.1,0.6-0.3,0.8c-0.2,0.2-0.5,0.3-0.8,0.3c-0.3,0-0.5-0.1-0.7-0.3c-0.2-0.2-0.3-0.5-0.3-0.8
			c0-0.3,0.1-0.6,0.3-0.8c0.2-0.2,0.5-0.3,0.8-0.3c0.3,0,0.5,0.1,0.7,0.3C34.5,5.3,34.6,5.6,34.6,5.9z M34.2,5.9
			c0-0.2-0.1-0.4-0.2-0.6c-0.1-0.1-0.3-0.2-0.4-0.2c-0.2,0-0.3,0.1-0.4,0.2C33.1,5.5,33,5.7,33,5.9c0,0.2,0.1,0.4,0.2,0.6
			c0.1,0.1,0.3,0.2,0.4,0.2c0.2,0,0.3-0.1,0.4-0.2C34.1,6.3,34.2,6.2,34.2,5.9z"/>
		<path class="st5" d="M35.6,7h-0.5c0-0.3,0-0.7,0-1.1c0-0.4,0-0.7,0-1h0.5c0,0.3,0,0.6,0,1C35.5,6.3,35.6,6.7,35.6,7z"/>
		<path class="st5" d="M37.9,5.9c0,0.3-0.1,0.6-0.3,0.8C37.4,6.9,37.2,7,36.8,7c-0.2,0-0.4,0-0.7,0c0-0.3,0-0.7,0-1.1
			c0-0.4,0-0.7,0-1h0.3c0,0,0.1,0,0.2,0c0.1,0,0.2,0,0.2,0c0.4,0,0.7,0.1,0.9,0.3C37.9,5.4,37.9,5.6,37.9,5.9z M37.5,5.9
			c0-0.2-0.1-0.4-0.2-0.5c-0.1-0.1-0.3-0.2-0.6-0.2c0,0-0.1,0-0.2,0c0,0.2,0,0.4,0,0.7c0,0.3,0,0.5,0,0.8c0.1,0,0.1,0,0.2,0
			c0.2,0,0.4-0.1,0.5-0.2C37.4,6.3,37.5,6.1,37.5,5.9z"/>
		<path class="st5" d="M41.1,7h-0.5c0-0.1,0-0.3-0.1-0.6h-0.8c-0.1,0.3-0.2,0.5-0.2,0.6H39c0,0,0.1-0.4,0.4-1c0.3-0.7,0.4-1,0.4-1.1
			h0.6c0,0.1,0.1,0.4,0.3,1.1C41,6.6,41.1,6.9,41.1,7z M40.3,6.1c-0.2-0.6-0.3-0.9-0.3-0.9h0c0,0-0.1,0.3-0.3,0.9H40.3z"/>
		<path class="st5" d="M43,5.4c0,0.3-0.1,0.5-0.3,0.6c-0.2,0.1-0.4,0.2-0.7,0.2c-0.1,0-0.1,0-0.1,0c0,0.2,0,0.5,0,0.8h-0.5
			c0-0.3,0-0.7,0-1.1c0-0.4,0-0.7,0-1h0.3c0,0,0.1,0,0.2,0c0.1,0,0.2,0,0.3,0c0.2,0,0.4,0,0.5,0.1C42.9,5.1,43,5.2,43,5.4z
			 M42.6,5.5c0-0.2-0.2-0.4-0.5-0.4c-0.1,0-0.2,0-0.2,0c0,0.2,0,0.4,0,0.7c0,0,0.1,0,0.1,0C42.4,5.9,42.6,5.8,42.6,5.5z"/>
		<path class="st5" d="M45,5.4c0,0.3-0.1,0.5-0.3,0.6c-0.2,0.1-0.4,0.2-0.7,0.2c-0.1,0-0.1,0-0.1,0c0,0.2,0,0.5,0,0.8h-0.5
			c0-0.3,0-0.7,0-1.1c0-0.4,0-0.7,0-1h0.3c0,0,0.1,0,0.2,0c0.1,0,0.2,0,0.3,0c0.2,0,0.4,0,0.5,0.1C44.9,5.1,45,5.2,45,5.4z
			 M44.6,5.5c0-0.2-0.2-0.4-0.5-0.4c-0.1,0-0.2,0-0.2,0c0,0.2,0,0.4,0,0.7c0,0,0.1,0,0.1,0C44.4,5.9,44.6,5.8,44.6,5.5z"/>
		<path class="st5" d="M48.2,5.9c0,0.3-0.1,0.6-0.3,0.8c-0.2,0.2-0.5,0.3-0.8,0.3c-0.3,0-0.5-0.1-0.7-0.3c-0.2-0.2-0.3-0.5-0.3-0.8
			c0-0.3,0.1-0.6,0.3-0.8c0.2-0.2,0.5-0.3,0.8-0.3c0.3,0,0.5,0.1,0.7,0.3C48.1,5.3,48.2,5.6,48.2,5.9z M47.7,5.9
			c0-0.2-0.1-0.4-0.2-0.6c-0.1-0.1-0.3-0.2-0.4-0.2c-0.2,0-0.3,0.1-0.4,0.2c-0.1,0.1-0.2,0.3-0.2,0.5c0,0.2,0.1,0.4,0.2,0.6
			c0.1,0.1,0.3,0.2,0.4,0.2c0.2,0,0.3-0.1,0.4-0.2C47.7,6.3,47.7,6.2,47.7,5.9z"/>
		<path class="st5" d="M50.4,7H50c0,0-0.2-0.3-0.5-0.7c-0.3-0.5-0.5-0.8-0.5-0.9h0c0,0.2,0,0.5,0,0.6c0,0.3,0,0.6,0,1h-0.4
			c0-0.3,0-0.7,0-1.1c0-0.4,0-0.7,0-1h0.5c0,0.1,0.1,0.3,0.4,0.7C49.8,6,50,6.3,50,6.4h0c0-0.2,0-0.5,0-0.7c0-0.3,0-0.6,0-0.9h0.4
			c0,0.3,0,0.6,0,1C50.4,6.3,50.4,6.7,50.4,7z"/>
	</g>
</g>
</svg>
