<?xml version="1.0" encoding="utf-8"?>
<!-- Generator: Adobe Illustrator 23.0.1, SVG Export Plug-In . SVG Version: 6.00 Build 0)  -->
<svg version="1.1" id="Layer_1" xmlns="http://www.w3.org/2000/svg" xmlns:xlink="http://www.w3.org/1999/xlink" x="0px" y="0px"
	 viewBox="0 0 55.2 55.2" style="enable-background:new 0 0 55.2 55.2;" xml:space="preserve">
<style type="text/css">
	.st0{fill:#FFFFFF;}
</style>
<g>
	<g>
		<path class="st0" d="M27.6,55.2C12.4,55.2,0,42.8,0,27.6S12.3,0,27.6,0s27.6,12.3,27.6,27.6c0,0,0,0,0,0
			C55.2,42.8,42.8,55.2,27.6,55.2z M27.6,4C14.6,4,4,14.6,4,27.6c0,13,10.6,23.6,23.6,23.6s23.6-10.6,23.6-23.6c0,0,0,0,0,0
			C51.2,14.6,40.6,4,27.6,4z"/>
		<circle class="st0" cx="27.6" cy="18.2" r="3.2"/>
		<rect x="25.1" y="23.9" class="st0" width="5" height="16.3"/>
	</g>
</g>
</svg>
