<?xml version="1.0" encoding="utf-8"?>
<!-- Generator: Adobe Illustrator 23.0.1, SVG Export Plug-In . SVG Version: 6.00 Build 0)  -->
<svg version="1.1" id="Layer_1" xmlns="http://www.w3.org/2000/svg" xmlns:xlink="http://www.w3.org/1999/xlink" x="0px" y="0px"
	 viewBox="0 0 448.8 257.5" style="enable-background:new 0 0 448.8 257.5;" xml:space="preserve">
<style type="text/css">
	.st0{fill:url(#SVGID_1_);}
	.st1{fill:url(#SVGID_2_);}
	.st2{fill:url(#SVGID_3_);}
	.st3{fill:url(#SVGID_4_);}
	.st4{fill:url(#SVGID_5_);}
	.st5{fill:url(#SVGID_6_);}
	.st6{fill:url(#SVGID_7_);}
	.st7{fill:url(#SVGID_8_);}
	.st8{fill:url(#SVGID_9_);}
	.st9{fill:url(#SVGID_10_);}
	.st10{fill:url(#SVGID_11_);}
	.st11{fill:url(#SVGID_12_);}
	.st12{fill:url(#SVGID_13_);}
	.st13{fill:url(#SVGID_14_);}
	.st14{fill:url(#SVGID_15_);}
	.st15{fill:url(#SVGID_16_);}
	.st16{fill:url(#SVGID_17_);}
	.st17{fill:url(#SVGID_18_);}
	.st18{fill:url(#SVGID_19_);}
	.st19{fill:url(#SVGID_20_);}
	.st20{fill:url(#SVGID_21_);}
	.st21{fill:url(#SVGID_22_);}
	.st22{fill:url(#SVGID_23_);}
	.st23{fill:url(#SVGID_24_);}
	.st24{fill:url(#SVGID_25_);}
	.st25{fill:url(#SVGID_26_);}
	.st26{fill:url(#SVGID_27_);}
	.st27{enable-background:new    ;}
	.st28{fill:#92D4D3;}
</style>
<g>
	<g>
		
			<linearGradient id="SVGID_1_" gradientUnits="userSpaceOnUse" x1="18.3" y1="190.6908" x2="18.3" y2="-7.188" gradientTransform="matrix(1 0 0 -1 0 260)">
			<stop  offset="0" style="stop-color:#E0F1E7"/>
			<stop  offset="1" style="stop-color:#B8D5D5"/>
		</linearGradient>
		<path class="st0" d="M32,164.4c-0.9,3.4-1.6,4.9-9,4.9h-2.8c-5.2,0-6.1-1.3-6.1-9V149c0-7.7,0.8-9,6.1-9h0.2v-1.9H2.1v1.9h0.2
			c5.2,0,6.1,1.3,6.1,9v12.6c0,7.8-0.8,9.1-6.1,9.1H2.1v1.9h31.8l0.6-9.9h-2L32,164.4z"/>
		
			<linearGradient id="SVGID_2_" gradientUnits="userSpaceOnUse" x1="56.6" y1="190.6908" x2="56.6" y2="-7.188" gradientTransform="matrix(1 0 0 -1 0 260)">
			<stop  offset="0" style="stop-color:#E0F1E7"/>
			<stop  offset="1" style="stop-color:#B8D5D5"/>
		</linearGradient>
		<path class="st1" d="M69.2,163.8l-11.6-27.1h-1.3l-11.6,27.1c-2.6,5.9-3.3,6.8-8,6.8h-0.2v2h15.2v-2h-0.2c-3,0-4.5-0.3-5-1.1
			s-0.1-2.3,0.9-4.7l1.5-3.5h12.7l1.5,3.5c1.1,2.5,1.3,3.8,0.7,4.6c-0.5,0.8-2,1.2-4.9,1.2h-0.2v2h18v-2h-0.2
			C72.7,170.6,71.8,169.8,69.2,163.8z M60.3,158.1h-9.9l5-11.5L60.3,158.1z"/>
		
			<linearGradient id="SVGID_3_" gradientUnits="userSpaceOnUse" x1="99.8" y1="190.6908" x2="99.8" y2="-7.188" gradientTransform="matrix(1 0 0 -1 0 260)">
			<stop  offset="0" style="stop-color:#E0F1E7"/>
			<stop  offset="1" style="stop-color:#B8D5D5"/>
		</linearGradient>
		<path class="st2" d="M104.3,140h0.2c5.2,0,6.1,1.3,6.1,9v13.7l-20.7-24.6l-0.1-0.1h-9.9v1.9H80c5.2,0,6.1,1.3,6.1,9v12.6
			c0,7.8-0.8,9.1-6.1,9.1h-0.2v1.9h15.7v-1.9h-0.2c-5.2,0-6.1-1.3-6.1-9.1v-15l22.6,27.2v0.1h1.7V149c0-7.7,0.8-9,6.1-9h0.2v-1.9
			h-15.7v1.9H104.3z"/>
		
			<linearGradient id="SVGID_4_" gradientUnits="userSpaceOnUse" x1="144.95" y1="190.6908" x2="144.95" y2="-7.188" gradientTransform="matrix(1 0 0 -1 0 260)">
			<stop  offset="0" style="stop-color:#E0F1E7"/>
			<stop  offset="1" style="stop-color:#B8D5D5"/>
		</linearGradient>
		<path class="st3" d="M143.7,138.1h-16.9v1.9h0.2c5.2,0,6.1,1.3,6.1,9v12.6c0,7.8-0.8,9.1-6.1,9.1h-0.2v1.9h16.9
			c12.2,0,19.4-6.5,19.4-17.3c0-4.9-1.6-9.1-4.6-12.1C155.1,139.8,150.1,138.1,143.7,138.1z M144,169.3h-0.6c-3.8,0-4.3-0.7-4.3-5.8
			v-22.2h5c10.2,0,12.3,7.6,12.3,14S154.1,169.3,144,169.3z"/>
		
			<linearGradient id="SVGID_5_" gradientUnits="userSpaceOnUse" x1="209.2" y1="190.6908" x2="209.2" y2="-7.188" gradientTransform="matrix(1 0 0 -1 0 260)">
			<stop  offset="0" style="stop-color:#E0F1E7"/>
			<stop  offset="1" style="stop-color:#B8D5D5"/>
		</linearGradient>
		<path class="st4" d="M209.2,136.8c-5.1,0-10,1.9-13.7,5.5c-3.7,3.5-5.7,8.2-5.7,13.1c0,10.3,8.7,18.6,19.4,18.6
			s19.4-8.4,19.4-18.6c0-4.9-2-9.5-5.7-13.1S214.3,136.8,209.2,136.8z M209.2,140.1c4.7,0,12.6,3.2,12.6,15.2s-7.9,15.2-12.6,15.2
			s-12.6-3.2-12.6-15.2S204.5,140.1,209.2,140.1z"/>
		
			<linearGradient id="SVGID_6_" gradientUnits="userSpaceOnUse" x1="254" y1="190.6908" x2="254" y2="-7.188" gradientTransform="matrix(1 0 0 -1 0 260)">
			<stop  offset="0" style="stop-color:#E0F1E7"/>
			<stop  offset="1" style="stop-color:#B8D5D5"/>
		</linearGradient>
		<path class="st5" d="M239.2,138.1v1.9h0.2c5.2,0,6.1,1.3,6.1,9v12.6c0,7.8-0.8,9.1-6.1,9.1h-0.2v1.9h18.4v-1.9h-0.2
			c-5.2,0-6.1-1.3-6.1-9.1V156h0.3c7.7,0,8.3,0.9,8.3,6.1v0.2h1.9v-15.7H260v0.2c0,5.2-0.6,6.1-8.3,6.1h-0.3v-11.4h6
			c7.1,0,8,1.3,9,4.9l0.4,1.7h2l-0.7-9.8h-28.9V138.1z"/>
		
			<linearGradient id="SVGID_7_" gradientUnits="userSpaceOnUse" x1="317.15" y1="190.6908" x2="317.15" y2="-7.188" gradientTransform="matrix(1 0 0 -1 0 260)">
			<stop  offset="0" style="stop-color:#E0F1E7"/>
			<stop  offset="1" style="stop-color:#B8D5D5"/>
		</linearGradient>
		<path class="st6" d="M302.4,138.1v1.9h0.2c5.2,0,6.1,1.3,6.1,9v12.6c0,7.8-0.8,9.1-6.1,9.1h-0.2v1.9h18.4v-1.9h-0.2
			c-5.2,0-6.1-1.3-6.1-9.1V156h0.3c7.7,0,8.3,0.9,8.3,6.1v0.2h1.9v-15.7h-1.9v0.2c0,5.2-0.6,6.1-8.3,6.1h-0.3v-11.4h6
			c7.1,0,8,1.3,9,4.9l0.4,1.7h2l-0.7-9.8h-28.8V138.1z"/>
		
			<linearGradient id="SVGID_8_" gradientUnits="userSpaceOnUse" x1="356.1" y1="190.6908" x2="356.1" y2="-7.188" gradientTransform="matrix(1 0 0 -1 0 260)">
			<stop  offset="0" style="stop-color:#E0F1E7"/>
			<stop  offset="1" style="stop-color:#B8D5D5"/>
		</linearGradient>
		<path class="st7" d="M346.9,140h0.2c5.2,0,6.1,1.3,6.1,9v12.6c0,7.8-0.8,9.1-6.1,9.1h-0.2v1.9h18.4v-1.9h-0.2
			c-5.2,0-6.1-1.3-6.1-9.1V149c0-7.7,0.8-9,6.1-9h0.2v-1.9h-18.4V140z"/>
		
			<linearGradient id="SVGID_9_" gradientUnits="userSpaceOnUse" x1="392.65" y1="190.6908" x2="392.65" y2="-7.188" gradientTransform="matrix(1 0 0 -1 0 260)">
			<stop  offset="0" style="stop-color:#E0F1E7"/>
			<stop  offset="1" style="stop-color:#B8D5D5"/>
		</linearGradient>
		<path class="st8" d="M399.7,163.4l-4.7-5.7c5.6-0.9,9.4-4.7,9.4-9.7c0-6-5-9.9-12.8-9.9h-16.5v1.9h0.2c5.2,0,6.1,1.3,6.1,9v12.6
			c0,7.8-0.8,9.1-6.1,9.1h-0.2v1.9h18.4v-1.9h-0.2c-5.2,0-6.1-1.3-6.1-9.1v-3.7h2l10.7,14.6v0.1h10.3v-1.9h-0.1
			C407,170.2,403.4,167.8,399.7,163.4z M397.9,148.1c0,3.2-1.7,6.6-6.3,6.6h-4.3v-13.4h4.3C396.3,141.3,397.9,144.8,397.9,148.1z"/>
		
			<linearGradient id="SVGID_10_" gradientUnits="userSpaceOnUse" x1="431.45" y1="190.7" x2="431.45" y2="-7.1788" gradientTransform="matrix(1 0 0 -1 0 260)">
			<stop  offset="0" style="stop-color:#E0F1E7"/>
			<stop  offset="1" style="stop-color:#B8D5D5"/>
		</linearGradient>
		<path class="st9" d="M444.8,162.7l-0.4,1.7c-0.9,3.6-1.9,4.9-9,4.9h-0.9c-5.2,0-6.1-1.3-6.1-9V156h0.3c7.7,0,8.3,0.9,8.3,6.1v0.2
			h1.9v-15.7H437v0.2c0,5.2-0.6,6.1-8.3,6.1h-0.3v-11.4h5.1c7.1,0,8.1,1.3,8.9,4.9l0.4,1.7h2l-0.7-9.8h-27.9v1.9h0.2
			c5.2,0,6.1,1.3,6.1,9v12.6c0,7.8-0.8,9.1-6.1,9.1h-0.2v1.9H446l0.7-9.9h-1.9V162.7z"/>
		
			<linearGradient id="SVGID_11_" gradientUnits="userSpaceOnUse" x1="183.6" y1="194.4084" x2="183.6" y2="-3.4704" gradientTransform="matrix(1 0 0 -1 0 260)">
			<stop  offset="0" style="stop-color:#E0F1E7"/>
			<stop  offset="1" style="stop-color:#B8D5D5"/>
		</linearGradient>
		<path class="st10" d="M179.6,99.6h0.2c2,0,2.5,0.3,2.5,3.7v5.3c0,3.2-0.3,3.7-2.5,3.7h-0.2v1h8v-1h-0.2c-2.1,0-2.5-0.5-2.5-3.7
			v-5.3c0-3.4,0.4-3.7,2.5-3.7h0.2v-1h-8V99.6z"/>
		
			<linearGradient id="SVGID_12_" gradientUnits="userSpaceOnUse" x1="198.55" y1="194.4084" x2="198.55" y2="-3.4704" gradientTransform="matrix(1 0 0 -1 0 260)">
			<stop  offset="0" style="stop-color:#E0F1E7"/>
			<stop  offset="1" style="stop-color:#B8D5D5"/>
		</linearGradient>
		<path class="st11" d="M196.8,112.3h-0.2c-2.1,0-2.5-0.5-2.5-3.7v-6.1l9.4,11.3v0.1h0.9v-10.6c0-3.4,0.4-3.7,2.5-3.7h0.2v-1h-6.8v1
			h0.2c2,0,2.5,0.3,2.5,3.7v5.5l-8.6-10.2l-0.1-0.1H190v1h0.2c2,0,2.5,0.3,2.5,3.7v5.3c0,3.2-0.3,3.7-2.5,3.7H190v1h6.8V112.3z"/>
		
			<linearGradient id="SVGID_13_" gradientUnits="userSpaceOnUse" x1="223.95" y1="194.4084" x2="223.95" y2="-3.4704" gradientTransform="matrix(1 0 0 -1 0 260)">
			<stop  offset="0" style="stop-color:#E0F1E7"/>
			<stop  offset="1" style="stop-color:#B8D5D5"/>
		</linearGradient>
		<path class="st12" d="M216.3,98.6l-0.2,4.4h1l0.2-0.8c0.4-1.4,0.5-2,3.6-2h1.8v8.4c0,3.4-0.5,3.7-2.5,3.7H220v1h8v-1h-0.2
			c-2,0-2.5-0.3-2.5-3.7v-8.4h1.6c3.1,0,3.3,0.6,3.7,2l0.2,0.8h1l-0.3-4.4H216.3z"/>
		
			<linearGradient id="SVGID_14_" gradientUnits="userSpaceOnUse" x1="242.6" y1="194.4084" x2="242.6" y2="-3.4704" gradientTransform="matrix(1 0 0 -1 0 260)">
			<stop  offset="0" style="stop-color:#E0F1E7"/>
			<stop  offset="1" style="stop-color:#B8D5D5"/>
		</linearGradient>
		<path class="st13" d="M241.7,112.3h-0.2c-2.1,0-2.5-0.5-2.5-3.7v-2.3h7.2v2.3c0,3.2-0.3,3.7-2.5,3.7h-0.2v1h8v-1h-0.2
			c-2,0-2.5-0.3-2.5-3.7v-5.3c0-3.4,0.5-3.7,2.5-3.7h0.2v-1h-8v1h0.2c2,0,2.5,0.3,2.5,3.7v1.5H239v-1.5c0-3.4,0.4-3.7,2.5-3.7h0.2
			v-1h-8v1h0.2c2,0,2.5,0.3,2.5,3.7v5.3c0,3.2-0.3,3.7-2.5,3.7h-0.2v1h8V112.3z"/>
		
			<linearGradient id="SVGID_15_" gradientUnits="userSpaceOnUse" x1="260.15" y1="194.4084" x2="260.15" y2="-3.4704" gradientTransform="matrix(1 0 0 -1 0 260)">
			<stop  offset="0" style="stop-color:#E0F1E7"/>
			<stop  offset="1" style="stop-color:#B8D5D5"/>
		</linearGradient>
		<path class="st14" d="M266.7,109h-1l-0.2,0.8c-0.4,1.5-0.8,2-3.7,2h-0.4c-2,0-2.5-0.3-2.5-3.7v-1.8l0,0c3.3,0,3.4,0.4,3.4,2.5v0.2
			h1v-6.8h-1v0.2c0,2.1-0.1,2.5-3.4,2.5l0,0v-4.6h2.1c3.1,0,3.3,0.6,3.7,2l0.2,0.8h1l-0.3-4.3h-12v1h0.2c2,0,2.5,0.3,2.5,3.7v5.3
			c0,3.2-0.3,3.7-2.5,3.7h-0.2v1h12.8L266.7,109z"/>
		<g>
			
				<linearGradient id="SVGID_16_" gradientUnits="userSpaceOnUse" x1="2.4431" y1="221.1" x2="41.4028" y2="221.1" gradientTransform="matrix(1 0 0 -1 0 260)">
				<stop  offset="0" style="stop-color:#E0F1E7"/>
				<stop  offset="1" style="stop-color:#B8D5D5"/>
			</linearGradient>
			<path class="st15" d="M39.5,0c1.1,0,1.9,0.9,1.9,1.9v61.9c0,9.2-4.9,14-14,14H16.5c-9.2,0-14-4.9-14-14V1.9C2.4,0.9,3.3,0,4.4,0
				h9.4c1.1,0,1.9,0.9,1.9,1.9v59.2c0,2.6,1.4,3.9,3.9,3.9h5.1c2.5,0,3.9-1.3,3.9-3.9V1.9c0-1.1,0.9-1.9,1.9-1.9H39.5z"/>
			
				<linearGradient id="SVGID_17_" gradientUnits="userSpaceOnUse" x1="51.1437" y1="216.2" x2="94.5325" y2="216.2" gradientTransform="matrix(1 0 0 -1 0 260)">
				<stop  offset="0" style="stop-color:#E0F1E7"/>
				<stop  offset="1" style="stop-color:#B8D5D5"/>
			</linearGradient>
			<path class="st16" d="M82.5,77.9c-1.2,0-1.8-0.5-2.2-1.5L68,52.4l-3.6,6.9V76c0,1.3-0.7,1.9-1.9,1.9h-9.4c-1.3,0-1.9-0.7-1.9-1.9
				V11.7c0-1.3,0.7-1.9,1.9-1.9h9.4c1.3,0,1.9,0.7,1.9,1.9V37l15-25.8c0.5-0.9,1.2-1.5,2.2-1.5h10.2c1.5,0,2.1,1.1,1.4,2.3
				L76.7,41.2l17.6,34.5c0.7,1.3,0.1,2.2-1.5,2.2C92.8,77.9,82.5,77.9,82.5,77.9z"/>
			
				<linearGradient id="SVGID_18_" gradientUnits="userSpaceOnUse" x1="99.4404" y1="216.2" x2="148.752" y2="216.2" gradientTransform="matrix(1 0 0 -1 0 260)">
				<stop  offset="0" style="stop-color:#E0F1E7"/>
				<stop  offset="1" style="stop-color:#B8D5D5"/>
			</linearGradient>
			<path class="st17" d="M147,9.7c1.5,0,2.1,1,1.6,2.2l-17.8,40.4V76c0,1.3-0.7,1.9-1.9,1.9h-9.4c-1.3,0-1.9-0.7-1.9-1.9V52.4
				L99.6,12c-0.6-1.3,0.1-2.2,1.6-2.2h9.7c1.2,0,1.9,0.6,2.2,1.6l10.9,25l10.9-25c0.4-1,1.1-1.6,2.2-1.6h9.9V9.7z"/>
			
				<linearGradient id="SVGID_19_" gradientUnits="userSpaceOnUse" x1="261.6" y1="221" x2="299.5857" y2="221" gradientTransform="matrix(1 0 0 -1 0 260)">
				<stop  offset="0" style="stop-color:#E0F1E7"/>
				<stop  offset="1" style="stop-color:#B8D5D5"/>
			</linearGradient>
			<path class="st18" d="M274.9,65.1h23.2c1.1,0,1.6,0.6,1.6,1.6v9.7c0,1.1-0.5,1.6-1.6,1.6h-34.9c-1,0-1.6-0.5-1.6-1.6V1.6
				c0-1,0.6-1.6,1.6-1.6h10.1c1.1,0,1.6,0.6,1.6,1.6L274.9,65.1L274.9,65.1z"/>
			
				<linearGradient id="SVGID_20_" gradientUnits="userSpaceOnUse" x1="307.2" y1="216.15" x2="346.1597" y2="216.15" gradientTransform="matrix(1 0 0 -1 0 260)">
				<stop  offset="0" style="stop-color:#E0F1E7"/>
				<stop  offset="1" style="stop-color:#B8D5D5"/>
			</linearGradient>
			<path class="st19" d="M307.2,23.8c0-9.2,4.9-14,14-14h10.9c9.2,0,14,4.9,14,14v40.1c0,9.2-4.9,14-14,14h-10.9
				c-9.2,0-14-4.9-14-14V23.8z M330,65.4c2.5,0,3.9-1.3,3.9-3.9V26.2c0-2.5-1.4-3.9-3.9-3.9h-6.2c-2.5,0-3.9,1.4-3.9,3.9v35.3
				c0,2.6,1.4,3.9,3.9,3.9H330z"/>
			
				<linearGradient id="SVGID_21_" gradientUnits="userSpaceOnUse" x1="354.1" y1="216.15" x2="388.1894" y2="216.15" gradientTransform="matrix(1 0 0 -1 0 260)">
				<stop  offset="0" style="stop-color:#E0F1E7"/>
				<stop  offset="1" style="stop-color:#B8D5D5"/>
			</linearGradient>
			<path class="st20" d="M367.4,65.1h19.3c1.1,0,1.6,0.6,1.6,1.6v9.7c0,1.1-0.5,1.6-1.6,1.6h-31c-1,0-1.6-0.5-1.6-1.6V11.3
				c0-1,0.6-1.6,1.6-1.6h10.1c1.1,0,1.6,0.6,1.6,1.6V65.1z"/>
			
				<linearGradient id="SVGID_22_" gradientUnits="userSpaceOnUse" x1="394.5143" y1="216.25" x2="443.8669" y2="216.25" gradientTransform="matrix(1 0 0 -1 0 260)">
				<stop  offset="0" style="stop-color:#E0F1E7"/>
				<stop  offset="1" style="stop-color:#B8D5D5"/>
			</linearGradient>
			<path class="st21" d="M433,77.9c-0.9,0-1.4-0.5-1.6-1.4l-3.1-12.3H410l-3,12.3c-0.2,0.9-0.7,1.4-1.6,1.4h-9.5
				c-1.1,0-1.6-0.6-1.3-1.7L410.8,11c0.2-1,0.8-1.4,1.7-1.4H426c0.9,0,1.5,0.4,1.7,1.4l16.2,65.2c0.3,1.1-0.2,1.7-1.4,1.7H433z
				 M419.1,26.5L413,53h12.3L419.1,26.5z"/>
		</g>
		
			<linearGradient id="SVGID_23_" gradientUnits="userSpaceOnUse" x1="81.25" y1="158.7261" x2="81.25" y2="149.9382" gradientTransform="matrix(1 0 0 -1 0 260)">
			<stop  offset="0" style="stop-color:#E0F1E7"/>
			<stop  offset="1" style="stop-color:#B8D5D5"/>
		</linearGradient>
		<polygon class="st22" points="159.3,105.1 94.6,105.1 90.7,101.3 86.9,105.1 85.8,105.1 81.9,101.3 78.1,105.1 77,105.1 
			73.2,101.3 69.3,105.1 3.2,105.1 3.2,106.3 69.4,106.3 73.2,110.1 76.9,106.3 78.2,106.3 81.9,110.1 85.7,106.3 87,106.3 
			90.7,110.1 94.5,106.3 159.3,106.3 		"/>
		
			<linearGradient id="SVGID_24_" gradientUnits="userSpaceOnUse" x1="366.8" y1="158.7261" x2="366.8" y2="149.9382" gradientTransform="matrix(1 0 0 -1 0 260)">
			<stop  offset="0" style="stop-color:#E0F1E7"/>
			<stop  offset="1" style="stop-color:#B8D5D5"/>
		</linearGradient>
		<polygon class="st23" points="444.9,105.1 380.1,105.1 376.3,101.3 372.4,105.1 371.3,105.1 367.5,101.3 363.6,105.1 362.5,105.1 
			358.7,101.3 354.8,105.1 288.7,105.1 288.7,106.3 354.9,106.3 358.7,110.1 362.5,106.3 363.7,106.3 367.5,110.1 371.2,106.3 
			372.5,106.3 376.3,110.1 380,106.3 444.9,106.3 		"/>
		<g>
			
				<linearGradient id="SVGID_25_" gradientUnits="userSpaceOnUse" x1="169.0027" y1="213.7" x2="189.3442" y2="213.7" gradientTransform="matrix(1 0 0 -1 0 260)">
				<stop  offset="0" style="stop-color:#E0F1E7"/>
				<stop  offset="1" style="stop-color:#B8D5D5"/>
			</linearGradient>
			<path class="st24" d="M184.5,62.4c-0.4,0-0.6-0.2-0.6-0.6l-1.1-5.9h-7.2l-1.1,5.9c-0.1,0.4-0.3,0.6-0.6,0.6h-4.3
				c-0.4,0-0.6-0.2-0.5-0.7l6.7-30.9c0.1-0.4,0.3-0.6,0.7-0.6h5.6c0.4,0,0.6,0.2,0.7,0.6l6.7,30.9c0.1,0.4-0.1,0.7-0.6,0.7H184.5z
				 M179.2,37.3l-2.6,14h5.1L179.2,37.3z"/>
			
				<linearGradient id="SVGID_26_" gradientUnits="userSpaceOnUse" x1="192.5394" y1="213.75" x2="209.693" y2="213.75" gradientTransform="matrix(1 0 0 -1 0 260)">
				<stop  offset="0" style="stop-color:#E0F1E7"/>
				<stop  offset="1" style="stop-color:#B8D5D5"/>
			</linearGradient>
			<path class="st25" d="M209.1,30.2c0.4,0,0.6,0.2,0.6,0.6v30.9c0,0.4-0.2,0.6-0.6,0.6h-4c-0.4,0-0.6-0.2-0.7-0.5l-6.1-17.2H198v17
				c0,0.4-0.2,0.6-0.6,0.6h-4.2c-0.4,0-0.6-0.2-0.6-0.6V30.9c0-0.4,0.2-0.6,0.6-0.6h4c0.4,0,0.6,0.2,0.7,0.5l6.1,17.1h0.2v-17
				c0-0.4,0.2-0.6,0.6-0.6h4.3V30.2z"/>
			
				<linearGradient id="SVGID_27_" gradientUnits="userSpaceOnUse" x1="213.7" y1="213.65" x2="229.7692" y2="213.65" gradientTransform="matrix(1 0 0 -1 0 260)">
				<stop  offset="0" style="stop-color:#E0F1E7"/>
				<stop  offset="1" style="stop-color:#B8D5D5"/>
			</linearGradient>
			<path class="st26" d="M213.7,30.9c0-0.4,0.2-0.6,0.6-0.6h9.6c3.8,0,5.8,2,5.8,5.8v20.5c0,3.8-2,5.8-5.8,5.8h-9.6
				c-0.4,0-0.6-0.2-0.6-0.6V30.9z M222.9,57.1c1,0,1.6-0.5,1.6-1.6V37.2c0-1.1-0.6-1.6-1.6-1.6h-3.7v21.5
				C219.2,57.1,222.9,57.1,222.9,57.1z"/>
		</g>
	</g>
	<g class="st27">
		<path class="st28" d="M15.4,219.5c0.4,0,0.6,0.2,0.6,0.6v4c0,0.4-0.2,0.6-0.6,0.6h-4.6v26.1c0,0.4-0.2,0.6-0.6,0.6H5.9
			c-0.4,0-0.6-0.2-0.6-0.6v-26.1H0.7c-0.4,0-0.6-0.2-0.6-0.6v-4c0-0.4,0.2-0.6,0.6-0.6H15.4z"/>
		<path class="st28" d="M32.8,220.2c0-0.4,0.2-0.6,0.6-0.6h4.1c0.5,0,0.7,0.2,0.7,0.6v30.7c0,0.4-0.2,0.6-0.7,0.6h-4.1
			c-0.4,0-0.6-0.2-0.6-0.6v-12.7h-5.1v12.7c0,0.4-0.2,0.6-0.6,0.6h-4.1c-0.5,0-0.7-0.2-0.7-0.6v-30.7c0-0.4,0.2-0.6,0.7-0.6h4.1
			c0.4,0,0.6,0.2,0.6,0.6v12.7h5.1V220.2z"/>
		<path class="st28" d="M61.3,224.2c0,0.4-0.2,0.7-0.6,0.7h-10v8h7.6c0.4,0,0.6,0.2,0.6,0.7v4c0,0.4-0.2,0.7-0.6,0.7h-7.6v8.1h10
			c0.5,0,0.6,0.2,0.6,0.6v4c0,0.4-0.2,0.6-0.6,0.6H45.9c-0.4,0-0.6-0.2-0.6-0.6v-30.7c0-0.4,0.2-0.6,0.6-0.6h14.7
			c0.5,0,0.6,0.2,0.6,0.6V224.2z"/>
		<path class="st28" d="M103.3,219.5c0.5,0,0.8,0.3,0.8,0.8v30.4c0,0.5-0.3,0.8-0.8,0.8h-3.7c-0.5,0-0.8-0.3-0.8-0.8v-18h-0.3
			l-4,18.1c-0.1,0.5-0.4,0.7-0.9,0.7h-2c-0.5,0-0.8-0.2-0.9-0.7l-4-18.1h-0.3v18c0,0.5-0.3,0.8-0.8,0.8h-3.7c-0.5,0-0.8-0.3-0.8-0.8
			v-30.4c0-0.5,0.3-0.8,0.8-0.8h5.3c0.5,0,0.8,0.2,0.9,0.7l4.4,19.9l4.4-19.9c0.1-0.5,0.4-0.7,0.9-0.7H103.3z"/>
		<path class="st28" d="M125.4,251.5c-0.4,0-0.6-0.2-0.6-0.6l-1.1-5.8h-7.1l-1.1,5.8c-0.1,0.4-0.3,0.6-0.6,0.6h-4.3
			c-0.4,0-0.6-0.2-0.5-0.7l6.6-30.8c0.1-0.4,0.3-0.6,0.7-0.6h5.6c0.4,0,0.6,0.2,0.7,0.6l6.6,30.8c0.1,0.4-0.1,0.7-0.6,0.7H125.4z
			 M120.1,226.5l-2.6,14h5.1L120.1,226.5z"/>
		<path class="st28" d="M136.1,225.3c0-3.8,2-5.8,5.8-5.8h5.3c3.7,0,5.8,2,5.8,5.8v4.2c0,0.4-0.2,0.6-0.6,0.6h-4
			c-0.4,0-0.6-0.2-0.6-0.6v-3c0-1-0.6-1.6-1.6-1.6h-2.9c-1.1,0-1.6,0.6-1.6,1.6v18.2c0,1.1,0.6,1.6,1.6,1.6h2.9c1,0,1.6-0.5,1.6-1.6
			v-5.4h-2.1c-0.4,0-0.6-0.2-0.6-0.6v-4c0-0.4,0.2-0.6,0.6-0.6h6.7c0.4,0,0.6,0.2,0.6,0.6v11.1c0,3.8-2,5.8-5.8,5.8h-5.3
			c-3.8,0-5.8-2-5.8-5.8V225.3z"/>
		<path class="st28" d="M164.7,219.5c0.4,0,0.6,0.2,0.6,0.6v30.7c0,0.4-0.2,0.6-0.6,0.6h-4.2c-0.4,0-0.6-0.2-0.6-0.6v-30.7
			c0-0.4,0.2-0.6,0.6-0.6H164.7z"/>
		<path class="st28" d="M188.4,229.6c0,0.4-0.2,0.6-0.6,0.6h-4c-0.4,0-0.6-0.2-0.6-0.6v-3.2c0-1-0.6-1.6-1.6-1.6h-2.1
			c-1.1,0-1.6,0.6-1.6,1.6v18.2c0,1.1,0.6,1.6,1.6,1.6h2.1c1,0,1.6-0.5,1.6-1.6v-3.2c0-0.4,0.2-0.6,0.6-0.6h4c0.4,0,0.6,0.2,0.6,0.6
			v4.3c0,3.8-2,5.8-5.8,5.8h-4.5c-3.8,0-5.8-2-5.8-5.8v-20.5c0-3.8,2-5.8,5.8-5.8h4.5c3.7,0,5.8,2,5.8,5.8V229.6z"/>
		<path class="st28" d="M208.5,225.3c0-3.8,2-5.8,5.8-5.8h4.5c3.8,0,5.8,2,5.8,5.8v20.5c0,3.8-2,5.8-5.8,5.8h-4.5
			c-3.8,0-5.8-2-5.8-5.8V225.3z M217.7,246.4c1,0,1.6-0.5,1.6-1.6v-18.5c0-1-0.6-1.6-1.6-1.6h-2.3c-1,0-1.6,0.6-1.6,1.6v18.5
			c0,1.1,0.6,1.6,1.6,1.6H217.7z"/>
		<path class="st28" d="M247.5,224.2c0,0.4-0.2,0.6-0.6,0.6H237v8h7.5c0.4,0,0.6,0.2,0.6,0.6v4c0,0.4-0.2,0.6-0.6,0.6H237v12.8
			c0,0.4-0.2,0.6-0.6,0.6h-4.2c-0.4,0-0.6-0.2-0.6-0.6v-30.7c0-0.4,0.2-0.6,0.6-0.6h14.7c0.4,0,0.6,0.2,0.6,0.6V224.2z"/>
		<path class="st28" d="M277.9,219.5c3.8,0,5.8,2,5.8,5.8v4.2c0,0.4-0.2,0.6-0.6,0.6h-4.2c-0.4,0-0.6-0.2-0.6-0.6v-3.1
			c0-1-0.5-1.6-1.6-1.6h-1.9c-1,0-1.6,0.6-1.6,1.6v5.5l9.5,3.1c0.7,0.3,1,0.7,1,1.5v9.2c0,3.8-2,5.8-5.8,5.8h-4.5
			c-3.7,0-5.8-2-5.8-5.8v-4.2c0-0.4,0.2-0.6,0.6-0.6h4.2c0.4,0,0.6,0.2,0.6,0.6v3.1c0,1.1,0.6,1.6,1.6,1.6h1.9c1,0,1.6-0.5,1.6-1.6
			v-5.3l-9.5-3.1c-0.7-0.2-1.1-0.7-1.1-1.5v-9.4c0-3.8,2-5.8,5.8-5.8H277.9z"/>
		<path class="st28" d="M306.6,224.2c0,0.4-0.2,0.7-0.6,0.7h-10v8h7.6c0.4,0,0.6,0.2,0.6,0.7v4c0,0.4-0.2,0.7-0.6,0.7H296v8.1h10
			c0.5,0,0.6,0.2,0.6,0.6v4c0,0.4-0.2,0.6-0.6,0.6h-14.7c-0.4,0-0.6-0.2-0.6-0.6v-30.7c0-0.4,0.2-0.6,0.6-0.6H306
			c0.5,0,0.6,0.2,0.6,0.6V224.2z"/>
		<path class="st28" d="M319.1,246.3h9.5c0.4,0,0.6,0.2,0.6,0.6v4c0,0.4-0.2,0.6-0.6,0.6h-14.3c-0.4,0-0.6-0.2-0.6-0.6v-30.7
			c0-0.4,0.2-0.6,0.6-0.6h4.2c0.4,0,0.6,0.2,0.6,0.6V246.3z"/>
		<path class="st28" d="M349.2,251.5c-0.5,0-0.8-0.2-0.9-0.6l-5-11.9l-1.5,2.8v8.8c0,0.5-0.3,0.8-0.8,0.8h-3.8
			c-0.5,0-0.8-0.3-0.8-0.8v-30.4c0-0.5,0.3-0.8,0.8-0.8h3.8c0.5,0,0.8,0.3,0.8,0.8v12.4l6.2-12.6c0.2-0.4,0.5-0.6,0.9-0.6h4.2
			c0.6,0,0.8,0.4,0.6,1l-6.8,14l7.2,16.2c0.3,0.5,0,0.9-0.6,0.9H349.2z"/>
		<path class="st28" d="M360.8,220.3c0-0.5,0.3-0.8,0.8-0.8h3.6c0.5,0,0.8,0.3,0.8,0.8v3.9c0,0.4-0.1,0.7-0.3,1l-2.2,3.3
			c-0.1,0.2-0.2,0.3-0.5,0.3h-1.8c-0.3,0-0.4-0.2-0.3-0.5l1.6-3.5h-1c-0.5,0-0.8-0.3-0.8-0.8V220.3z"/>
		<path class="st28" d="M389.5,219.5c0.4,0,0.6,0.2,0.6,0.6v30.7c0,0.4-0.2,0.6-0.6,0.6h-4c-0.4,0-0.6-0.2-0.7-0.5l-6.1-17.1h-0.2
			v17c0,0.4-0.2,0.6-0.6,0.6h-4.2c-0.4,0-0.6-0.2-0.6-0.6v-30.7c0-0.4,0.2-0.6,0.6-0.6h4c0.4,0,0.6,0.2,0.7,0.5l6.1,17h0.2v-16.9
			c0-0.4,0.2-0.6,0.6-0.6H389.5z"/>
		<path class="st28" d="M412.2,251.5c-0.4,0-0.6-0.2-0.6-0.6l-1.1-5.8h-7.1l-1.1,5.8c-0.1,0.4-0.3,0.6-0.6,0.6h-4.3
			c-0.4,0-0.6-0.2-0.5-0.7l6.6-30.8c0.1-0.4,0.3-0.6,0.7-0.6h5.6c0.4,0,0.6,0.2,0.7,0.6l6.6,30.8c0.1,0.4-0.1,0.7-0.6,0.7H412.2z
			 M406.9,226.5l-2.6,14h5.1L406.9,226.5z"/>
		<path class="st28" d="M444.9,219.5c0.5,0,0.8,0.3,0.8,0.8v30.4c0,0.5-0.3,0.8-0.8,0.8h-3.7c-0.5,0-0.8-0.3-0.8-0.8v-18h-0.3
			l-4,18.1c-0.1,0.5-0.4,0.7-0.9,0.7h-2c-0.5,0-0.8-0.2-0.9-0.7l-4-18.1h-0.3v18c0,0.5-0.3,0.8-0.8,0.8h-3.7c-0.5,0-0.8-0.3-0.8-0.8
			v-30.4c0-0.5,0.3-0.8,0.8-0.8h5.3c0.5,0,0.8,0.2,0.9,0.7l4.4,19.9l4.4-19.9c0.1-0.5,0.4-0.7,0.9-0.7H444.9z"/>
	</g>
</g>
</svg>
