<?xml version="1.0" encoding="utf-8"?>
<!-- Generator: Adobe Illustrator 23.0.1, SVG Export Plug-In . SVG Version: 6.00 Build 0)  -->
<svg version="1.1" id="Layer_1" xmlns="http://www.w3.org/2000/svg" xmlns:xlink="http://www.w3.org/1999/xlink" x="0px" y="0px"
	 viewBox="0 0 451.2 236.1" style="enable-background:new 0 0 451.2 236.1;" xml:space="preserve">
<style type="text/css">
	.st0{fill:url(#SVGID_1_);}
	.st1{fill:url(#SVGID_2_);}
	.st2{enable-background:new    ;}
	.st3{fill:#92D4D3;}
	.st4{fill:url(#SVGID_3_);}
	.st5{fill:url(#SVGID_4_);}
	.st6{fill:url(#SVGID_5_);}
	.st7{fill:url(#SVGID_6_);}
	.st8{fill:url(#SVGID_7_);}
	.st9{fill:url(#SVGID_8_);}
	.st10{fill:url(#SVGID_9_);}
	.st11{fill:url(#SVGID_10_);}
	.st12{fill:url(#SVGID_11_);}
	.st13{fill:url(#SVGID_12_);}
	.st14{fill:url(#SVGID_13_);}
	.st15{fill:url(#SVGID_14_);}
	.st16{fill:url(#SVGID_15_);}
	.st17{fill:url(#SVGID_16_);}
	.st18{fill:url(#SVGID_17_);}
	.st19{fill:url(#SVGID_18_);}
	.st20{fill:url(#SVGID_19_);}
	.st21{fill:url(#SVGID_20_);}
	.st22{fill:url(#SVGID_21_);}
	.st23{fill:url(#SVGID_22_);}
	.st24{fill:url(#SVGID_23_);}
	.st25{fill:url(#SVGID_24_);}
	.st26{fill:url(#SVGID_25_);}
	.st27{fill:url(#SVGID_26_);}
	.st28{fill:url(#SVGID_27_);}
	.st29{fill:url(#SVGID_28_);}
</style>
<linearGradient id="SVGID_1_" gradientUnits="userSpaceOnUse" x1="82.85" y1="137.5251" x2="82.85" y2="128.7371" gradientTransform="matrix(1 0 0 -1 0 238)">
	<stop  offset="0" style="stop-color:#E0F1E7"/>
	<stop  offset="1" style="stop-color:#B8D5D5"/>
</linearGradient>
<polygon class="st0" points="160.9,104.3 96.2,104.3 92.3,100.5 88.5,104.3 87.4,104.3 83.5,100.5 79.7,104.3 78.6,104.3 
	74.7,100.5 70.9,104.3 4.8,104.3 4.8,105.5 71,105.5 74.7,109.3 78.5,105.5 79.8,105.5 83.5,109.3 87.3,105.5 88.5,105.5 
	92.3,109.3 96.1,105.5 160.9,105.5 "/>
<linearGradient id="SVGID_2_" gradientUnits="userSpaceOnUse" x1="368.35" y1="137.5251" x2="368.35" y2="128.7371" gradientTransform="matrix(1 0 0 -1 0 238)">
	<stop  offset="0" style="stop-color:#E0F1E7"/>
	<stop  offset="1" style="stop-color:#B8D5D5"/>
</linearGradient>
<polygon class="st1" points="446.4,104.3 381.7,104.3 377.8,100.5 374,104.3 372.9,104.3 369.1,100.5 365.2,104.3 364.1,104.3 
	360.3,100.5 356.4,104.3 290.3,104.3 290.3,105.5 356.5,105.5 360.3,109.3 364,105.5 365.3,105.5 369.1,109.3 372.8,105.5 
	374.1,105.5 377.8,109.3 381.6,105.5 446.4,105.5 "/>
<g class="st2">
	<path class="st3" d="M7.8,226h8.6c0.4,0,0.6,0.2,0.6,0.6v3.6c0,0.4-0.2,0.6-0.6,0.6H3.5c-0.4,0-0.6-0.2-0.6-0.6v-27.6
		c0-0.4,0.2-0.6,0.6-0.6h3.7c0.4,0,0.6,0.2,0.6,0.6V226z"/>
	<path class="st3" d="M35.4,230.7c-0.3,0-0.5-0.2-0.6-0.5l-1-5.3h-6.4l-1,5.3c-0.1,0.3-0.3,0.5-0.6,0.5H22c-0.4,0-0.6-0.2-0.5-0.6
		l6-27.7c0.1-0.4,0.3-0.5,0.6-0.5h5c0.3,0,0.5,0.1,0.6,0.5l6,27.7c0.1,0.4-0.1,0.6-0.5,0.6H35.4z M30.6,208.2l-2.3,12.6h4.6
		L30.6,208.2z"/>
	<path class="st3" d="M75.8,201.9c0.5,0,0.7,0.3,0.7,0.7V230c0,0.5-0.3,0.7-0.7,0.7h-3.3c-0.5,0-0.7-0.3-0.7-0.7v-16.2h-0.3
		L68,230.1c-0.1,0.4-0.4,0.6-0.8,0.6h-1.8c-0.4,0-0.7-0.2-0.8-0.6l-3.6-16.3h-0.3V230c0,0.5-0.3,0.7-0.7,0.7h-3.3
		c-0.5,0-0.7-0.3-0.7-0.7v-27.4c0-0.5,0.3-0.7,0.7-0.7h4.8c0.4,0,0.7,0.2,0.8,0.6l4,17.9l4-17.9c0.1-0.4,0.4-0.6,0.8-0.6H75.8z"/>
	<path class="st3" d="M95,230.7c-0.3,0-0.5-0.2-0.6-0.5l-1-5.3H87l-1,5.3c-0.1,0.3-0.3,0.5-0.6,0.5h-3.9c-0.4,0-0.6-0.2-0.5-0.6
		l6-27.7c0.1-0.4,0.3-0.5,0.6-0.5h5c0.3,0,0.5,0.1,0.6,0.5l6,27.7c0.1,0.4-0.1,0.6-0.5,0.6H95z M90.2,208.2l-2.3,12.6h4.6
		L90.2,208.2z"/>
	<path class="st3" d="M103.9,207.1c0-3.4,1.8-5.2,5.2-5.2h4.8c3.3,0,5.2,1.8,5.2,5.2v3.7c0,0.4-0.2,0.6-0.6,0.6h-3.6
		c-0.4,0-0.6-0.2-0.6-0.6v-2.7c0-0.9-0.5-1.4-1.4-1.4h-2.6c-1,0-1.4,0.5-1.4,1.4v16.4c0,1,0.5,1.4,1.4,1.4h2.6
		c0.9,0,1.4-0.5,1.4-1.4v-4.8h-1.9c-0.4,0-0.6-0.2-0.6-0.6v-3.6c0-0.4,0.2-0.6,0.6-0.6h6c0.4,0,0.6,0.2,0.6,0.6v10
		c0,3.4-1.8,5.2-5.2,5.2h-4.8c-3.4,0-5.2-1.8-5.2-5.2V207.1z"/>
	<path class="st3" d="M129,201.9c0.4,0,0.6,0.2,0.6,0.6v27.6c0,0.4-0.2,0.6-0.6,0.6h-3.7c-0.4,0-0.6-0.2-0.6-0.6v-27.6
		c0-0.4,0.2-0.6,0.6-0.6H129z"/>
	<path class="st3" d="M148.8,230.7c-0.3,0-0.5-0.2-0.6-0.5l-1-5.3h-6.4l-1,5.3c-0.1,0.3-0.3,0.5-0.6,0.5h-3.9
		c-0.4,0-0.6-0.2-0.5-0.6l6-27.7c0.1-0.4,0.3-0.5,0.6-0.5h5c0.3,0,0.5,0.1,0.6,0.5l6,27.7c0.1,0.4-0.1,0.6-0.5,0.6H148.8z
		 M144,208.2l-2.3,12.6h4.6L144,208.2z"/>
	<path class="st3" d="M169.4,202.5c0-0.4,0.2-0.6,0.6-0.6h8.6c3.4,0,5.2,1.8,5.2,5.2v18.4c0,3.4-1.8,5.2-5.2,5.2H170
		c-0.4,0-0.6-0.2-0.6-0.6V202.5z M177.7,226c0.9,0,1.4-0.5,1.4-1.4v-16.4c0-1-0.5-1.5-1.4-1.5h-3.3V226H177.7z"/>
	<path class="st3" d="M203.9,206.1c0,0.4-0.1,0.6-0.6,0.6h-9v7.2h6.9c0.4,0,0.6,0.2,0.6,0.6v3.6c0,0.4-0.2,0.6-0.6,0.6h-6.9v7.3h9
		c0.4,0,0.6,0.2,0.6,0.6v3.6c0,0.4-0.1,0.6-0.6,0.6H190c-0.3,0-0.5-0.2-0.5-0.6v-27.6c0-0.4,0.2-0.6,0.5-0.6h13.2
		c0.4,0,0.6,0.2,0.6,0.6V206.1z"/>
	<path class="st3" d="M225.5,226h8.6c0.4,0,0.6,0.2,0.6,0.6v3.6c0,0.4-0.2,0.6-0.6,0.6h-12.9c-0.4,0-0.6-0.2-0.6-0.6v-27.6
		c0-0.4,0.2-0.6,0.6-0.6h3.7c0.4,0,0.6,0.2,0.6,0.6V226z"/>
	<path class="st3" d="M239.2,207.1c0-3.4,1.8-5.2,5.2-5.2h4c3.4,0,5.2,1.8,5.2,5.2v18.4c0,3.4-1.8,5.2-5.2,5.2h-4
		c-3.4,0-5.2-1.8-5.2-5.2V207.1z M247.5,226.1c0.9,0,1.4-0.5,1.4-1.4V208c0-0.9-0.5-1.4-1.4-1.4h-2.1c-0.9,0-1.4,0.5-1.4,1.4v16.6
		c0,1,0.5,1.4,1.4,1.4H247.5z"/>
	<path class="st3" d="M268.4,201.9c3.4,0,5.2,1.8,5.2,5.2v3.8c0,0.4-0.2,0.6-0.6,0.6h-3.7c-0.4,0-0.6-0.2-0.6-0.6v-2.8
		c0-0.9-0.5-1.4-1.4-1.4h-1.7c-0.9,0-1.4,0.5-1.4,1.4v5l8.6,2.8c0.6,0.3,0.9,0.6,0.9,1.3v8.3c0,3.4-1.8,5.2-5.2,5.2h-4
		c-3.3,0-5.2-1.8-5.2-5.2v-3.8c0-0.4,0.2-0.6,0.6-0.6h3.7c0.4,0,0.6,0.2,0.6,0.6v2.8c0,1,0.5,1.4,1.4,1.4h1.7c0.9,0,1.4-0.5,1.4-1.4
		v-4.8l-8.5-2.8c-0.6-0.2-1-0.6-1-1.3v-8.5c0-3.4,1.8-5.2,5.2-5.2H268.4z"/>
	<path class="st3" d="M299.5,201.9c3.4,0,5.2,1.8,5.2,5.2v3.8c0,0.4-0.2,0.6-0.6,0.6h-3.7c-0.4,0-0.6-0.2-0.6-0.6v-2.8
		c0-0.9-0.5-1.4-1.4-1.4h-1.7c-0.9,0-1.4,0.5-1.4,1.4v5l8.6,2.8c0.6,0.3,0.9,0.6,0.9,1.3v8.3c0,3.4-1.8,5.2-5.2,5.2h-4
		c-3.3,0-5.2-1.8-5.2-5.2v-3.8c0-0.4,0.2-0.6,0.6-0.6h3.7c0.4,0,0.6,0.2,0.6,0.6v2.8c0,1,0.5,1.4,1.4,1.4h1.7c0.9,0,1.4-0.5,1.4-1.4
		v-4.8l-8.5-2.8c-0.6-0.2-1-0.6-1-1.3v-8.5c0-3.4,1.8-5.2,5.2-5.2H299.5z"/>
	<path class="st3" d="M324.8,206.1c0,0.4-0.1,0.6-0.6,0.6h-9v7.2h6.9c0.4,0,0.6,0.2,0.6,0.6v3.6c0,0.4-0.2,0.6-0.6,0.6h-6.9v7.3h9
		c0.4,0,0.6,0.2,0.6,0.6v3.6c0,0.4-0.1,0.6-0.6,0.6h-13.2c-0.3,0-0.5-0.2-0.5-0.6v-27.6c0-0.4,0.2-0.6,0.5-0.6h13.2
		c0.4,0,0.6,0.2,0.6,0.6V206.1z"/>
	<path class="st3" d="M335.3,226h8.6c0.4,0,0.6,0.2,0.6,0.6v3.6c0,0.4-0.2,0.6-0.6,0.6H331c-0.4,0-0.6-0.2-0.6-0.6v-27.6
		c0-0.4,0.2-0.6,0.6-0.6h3.7c0.4,0,0.6,0.2,0.6,0.6V226z"/>
	<path class="st3" d="M361.7,230.7c-0.4,0-0.7-0.2-0.8-0.5l-4.5-10.7l-1.3,2.6v8c0,0.5-0.3,0.7-0.7,0.7h-3.5c-0.5,0-0.7-0.3-0.7-0.7
		v-27.4c0-0.5,0.3-0.7,0.7-0.7h3.5c0.5,0,0.7,0.3,0.7,0.7v11.2l5.5-11.3c0.2-0.4,0.4-0.5,0.8-0.5h3.8c0.5,0,0.8,0.4,0.5,0.9
		l-6.1,12.6l6.5,14.5c0.3,0.5,0,0.8-0.5,0.8H361.7z"/>
	<path class="st3" d="M371.4,202.7c0-0.5,0.3-0.7,0.7-0.7h3.3c0.5,0,0.7,0.3,0.7,0.7v3.5c0,0.4-0.1,0.6-0.3,0.9l-1.9,3
		c-0.1,0.2-0.2,0.3-0.4,0.3h-1.6c-0.3,0-0.4-0.2-0.3-0.4l1.4-3.2h-0.9c-0.5,0-0.7-0.3-0.7-0.7V202.7z"/>
	<path class="st3" d="M396.6,201.9c0.4,0,0.6,0.2,0.6,0.6v27.6c0,0.4-0.2,0.6-0.6,0.6H393c-0.3,0-0.5-0.1-0.6-0.5l-5.5-15.4h-0.2
		v15.3c0,0.4-0.2,0.6-0.6,0.6h-3.7c-0.4,0-0.6-0.2-0.6-0.6v-27.6c0-0.4,0.2-0.6,0.6-0.6h3.6c0.3,0,0.5,0.1,0.6,0.5l5.5,15.3h0.2
		v-15.2c0-0.4,0.2-0.6,0.6-0.6H396.6z"/>
	<path class="st3" d="M416.4,230.7c-0.3,0-0.5-0.2-0.6-0.5l-1-5.3h-6.4l-1,5.3c-0.1,0.3-0.3,0.5-0.6,0.5H403c-0.4,0-0.6-0.2-0.5-0.6
		l6-27.7c0.1-0.4,0.3-0.5,0.6-0.5h5c0.3,0,0.5,0.1,0.6,0.5l6,27.7c0.1,0.4-0.1,0.6-0.5,0.6H416.4z M411.6,208.2l-2.3,12.6h4.6
		L411.6,208.2z"/>
	<path class="st3" d="M445.1,201.9c0.5,0,0.7,0.3,0.7,0.7V230c0,0.5-0.3,0.7-0.7,0.7h-3.3c-0.5,0-0.7-0.3-0.7-0.7v-16.2h-0.3
		l-3.6,16.3c-0.1,0.4-0.4,0.6-0.8,0.6h-1.8c-0.4,0-0.7-0.2-0.8-0.6l-3.6-16.3H430V230c0,0.5-0.3,0.7-0.7,0.7H426
		c-0.5,0-0.7-0.3-0.7-0.7v-27.4c0-0.5,0.3-0.7,0.7-0.7h4.8c0.4,0,0.7,0.2,0.8,0.6l4,17.9l4-17.9c0.1-0.4,0.4-0.6,0.8-0.6H445.1z"/>
</g>
<linearGradient id="SVGID_3_" gradientUnits="userSpaceOnUse" x1="231.6" y1="96.3967" x2="231.6" y2="294.0086" gradientTransform="matrix(1 0 0 1 0 -30.8861)">
	<stop  offset="0" style="stop-color:#E0F1E7"/>
	<stop  offset="1" style="stop-color:#B8D5D5"/>
</linearGradient>
<path class="st4" d="M229.8,112.2h-0.2c-2.1,0-2.5-0.5-2.5-3.7v-6l9.4,11.2l0.1,0.1h0.9v-10.6c0-3.3,0.4-3.7,2.5-3.7h0.2v-1h-6.8v1
	h0.2c2,0,2.5,0.3,2.5,3.7v5.5l-8.6-10.1l-0.1-0.1H223v1h0.2c2,0,2.5,0.3,2.5,3.7v5.3c0,3.2-0.3,3.7-2.5,3.7H223v1h6.8V112.2z"/>
<linearGradient id="SVGID_4_" gradientUnits="userSpaceOnUse" x1="214.75" y1="96.3967" x2="214.75" y2="294.0086" gradientTransform="matrix(1 0 0 1 0 -30.8861)">
	<stop  offset="0" style="stop-color:#E0F1E7"/>
	<stop  offset="1" style="stop-color:#B8D5D5"/>
</linearGradient>
<path class="st5" d="M221.2,108.8h-1l-0.2,0.8c-0.4,1.5-0.8,2-3.7,2H216c-2,0-2.5-0.3-2.5-3.7v-1.8h0.1c3.3,0,3.4,0.4,3.4,2.5v0.2h1
	V102h-1v0.2c0,2.1-0.1,2.5-3.4,2.5l0,0V100h2.1c3.1,0,3.3,0.6,3.7,2l0.2,0.8h1l-0.3-4.3h-12v1h0.2c2,0,2.5,0.3,2.5,3.7v5.3
	c0,3.2-0.3,3.7-2.5,3.7h-0.2v1H221L221.2,108.8z"/>
<linearGradient id="SVGID_5_" gradientUnits="userSpaceOnUse" x1="83.75" y1="132.0309" x2="83.75" y2="140.8043" gradientTransform="matrix(1 0 0 1 0 -30.8861)">
	<stop  offset="0" style="stop-color:#E0F1E7"/>
	<stop  offset="1" style="stop-color:#B8D5D5"/>
</linearGradient>
<polygon class="st6" points="161.7,105 97.1,105 93.2,101.2 89.4,105 88.3,105 84.5,101.2 80.6,105 79.5,105 75.7,101.2 71.8,105 
	5.8,105 5.8,106.2 71.9,106.2 75.7,109.9 79.5,106.2 80.7,106.2 84.5,109.9 88.2,106.2 89.5,106.2 93.2,109.9 97,106.2 161.7,106.2 
	"/>
<linearGradient id="SVGID_6_" gradientUnits="userSpaceOnUse" x1="368.95" y1="132.0309" x2="368.95" y2="140.8043" gradientTransform="matrix(1 0 0 1 0 -30.8861)">
	<stop  offset="0" style="stop-color:#E0F1E7"/>
	<stop  offset="1" style="stop-color:#B8D5D5"/>
</linearGradient>
<polygon class="st7" points="446.9,105 382.2,105 378.4,101.2 374.5,105 373.4,105 369.6,101.2 365.8,105 364.7,105 360.8,101.2 
	357,105 291,105 291,106.2 357,106.2 360.8,109.9 364.6,106.2 365.8,106.2 369.6,109.9 373.4,106.2 374.6,106.2 378.4,109.9 
	382.2,106.2 446.9,106.2 "/>
<g>
	
		<linearGradient id="SVGID_7_" gradientUnits="userSpaceOnUse" x1="5.0624" y1="69.7861" x2="43.9624" y2="69.7861" gradientTransform="matrix(1 0 0 1 0 -30.8861)">
		<stop  offset="0" style="stop-color:#E0F1E7"/>
		<stop  offset="1" style="stop-color:#B8D5D5"/>
	</linearGradient>
	<path class="st8" d="M42,0c1.1,0,1.9,0.9,1.9,1.9v61.9c0,9.2-4.9,14-14,14H19c-9.2,0-14-4.9-14-14V2c0-1.1,0.9-1.9,1.9-1.9h9.3
		c1.1,0,1.9,0.9,1.9,1.9v59.1c0,2.6,1.4,3.9,3.9,3.9h5c2.5,0,3.9-1.3,3.9-3.9V2c0-1.1,0.9-1.9,1.9-1.9L42,0L42,0z"/>
	
		<linearGradient id="SVGID_8_" gradientUnits="userSpaceOnUse" x1="53.7" y1="74.6361" x2="97.0705" y2="74.6361" gradientTransform="matrix(1 0 0 1 0 -30.8861)">
		<stop  offset="0" style="stop-color:#E0F1E7"/>
		<stop  offset="1" style="stop-color:#B8D5D5"/>
	</linearGradient>
	<path class="st9" d="M85,77.8c-1.2,0-1.8-0.5-2.2-1.5l-12.2-24L67,59.2v16.7c0,1.3-0.7,1.9-1.9,1.9h-9.4c-1.3,0-1.9-0.7-1.9-1.9
		V11.7c0-1.3,0.7-1.9,1.9-1.9H65c1.3,0,1.9,0.7,1.9,1.9V37l15-25.8c0.5-0.9,1.2-1.5,2.2-1.5h10.2c1.5,0,2.1,1.1,1.4,2.4l-16.6,29
		l17.6,34.4c0.7,1.3,0.1,2.2-1.5,2.2H85V77.8z"/>
	
		<linearGradient id="SVGID_9_" gradientUnits="userSpaceOnUse" x1="101.9843" y1="74.6861" x2="151.2294" y2="74.6861" gradientTransform="matrix(1 0 0 1 0 -30.8861)">
		<stop  offset="0" style="stop-color:#E0F1E7"/>
		<stop  offset="1" style="stop-color:#B8D5D5"/>
	</linearGradient>
	<path class="st10" d="M149.4,9.8c1.5,0,2.1,1,1.5,2.2l-17.8,40.3v23.6c0,1.3-0.7,1.9-1.9,1.9h-9.3c-1.3,0-1.9-0.7-1.9-1.9V52.3
		L102.2,12c-0.6-1.3,0.1-2.2,1.5-2.2h9.7c1.2,0,1.9,0.6,2.2,1.5l10.9,25l10.9-25c0.4-1,1.1-1.5,2.2-1.5L149.4,9.8L149.4,9.8z"/>
	
		<linearGradient id="SVGID_10_" gradientUnits="userSpaceOnUse" x1="191.998" y1="77.1361" x2="214.948" y2="77.1361" gradientTransform="matrix(1 0 0 1 0 -30.8861)">
		<stop  offset="0" style="stop-color:#E0F1E7"/>
		<stop  offset="1" style="stop-color:#B8D5D5"/>
	</linearGradient>
	<path class="st11" d="M214.1,30.4c0.7,0,1,0.4,0.7,1l-8.3,18.8v11c0,0.6-0.3,0.9-0.9,0.9h-4.3c-0.6,0-0.9-0.3-0.9-0.9v-11
		l-8.3-18.8c-0.3-0.6,0.1-1,0.7-1h4.6c0.5,0,0.9,0.3,1,0.7l5.1,11.6l5.1-11.6c0.2-0.4,0.5-0.7,1-0.7
		C209.6,30.4,214.1,30.4,214.1,30.4z"/>
	
		<linearGradient id="SVGID_11_" gradientUnits="userSpaceOnUse" x1="263.9" y1="69.7861" x2="301.8344" y2="69.7861" gradientTransform="matrix(1 0 0 1 0 -30.8861)">
		<stop  offset="0" style="stop-color:#E0F1E7"/>
		<stop  offset="1" style="stop-color:#B8D5D5"/>
	</linearGradient>
	<path class="st12" d="M277.1,65h23.1c1.1,0,1.5,0.6,1.5,1.5v9.7c0,1.1-0.5,1.5-1.5,1.5h-34.8c-1,0-1.5-0.5-1.5-1.5V1.6
		c0-1,0.6-1.5,1.5-1.5h10.1c1.1,0,1.5,0.6,1.5,1.5L277.1,65L277.1,65z"/>
	
		<linearGradient id="SVGID_12_" gradientUnits="userSpaceOnUse" x1="309.4" y1="74.6361" x2="348.3" y2="74.6361" gradientTransform="matrix(1 0 0 1 0 -30.8861)">
		<stop  offset="0" style="stop-color:#E0F1E7"/>
		<stop  offset="1" style="stop-color:#B8D5D5"/>
	</linearGradient>
	<path class="st13" d="M309.4,23.7c0-9.2,4.9-14,14-14h10.9c9.2,0,14,4.9,14,14v40.1c0,9.2-4.9,14-14,14h-10.9c-9.2,0-14-4.9-14-14
		V23.7z M332.1,65.3c2.5,0,3.9-1.3,3.9-3.9V26.2c0-2.5-1.4-3.9-3.9-3.9h-6.3c-2.5,0-3.9,1.4-3.9,3.9v35.2c0,2.6,1.4,3.9,3.9,3.9
		H332.1z"/>
	
		<linearGradient id="SVGID_13_" gradientUnits="userSpaceOnUse" x1="356.3" y1="74.6361" x2="390.3435" y2="74.6361" gradientTransform="matrix(1 0 0 1 0 -30.8861)">
		<stop  offset="0" style="stop-color:#E0F1E7"/>
		<stop  offset="1" style="stop-color:#B8D5D5"/>
	</linearGradient>
	<path class="st14" d="M369.5,65h19.2c1.1,0,1.5,0.6,1.5,1.5v9.7c0,1.1-0.5,1.5-1.5,1.5h-30.9c-1,0-1.5-0.5-1.5-1.5V11.3
		c0-1,0.6-1.5,1.5-1.5h10.1c1.1,0,1.5,0.6,1.5,1.5L369.5,65L369.5,65z"/>
	
		<linearGradient id="SVGID_14_" gradientUnits="userSpaceOnUse" x1="396.6505" y1="74.6361" x2="445.9366" y2="74.6361" gradientTransform="matrix(1 0 0 1 0 -30.8861)">
		<stop  offset="0" style="stop-color:#E0F1E7"/>
		<stop  offset="1" style="stop-color:#B8D5D5"/>
	</linearGradient>
	<path class="st15" d="M435,77.8c-0.9,0-1.4-0.5-1.5-1.4l-3.1-12.3H412l-3,12.3c-0.2,0.9-0.7,1.4-1.5,1.4H398
		c-1.1,0-1.5-0.6-1.3-1.6l16.1-65.1c0.2-1,0.8-1.4,1.6-1.4H428c0.9,0,1.5,0.4,1.6,1.4l16.1,65.1c0.3,1.1-0.2,1.6-1.4,1.6H435z
		 M421.2,26.5l-6.1,26.4h12.3L421.2,26.5z"/>
</g>
<g>
	
		<linearGradient id="SVGID_15_" gradientUnits="userSpaceOnUse" x1="5.0624" y1="185.1361" x2="31.6019" y2="185.1361" gradientTransform="matrix(1 0 0 1 0 -30.8861)">
		<stop  offset="0" style="stop-color:#E0F1E7"/>
		<stop  offset="1" style="stop-color:#B8D5D5"/>
	</linearGradient>
	<path class="st16" d="M31.6,147.3h-1.5c-0.1-0.5-0.4-1.2-0.7-1.8c-0.3-0.7-0.7-1.4-1.2-2c-0.4-0.7-0.9-1.2-1.4-1.7s-1-0.8-1.5-0.8
		c-0.4-0.1-1-0.1-1.7-0.1c-0.7-0.1-1.3-0.1-1.9-0.1h-1.3v24.3c0,0.5,0.1,0.9,0.3,1.3c0.2,0.4,0.5,0.7,1,0.9c0.3,0.1,0.8,0.2,1.6,0.4
		c0.8,0.2,1.5,0.3,1.9,0.3v1.5H11.1V168c0.4-0.1,1-0.1,1.8-0.2c0.8-0.1,1.4-0.2,1.7-0.3c0.5-0.2,0.8-0.4,1-0.8
		c0.2-0.3,0.3-0.8,0.3-1.4v-24.6h-1.3c-0.4,0-1,0-1.6,0.1c-0.7,0-1.3,0.1-1.9,0.2c-0.5,0.1-1,0.3-1.5,0.8s-1,1.1-1.4,1.7
		c-0.4,0.7-0.8,1.3-1.2,2c-0.3,0.7-0.5,1.3-0.7,1.8H5.1V139h26.5V147.3z"/>
	
		<linearGradient id="SVGID_16_" gradientUnits="userSpaceOnUse" x1="35.2758" y1="185.1861" x2="48.9843" y2="185.1861" gradientTransform="matrix(1 0 0 1 0 -30.8861)">
		<stop  offset="0" style="stop-color:#E0F1E7"/>
		<stop  offset="1" style="stop-color:#B8D5D5"/>
	</linearGradient>
	<path class="st17" d="M49,169.5H35.3V168c0.4-0.1,0.9-0.1,1.6-0.1c0.7-0.1,1.3-0.2,1.5-0.3c0.5-0.2,0.8-0.4,1-0.8
		c0.2-0.3,0.3-0.8,0.3-1.3v-22c0-0.5-0.1-0.9-0.2-1.3c-0.2-0.3-0.5-0.6-1.1-0.8c-0.4-0.2-1-0.3-1.6-0.5c-0.7-0.2-1.2-0.2-1.6-0.3
		v-1.5H49v1.5c-0.4,0-1,0.1-1.6,0.2c-0.6,0.1-1.2,0.2-1.6,0.3c-0.5,0.2-0.9,0.4-1.1,0.8c-0.2,0.4-0.3,0.8-0.3,1.3v22
		c0,0.5,0.1,0.9,0.3,1.3c0.2,0.4,0.5,0.7,1,0.9c0.3,0.1,0.8,0.2,1.5,0.4c0.7,0.1,1.3,0.2,1.7,0.2L49,169.5L49,169.5z"/>
	
		<linearGradient id="SVGID_17_" gradientUnits="userSpaceOnUse" x1="52" y1="185.1361" x2="77.8268" y2="185.1361" gradientTransform="matrix(1 0 0 1 0 -30.8861)">
		<stop  offset="0" style="stop-color:#E0F1E7"/>
		<stop  offset="1" style="stop-color:#B8D5D5"/>
	</linearGradient>
	<path class="st18" d="M77.8,160.6l-0.6,8.9H52V168c0.4-0.1,1-0.1,1.7-0.2c0.7-0.1,1.2-0.2,1.4-0.3c0.4-0.2,0.8-0.5,0.9-0.8
		c0.2-0.3,0.3-0.8,0.3-1.3v-21.9c0-0.5-0.1-0.9-0.2-1.3c-0.2-0.4-0.5-0.7-1-0.9c-0.4-0.2-0.9-0.3-1.5-0.5c-0.7-0.2-1.2-0.2-1.5-0.3
		V139h23.5v7.3H74c-0.3-1.1-0.9-2.2-1.9-3.5c-0.9-1.2-1.9-1.9-2.7-2c-0.4-0.1-1-0.1-1.6-0.1c-0.6-0.1-1.3-0.1-2.1-0.1h-4.8v12.1h3.5
		c1.1,0,1.9-0.1,2.4-0.3s0.9-0.5,1.3-1c0.3-0.4,0.6-1,0.8-1.6c0.2-0.7,0.4-1.4,0.4-2H71v11.9h-1.6c-0.1-0.7-0.2-1.4-0.4-2.2
		c-0.3-0.8-0.5-1.3-0.8-1.6c-0.4-0.5-0.9-0.9-1.5-1.1c-0.5-0.2-1.3-0.3-2.2-0.3H61v9.1c0,0.9,0.1,1.6,0.2,2.1
		c0.1,0.5,0.4,0.9,0.8,1.2c0.4,0.3,0.9,0.4,1.5,0.5c0.7,0.1,1.5,0.1,2.7,0.1c0.5,0,1.1,0,1.9,0s1.4-0.1,2-0.1
		c0.5-0.1,1.1-0.2,1.7-0.3c0.6-0.2,1-0.3,1.2-0.6c0.7-0.7,1.4-1.7,2.1-3.1c0.7-1.4,1.2-2.4,1.4-3.1H78v0.3H77.8z"/>
	
		<linearGradient id="SVGID_18_" gradientUnits="userSpaceOnUse" x1="79.8395" y1="185.2361" x2="109.5046" y2="185.2361" gradientTransform="matrix(1 0 0 1 0 -30.8861)">
		<stop  offset="0" style="stop-color:#E0F1E7"/>
		<stop  offset="1" style="stop-color:#B8D5D5"/>
	</linearGradient>
	<path class="st19" d="M109.5,169.5h-8.2c-1.8-2.9-3.5-5.3-4.9-7.4c-1.5-2.1-3.1-4.2-4.8-6.4h-3.1v9.7c0,0.5,0.1,0.9,0.2,1.3
		c0.2,0.4,0.5,0.7,1,0.9c0.3,0.1,0.7,0.2,1.4,0.3c0.7,0.1,1.2,0.1,1.6,0.2v1.5H79.8V168c0.3-0.1,0.8-0.1,1.5-0.2
		c0.7-0.1,1.1-0.2,1.4-0.3c0.4-0.2,0.7-0.4,0.9-0.8c0.2-0.4,0.3-0.8,0.3-1.4v-22c0-0.5-0.1-0.9-0.2-1.3s-0.5-0.7-1-0.9
		c-0.4-0.1-0.8-0.2-1.4-0.3c-0.5-0.1-1-0.2-1.5-0.2v-1.5h14c1.3,0,2.5,0.1,3.6,0.4c1.2,0.3,2.1,0.7,3.1,1.3c0.9,0.5,1.6,1.3,2.1,2.2
		s0.8,2,0.8,3.3c0,1.2-0.2,2.2-0.5,3.1c-0.4,0.9-0.9,1.7-1.6,2.4c-0.7,0.6-1.4,1.2-2.3,1.6c-0.9,0.4-1.9,0.8-3,1.2
		c1.5,2,2.7,3.7,3.7,5s2.2,3,3.7,4.9c0.6,0.9,1.2,1.5,1.7,1.9s1,0.7,1.5,1c0.4,0.2,0.8,0.3,1.4,0.4c0.5,0.1,1,0.2,1.4,0.2
		L109.5,169.5L109.5,169.5z M98.2,146.8c0-1.9-0.5-3.3-1.6-4.4c-1-1.1-2.6-1.6-4.5-1.6h-3.6v13.1h2.8c2,0,3.6-0.7,4.9-1.9
		C97.5,150.7,98.2,149,98.2,146.8z"/>
	
		<linearGradient id="SVGID_19_" gradientUnits="userSpaceOnUse" x1="111.7541" y1="185.2361" x2="141.4192" y2="185.2361" gradientTransform="matrix(1 0 0 1 0 -30.8861)">
		<stop  offset="0" style="stop-color:#E0F1E7"/>
		<stop  offset="1" style="stop-color:#B8D5D5"/>
	</linearGradient>
	<path class="st20" d="M141.4,169.5h-8.2c-1.8-2.9-3.5-5.3-4.9-7.4c-1.5-2.1-3.1-4.2-4.8-6.4h-3.1v9.7c0,0.5,0.1,0.9,0.2,1.3
		c0.2,0.4,0.5,0.7,1,0.9c0.3,0.1,0.7,0.2,1.4,0.3c0.7,0.1,1.2,0.1,1.6,0.2v1.5h-12.9V168c0.3-0.1,0.8-0.1,1.5-0.2
		c0.7-0.1,1.1-0.2,1.4-0.3c0.4-0.2,0.7-0.4,0.9-0.8c0.2-0.4,0.3-0.8,0.3-1.4v-22c0-0.5-0.1-0.9-0.2-1.3c-0.2-0.4-0.5-0.7-1-0.9
		c-0.4-0.1-0.8-0.2-1.4-0.3s-1-0.2-1.5-0.2v-1.5h14.1c1.3,0,2.5,0.1,3.6,0.4c1.2,0.3,2.1,0.7,3.1,1.3c0.9,0.5,1.6,1.3,2.1,2.2
		s0.8,2,0.8,3.3c0,1.2-0.2,2.2-0.5,3.1c-0.4,0.9-0.9,1.7-1.6,2.4c-0.7,0.6-1.4,1.2-2.3,1.6c-0.9,0.4-1.9,0.8-3,1.2
		c1.5,2,2.7,3.7,3.7,5s2.2,3,3.7,4.9c0.6,0.9,1.2,1.5,1.7,1.9s1,0.7,1.5,1c0.4,0.2,0.8,0.3,1.4,0.4c0.5,0.1,1,0.2,1.4,0.2V169.5
		L141.4,169.5z M130.1,146.8c0-1.9-0.5-3.3-1.6-4.4c-1-1.1-2.6-1.6-4.5-1.6h-3.6v13.1h2.8c2,0,3.6-0.7,4.9-1.9
		S130.1,149,130.1,146.8z"/>
	
		<linearGradient id="SVGID_20_" gradientUnits="userSpaceOnUse" x1="144" y1="184.9861" x2="175.3539" y2="184.9861" gradientTransform="matrix(1 0 0 1 0 -30.8861)">
		<stop  offset="0" style="stop-color:#E0F1E7"/>
		<stop  offset="1" style="stop-color:#B8D5D5"/>
	</linearGradient>
	<path class="st21" d="M175.3,169.5h-12.7V168c1.1-0.1,2-0.2,2.8-0.4c0.7-0.2,1.1-0.5,1.1-0.8c0-0.1,0-0.3-0.1-0.5s-0.1-0.3-0.1-0.5
		l-2.5-6.8h-10.7c-0.4,1-0.7,1.9-1,2.6s-0.5,1.4-0.7,2.1c-0.2,0.6-0.3,1.1-0.4,1.5c-0.1,0.4-0.1,0.7-0.1,0.9c0,0.5,0.4,1,1.4,1.3
		c0.9,0.3,1.9,0.5,3.1,0.5v1.5H144V168c0.4-0.1,0.8-0.1,1.4-0.2c0.5-0.1,1-0.3,1.4-0.5c0.5-0.4,1-0.8,1.3-1.2s0.6-1,0.9-1.8
		c1.5-3.8,3.2-8.1,5-12.9c1.9-4.8,3.5-9,4.9-12.7h1.7l10.1,26.3c0.2,0.5,0.4,1,0.7,1.4c0.3,0.3,0.7,0.7,1.2,1
		c0.3,0.2,0.8,0.4,1.3,0.5s1,0.2,1.3,0.2L175.3,169.5L175.3,169.5z M163.1,157l-4.6-11.8l-4.6,11.8H163.1z"/>
	
		<linearGradient id="SVGID_21_" gradientUnits="userSpaceOnUse" x1="195.7081" y1="185.1361" x2="224.939" y2="185.1361" gradientTransform="matrix(1 0 0 1 0 -30.8861)">
		<stop  offset="0" style="stop-color:#E0F1E7"/>
		<stop  offset="1" style="stop-color:#B8D5D5"/>
	</linearGradient>
	<path class="st22" d="M224.9,154.5c0,2.6-0.5,4.8-1.5,6.7s-2.2,3.5-3.8,4.7s-3.3,2.1-5.3,2.7c-2,0.6-4,0.9-6.1,0.9h-12.6V168
		c0.4,0,0.9-0.1,1.6-0.1c0.7-0.1,1.1-0.2,1.3-0.3c0.4-0.2,0.7-0.4,0.9-0.8c0.2-0.4,0.3-0.8,0.3-1.3v-21.9c0-0.5-0.1-0.9-0.3-1.3
		c-0.2-0.4-0.5-0.7-1-0.9c-0.4-0.2-0.9-0.4-1.4-0.5s-0.9-0.2-1.3-0.2V139H209c1.8,0,3.6,0.3,5.4,0.8c1.8,0.5,3.3,1.3,4.6,2.3
		c1.8,1.3,3.2,3,4.2,5C224.5,149.3,224.9,151.7,224.9,154.5z M219.7,154.5c0-2-0.3-3.9-0.8-5.5s-1.3-3.1-2.4-4.3
		c-1-1.2-2.2-2.1-3.6-2.7s-3-1-4.8-1c-0.6,0-1.3,0-2,0.1c-0.7,0-1.3,0.1-1.6,0.1v23.4c0,1.3,0.4,2.2,1.2,2.7s1.9,0.8,3.5,0.8
		c1.8,0,3.4-0.3,4.8-1s2.5-1.5,3.3-2.7c0.9-1.2,1.5-2.6,1.9-4.2C219.5,158.4,219.7,156.5,219.7,154.5z"/>
	
		<linearGradient id="SVGID_22_" gradientUnits="userSpaceOnUse" x1="224.5967" y1="185.1361" x2="250.4396" y2="185.1361" gradientTransform="matrix(1 0 0 1 0 -30.8861)">
		<stop  offset="0" style="stop-color:#E0F1E7"/>
		<stop  offset="1" style="stop-color:#B8D5D5"/>
	</linearGradient>
	<path class="st23" d="M250.4,160.6l-0.6,8.9h-25.3V168c0.4-0.1,1-0.1,1.7-0.2c0.7-0.1,1.2-0.2,1.4-0.3c0.4-0.2,0.8-0.5,0.9-0.8
		c0.2-0.3,0.3-0.8,0.3-1.3v-21.9c0-0.5-0.1-0.9-0.2-1.3c-0.2-0.4-0.5-0.7-1-0.9c-0.4-0.2-0.9-0.3-1.5-0.5c-0.7-0.2-1.2-0.2-1.5-0.3
		V139h23.5v7.3h-1.6c-0.3-1.1-0.9-2.2-1.9-3.5c-0.9-1.2-1.9-1.9-2.7-2c-0.4-0.1-1-0.1-1.6-0.1c-0.6-0.1-1.3-0.1-2.1-0.1h-4.8v12.1
		h3.5c1.1,0,1.9-0.1,2.4-0.3s0.9-0.5,1.3-1c0.3-0.4,0.6-1,0.8-1.6c0.2-0.7,0.4-1.4,0.4-2h1.6v11.9h-1.6c-0.1-0.7-0.2-1.4-0.4-2.2
		c-0.3-0.8-0.5-1.3-0.8-1.6c-0.4-0.5-0.9-0.9-1.5-1.1c-0.5-0.2-1.3-0.3-2.2-0.3h-3.5v9.1c0,0.9,0.1,1.6,0.2,2.1
		c0.1,0.5,0.4,0.9,0.8,1.2c0.4,0.3,0.9,0.4,1.5,0.5c0.7,0.1,1.5,0.1,2.7,0.1c0.5,0,1.1,0,1.9,0s1.4-0.1,2-0.1
		c0.5-0.1,1.1-0.2,1.7-0.3c0.6-0.2,1-0.3,1.2-0.6c0.7-0.7,1.4-1.7,2.1-3.1c0.7-1.4,1.2-2.4,1.4-3.1h1.5L250.4,160.6L250.4,160.6z"/>
	
		<linearGradient id="SVGID_23_" gradientUnits="userSpaceOnUse" x1="252.4524" y1="185.0861" x2="276.8794" y2="185.0861" gradientTransform="matrix(1 0 0 1 0 -30.8861)">
		<stop  offset="0" style="stop-color:#E0F1E7"/>
		<stop  offset="1" style="stop-color:#B8D5D5"/>
	</linearGradient>
	<path class="st24" d="M276.9,160.4l-0.7,9h-23.7V168c0.3-0.1,0.8-0.1,1.5-0.2c0.7-0.1,1.1-0.2,1.4-0.3c0.4-0.2,0.7-0.4,0.9-0.8
		c0.2-0.4,0.3-0.8,0.3-1.4v-21.8c0-0.5-0.1-0.9-0.3-1.3c-0.2-0.4-0.5-0.7-1-0.9c-0.3-0.2-0.8-0.3-1.4-0.5c-0.6-0.2-1.1-0.3-1.5-0.3
		V139h12.8v1.5c-0.4,0-0.9,0.1-1.5,0.2c-0.6,0.1-1.1,0.2-1.4,0.3c-0.5,0.2-0.8,0.4-1,0.9c-0.2,0.4-0.3,0.9-0.3,1.3v20.4
		c0,0.9,0.1,1.7,0.2,2.2s0.3,0.9,0.7,1.2c0.3,0.3,0.8,0.4,1.5,0.5s1.5,0.1,2.7,0.1c0.5,0,1.1,0,1.6-0.1s1.1-0.1,1.6-0.2
		c0.5-0.1,1-0.2,1.4-0.3c0.4-0.2,0.7-0.3,0.9-0.5c0.6-0.7,1.3-1.6,2-3c0.8-1.3,1.3-2.4,1.6-3.2L276.9,160.4L276.9,160.4z"/>
	
		<linearGradient id="SVGID_24_" gradientUnits="userSpaceOnUse" x1="295.3287" y1="185.1861" x2="319.1986" y2="185.1861" gradientTransform="matrix(1 0 0 1 0 -30.8861)">
		<stop  offset="0" style="stop-color:#E0F1E7"/>
		<stop  offset="1" style="stop-color:#B8D5D5"/>
	</linearGradient>
	<path class="st25" d="M319.2,146.7h-1.6c-0.3-1.2-0.9-2.4-1.9-3.6s-1.9-2-2.7-2.1c-0.4-0.1-1-0.1-1.6-0.1c-0.6-0.1-1.3-0.1-2.1-0.1
		h-5.1V153h3.5c1,0,1.9-0.1,2.5-0.3s1.1-0.5,1.5-1c0.3-0.3,0.5-0.8,0.8-1.5c0.2-0.7,0.4-1.4,0.4-2.1h1.6v12h-1.6
		c-0.1-0.6-0.2-1.4-0.4-2.1c-0.3-0.8-0.5-1.4-0.8-1.8c-0.4-0.5-1-0.9-1.6-1.1c-0.7-0.2-1.4-0.3-2.4-0.3h-3.5v10.5
		c0,0.5,0.1,0.9,0.3,1.3s0.5,0.7,1,0.9c0.2,0.1,0.7,0.2,1.4,0.4c0.7,0.2,1.3,0.2,1.6,0.2v1.5h-13.2v-1.5c0.4-0.1,1-0.1,1.7-0.2
		c0.7-0.1,1.2-0.2,1.4-0.2c0.4-0.2,0.7-0.4,0.9-0.8c0.2-0.4,0.3-0.8,0.3-1.3v-21.9c0-0.5-0.1-0.9-0.2-1.3c-0.2-0.4-0.5-0.7-1-0.9
		c-0.4-0.2-0.9-0.3-1.5-0.5c-0.7-0.2-1.2-0.2-1.5-0.3V139H319v7.7H319.2z"/>
	
		<linearGradient id="SVGID_25_" gradientUnits="userSpaceOnUse" x1="322.5" y1="185.5361" x2="353.8" y2="185.5361" gradientTransform="matrix(1 0 0 1 0 -30.8861)">
		<stop  offset="0" style="stop-color:#E0F1E7"/>
		<stop  offset="1" style="stop-color:#B8D5D5"/>
	</linearGradient>
	<path class="st26" d="M353.8,140.6c-0.4,0-1,0.1-1.8,0.3s-1.4,0.4-1.9,0.7s-0.8,1-1,2s-0.3,2.3-0.3,3.8v13.2c0,1.7-0.3,3.1-1,4.4
		c-0.7,1.3-1.6,2.2-2.7,3.1c-1.2,0.8-2.3,1.3-3.6,1.6c-1.3,0.3-2.5,0.5-3.6,0.5c-1.8,0-3.5-0.2-4.9-0.7s-2.6-1.2-3.6-1.9
		c-0.9-0.8-1.7-1.8-2.2-2.8s-0.7-2.1-0.7-3.3v-18c0-0.5-0.1-0.9-0.2-1.3c-0.2-0.3-0.5-0.7-1-0.9c-0.4-0.2-0.8-0.4-1.4-0.5
		s-1-0.2-1.4-0.2v-1.5h12.7v1.5c-0.4,0-0.9,0.1-1.5,0.2c-0.6,0.1-1,0.2-1.3,0.3c-0.5,0.2-0.8,0.4-1,0.9c-0.2,0.4-0.2,0.8-0.2,1.3
		v16.8c0,0.8,0.1,1.6,0.3,2.6c0.2,0.9,0.5,1.7,1,2.5s1.3,1.4,2.2,1.9c0.9,0.5,2.2,0.8,3.9,0.8c1.6,0,2.9-0.3,3.9-0.8s1.9-1.2,2.5-2
		s1-1.6,1.3-2.4c0.2-0.8,0.4-1.7,0.4-2.6v-12.4c0-1.6-0.1-2.9-0.3-3.9c-0.2-1-0.5-1.6-1-2s-1.2-0.7-2-0.8c-0.9-0.2-1.5-0.3-2-0.3
		v-1.5h12.4L353.8,140.6L353.8,140.6L353.8,140.6z"/>
	
		<linearGradient id="SVGID_26_" gradientUnits="userSpaceOnUse" x1="356.5" y1="185.1361" x2="382.343" y2="185.1361" gradientTransform="matrix(1 0 0 1 0 -30.8861)">
		<stop  offset="0" style="stop-color:#E0F1E7"/>
		<stop  offset="1" style="stop-color:#B8D5D5"/>
	</linearGradient>
	<path class="st27" d="M382.4,160.6l-0.6,8.9h-25.3V168c0.4-0.1,1-0.1,1.7-0.2c0.7-0.1,1.2-0.2,1.4-0.3c0.4-0.2,0.8-0.5,0.9-0.8
		s0.3-0.8,0.3-1.3v-21.9c0-0.5-0.1-0.9-0.2-1.3s-0.5-0.7-1-0.9c-0.4-0.2-0.9-0.3-1.5-0.5c-0.7-0.2-1.2-0.2-1.5-0.3V139H380v7.3h-1.6
		c-0.3-1.1-0.9-2.2-1.9-3.5c-0.9-1.2-1.9-1.9-2.7-2c-0.4-0.1-1-0.1-1.6-0.1c-0.6-0.1-1.3-0.1-2.1-0.1h-4.8v12.1h3.5
		c1.1,0,1.9-0.1,2.4-0.3s0.9-0.5,1.3-1c0.3-0.4,0.6-1,0.8-1.6c0.2-0.7,0.4-1.4,0.4-2h1.6v11.9h-1.6c-0.1-0.7-0.2-1.4-0.4-2.2
		c-0.3-0.8-0.5-1.3-0.8-1.6c-0.4-0.5-0.9-0.9-1.5-1.1c-0.5-0.2-1.3-0.3-2.2-0.3h-3.5v9.1c0,0.9,0.1,1.6,0.2,2.1s0.4,0.9,0.8,1.2
		s0.9,0.4,1.5,0.5c0.7,0.1,1.5,0.1,2.7,0.1c0.5,0,1.1,0,1.9,0s1.4-0.1,2-0.1c0.5-0.1,1.1-0.2,1.7-0.3c0.6-0.2,1-0.3,1.2-0.6
		c0.7-0.7,1.4-1.7,2.1-3.1c0.7-1.4,1.2-2.4,1.4-3.1h1.5v0.3H382.4z"/>
	
		<linearGradient id="SVGID_27_" gradientUnits="userSpaceOnUse" x1="385.006" y1="185.3861" x2="414.906" y2="185.3861" gradientTransform="matrix(1 0 0 1 0 -30.8861)">
		<stop  offset="0" style="stop-color:#E0F1E7"/>
		<stop  offset="1" style="stop-color:#B8D5D5"/>
	</linearGradient>
	<path class="st28" d="M414.9,157.4c-0.3,0.1-0.8,0.1-1.4,0.2c-0.6,0.1-1,0.2-1.4,0.4s-0.7,0.5-0.9,0.9c-0.2,0.4-0.3,0.9-0.3,1.4
		v2.4c0,1.7,0,2.9,0.1,3.5c0,0.6,0.1,1.1,0.1,1.5c-1.9,0.9-3.8,1.5-5.7,2c-1.9,0.4-3.7,0.7-5.5,0.7c-1.9,0-3.8-0.4-5.6-1.1
		c-1.8-0.7-3.4-1.8-4.7-3.1c-1.4-1.4-2.4-3-3.2-4.9s-1.2-4.1-1.2-6.5c0-2.3,0.4-4.4,1.2-6.5c0.8-2,1.9-3.7,3.2-5.2
		c1.4-1.4,3-2.5,4.9-3.3s3.9-1.2,6-1.2c1.7,0,3.2,0.2,4.5,0.6c1.3,0.4,2.4,0.9,3.3,1.5l0.9-1.5h1.7l0.2,10.6h-1.8
		c-0.3-1.2-0.7-2.3-1.1-3.5s-1-2.1-1.7-3.1c-0.7-0.9-1.5-1.6-2.6-2.1c-1-0.5-2.2-0.8-3.6-0.8c-1.5,0-2.9,0.3-4.1,0.9
		c-1.2,0.6-2.2,1.5-3.1,2.8c-0.9,1.2-1.5,2.7-2,4.4c-0.5,1.8-0.7,3.7-0.7,5.9c0,1.9,0.2,3.7,0.7,5.5c0.4,1.7,1.2,3.2,2,4.4
		c0.9,1.3,2,2.2,3.3,3c1.3,0.7,2.9,1.1,4.6,1.1c1.3,0,2.4-0.2,3.5-0.6c1-0.4,1.8-0.8,2.2-1.2c0.1-0.8,0.2-1.5,0.2-2.2s0-1.4,0-1.9
		v-1.7c0-0.6-0.1-1.2-0.3-1.6c-0.2-0.4-0.5-0.8-1-1s-1.1-0.4-1.9-0.5s-1.4-0.2-1.9-0.2v-1.6h13.3L414.9,157.4L414.9,157.4z"/>
	
		<linearGradient id="SVGID_28_" gradientUnits="userSpaceOnUse" x1="416.9223" y1="185.2861" x2="446.175" y2="185.2861" gradientTransform="matrix(1 0 0 1 0 -30.8861)">
		<stop  offset="0" style="stop-color:#E0F1E7"/>
		<stop  offset="1" style="stop-color:#B8D5D5"/>
	</linearGradient>
	<path class="st29" d="M441.9,142.7c1.4,1.4,2.4,3.1,3.1,5.1c0.8,2,1.2,4.2,1.2,6.6s-0.4,4.6-1.2,6.6c-0.8,2-1.9,3.7-3.2,5
		c-1.3,1.4-2.9,2.4-4.6,3.2c-1.8,0.8-3.6,1.1-5.6,1.1c-2.1,0-4.1-0.4-5.9-1.2s-3.3-1.9-4.6-3.3c-1.3-1.4-2.3-3.1-3-5
		c-0.7-2-1.1-4.1-1.1-6.4c0-2.5,0.4-4.7,1.2-6.6c0.8-2,1.9-3.6,3.2-5c1.4-1.4,2.9-2.5,4.7-3.2c1.8-0.8,3.6-1.1,5.6-1.1
		s3.9,0.4,5.7,1.2C439,140.3,440.6,141.3,441.9,142.7z M438.7,164.2c0.8-1.3,1.4-2.8,1.8-4.4s0.5-3.5,0.5-5.5c0-2.1-0.2-4-0.6-5.8
		s-1-3.2-1.8-4.4s-1.8-2.1-3-2.9c-1.2-0.7-2.5-1-4.1-1c-1.7,0-3.2,0.4-4.4,1.2c-1.2,0.8-2.2,1.9-3,3.1c-0.7,1.3-1.3,2.7-1.6,4.4
		c-0.3,1.7-0.5,3.5-0.5,5.3c0,2.1,0.2,3.9,0.5,5.6c0.4,1.6,0.9,3.1,1.8,4.4c0.8,1.3,1.8,2.2,2.9,3s2.6,1,4.2,1
		c1.5,0,2.9-0.4,4.1-1.1C436.9,166.5,437.9,165.5,438.7,164.2z"/>
</g>
</svg>
