<?xml version="1.0" encoding="utf-8"?>
<!-- Generator: Adobe Illustrator 23.0.1, SVG Export Plug-In . SVG Version: 6.00 Build 0)  -->
<svg version="1.1" id="Layer_1" xmlns="http://www.w3.org/2000/svg" xmlns:xlink="http://www.w3.org/1999/xlink" x="0px" y="0px"
	 viewBox="0 0 33.4 33.4" style="enable-background:new 0 0 33.4 33.4;" xml:space="preserve">
<style type="text/css">
	.st0{fill-rule:evenodd;clip-rule:evenodd;fill:#FFFFFF;}
</style>
<g>
	<path class="st0" d="M16.8,0c9.1,0,16.6,7.5,16.6,16.8c0,9.1-7.5,16.6-16.6,16.6C7.5,33.4,0,25.9,0,16.8C0,7.5,7.5,0,16.8,0z
		 M12.4,14c1.9,2.8,4.2,5.1,7,7.1l1.8-1.8c0.5-0.6,1.5-0.6,2,0l2.6,2.6c0.6,0.5,0.6,1.5,0,2L24,25.8C20.8,29,4.4,12.6,7.6,9.4
		l1.8-1.8c0.6-0.5,1.5-0.5,2.1,0l2.6,2.6c0.5,0.6,0.5,1.5,0,2.1L12.4,14z"/>
</g>
</svg>
