<?xml version="1.0" encoding="utf-8"?>
<!-- Generator: Adobe Illustrator 23.0.1, SVG Export Plug-In . SVG Version: 6.00 Build 0)  -->
<svg version="1.1" id="Layer_1" xmlns="http://www.w3.org/2000/svg" xmlns:xlink="http://www.w3.org/1999/xlink" x="0px" y="0px"
	 viewBox="0 0 71.7 55.2" style="enable-background:new 0 0 71.7 55.2;" xml:space="preserve">
<style type="text/css">
	.st0{fill:#FFFFFF;}
</style>
<g transform="translate(0,-952.36218)">
	<path class="st0" d="M16.1,954.5c-0.9,0.1-1.5,0.9-1.4,1.8c0,0.3,0.2,0.6,0.4,0.9l6.3,7.6c-10.6,4.2-17.2,11.8-20,14.5
		c-0.6,0.6-0.6,1.7,0,2.3c0,0,0,0,0,0C5.2,985.4,17,999,36.5,999c4.4,0,8.4-0.7,11.9-1.8l7.1,8.5c0.5,0.7,1.5,0.9,2.3,0.3
		c0.7-0.5,0.9-1.5,0.3-2.3c0-0.1-0.1-0.1-0.1-0.1l-6.3-7.6c10.6-4.2,17.2-11.8,20-14.5c0.6-0.6,0.6-1.7,0-2.3c0,0,0,0,0,0
		c-3.9-3.9-15.6-17.4-35.2-17.4c-4.4,0-8.3,0.7-11.9,1.8l-7.1-8.5C17.2,954.7,16.6,954.5,16.1,954.5z M36.5,965.1
		c16.9,0,27,10.5,31.7,15.4c-3.4,3.4-9.4,9.7-18.7,13.1l-4.1-4.9c2-2.2,3.2-5,3.2-8.2c0-6.7-5.5-12.1-12.2-12.1
		c-2.4,0-4.6,0.7-6.5,1.9l-3.2-3.9C29.8,965.5,33,965.1,36.5,965.1z M23.5,967.4l4.1,4.9c-2,2.2-3.2,5-3.2,8.2
		c0,6.7,5.5,12.1,12.2,12.1c2.4,0,4.6-0.7,6.5-1.9l3.2,3.9c-2.9,0.8-6.2,1.2-9.7,1.2c-16.9,0-27-10.5-31.7-15.4
		C8.1,977,14.2,970.7,23.5,967.4L23.5,967.4z M36.5,971.5c4.9,0,8.9,4,8.9,8.9c0,2.2-0.8,4.1-2.1,5.7l-11.2-13.4
		C33.4,972,34.9,971.5,36.5,971.5z M29.6,974.8l11.2,13.4c-1.3,0.7-2.8,1.1-4.4,1.1c-4.9,0-8.9-4-8.9-8.9
		C27.6,978.3,28.4,976.3,29.6,974.8L29.6,974.8z"/>
</g>
</svg>
