<?xml version="1.0" encoding="utf-8"?>
<!-- Generator: Adobe Illustrator 23.0.1, SVG Export Plug-In . SVG Version: 6.00 Build 0)  -->
<svg version="1.1" id="Layer_1" xmlns="http://www.w3.org/2000/svg" xmlns:xlink="http://www.w3.org/1999/xlink" x="0px" y="0px"
	 viewBox="0 0 809.8 316.8" style="enable-background:new 0 0 809.8 316.8;" xml:space="preserve">
<style type="text/css">
	.st0{fill:url(#SVGID_1_);}
	.st1{fill:url(#SVGID_2_);}
	.st2{fill:url(#SVGID_3_);}
	.st3{fill:url(#SVGID_4_);}
	.st4{fill:url(#SVGID_5_);}
	.st5{fill:url(#SVGID_6_);}
	.st6{fill:url(#SVGID_7_);}
	.st7{fill:url(#SVGID_8_);}
	.st8{fill:url(#SVGID_9_);}
	.st9{fill:url(#SVGID_10_);}
	.st10{fill:url(#SVGID_11_);}
	.st11{fill:url(#SVGID_12_);}
	.st12{fill:url(#SVGID_13_);}
	.st13{fill:url(#SVGID_14_);}
	.st14{fill:url(#SVGID_15_);}
	.st15{fill:url(#SVGID_16_);}
	.st16{fill:url(#SVGID_17_);}
	.st17{fill:url(#SVGID_18_);}
	.st18{fill:url(#SVGID_19_);}
	.st19{fill:url(#SVGID_20_);}
	.st20{fill:url(#SVGID_21_);}
	.st21{fill:url(#SVGID_22_);}
	.st22{fill:url(#SVGID_23_);}
	.st23{fill:url(#SVGID_24_);}
	.st24{fill:url(#SVGID_25_);}
	.st25{fill:url(#SVGID_26_);}
	.st26{fill:url(#SVGID_27_);}
</style>
<g>
	<linearGradient id="SVGID_1_" gradientUnits="userSpaceOnUse" x1="29.4611" y1="126.2282" x2="29.4611" y2="486.6114">
		<stop  offset="0" style="stop-color:#DCFDED"/>
		<stop  offset="1" style="stop-color:#B7D4D4"/>
	</linearGradient>
	<path class="st0" d="M54.6,299.5c-1.6,6.2-2.9,9-16.4,9h-5c-9.5,0-11-2.3-11-16.4v-20.7c0-14.1,1.5-16.4,11-16.4h0.3v-3.5H0v3.5
		h0.3c9.5,0,11,2.3,11,16.4v23c0,14.2-1.5,16.5-11,16.5H0v3.5h57.9l1-18h-3.6L54.6,299.5z"/>
	<linearGradient id="SVGID_2_" gradientUnits="userSpaceOnUse" x1="99.4527" y1="126.2282" x2="99.4527" y2="486.6114">
		<stop  offset="0" style="stop-color:#DCFDED"/>
		<stop  offset="1" style="stop-color:#B7D4D4"/>
	</linearGradient>
	<path class="st1" d="M122.2,298.4L101,249.1h-2.4l-21.2,49.3c-4.7,10.8-6,12.3-14.5,12.3h-0.3v3.6h27.7v-3.6H90
		c-5.5,0-8.2-0.6-9.1-2c-1-1.5-0.2-4.1,1.7-8.5l2.8-6.4h23.2l2.8,6.4c1.9,4.5,2.3,6.9,1.4,8.4c-1,1.5-3.6,2.1-8.8,2.1h-0.3v3.6h32.8
		v-3.6H136C128.6,310.7,127,309.2,122.2,298.4z M106,287.9h-18l9-20.9L106,287.9z"/>
	<linearGradient id="SVGID_3_" gradientUnits="userSpaceOnUse" x1="178.2557" y1="126.2282" x2="178.2557" y2="486.6114">
		<stop  offset="0" style="stop-color:#DCFDED"/>
		<stop  offset="1" style="stop-color:#B7D4D4"/>
	</linearGradient>
	<path class="st2" d="M186.2,255h0.3c9.5,0,11,2.3,11,16.4v25l-37.7-44.7l-0.1-0.1h-18.1v3.5h0.3c9.5,0,11,2.3,11,16.4v23
		c0,14.2-1.5,16.5-11,16.5h-0.3v3.5h28.6v-3.5H170c-9.5,0-11-2.3-11-16.5V267l41.2,49.5l0.1,0.1h3.2v-45.2c0-14.1,1.5-16.4,11-16.4
		h0.3v-3.5h-28.6V255z"/>
	<linearGradient id="SVGID_4_" gradientUnits="userSpaceOnUse" x1="260.2826" y1="126.2282" x2="260.2826" y2="486.6114">
		<stop  offset="0" style="stop-color:#DCFDED"/>
		<stop  offset="1" style="stop-color:#B7D4D4"/>
	</linearGradient>
	<path class="st3" d="M258,251.6h-30.7v3.5h0.3c9.5,0,11,2.3,11,16.4v23c0,14.2-1.5,16.5-11,16.5h-0.3v3.5H258
		c22.1,0,35.3-11.8,35.3-31.5c0-9-2.9-16.6-8.5-22.1C278.7,254.7,269.6,251.6,258,251.6z M258.4,308.4h-1.1c-6.9,0-7.9-1.3-7.9-10.6
		v-40.5h9c18.5,0,22.4,13.9,22.4,25.5S276.9,308.4,258.4,308.4z"/>
	<linearGradient id="SVGID_5_" gradientUnits="userSpaceOnUse" x1="377.172" y1="126.2282" x2="377.172" y2="486.6114">
		<stop  offset="0" style="stop-color:#DCFDED"/>
		<stop  offset="1" style="stop-color:#B7D4D4"/>
	</linearGradient>
	<path class="st4" d="M377.2,249.1c-9.4,0-18.2,3.5-24.9,10c-6.7,6.4-10.4,14.9-10.4,23.8c0,18.7,15.9,33.9,35.3,33.9
		s35.3-15.2,35.3-33.9c0-8.9-3.7-17.4-10.4-23.8C395.4,252.7,386.5,249.1,377.2,249.1z M377.2,255.2c8.5,0,23,5.8,23,27.7
		s-14.4,27.7-23,27.7s-23-5.8-23-27.7S368.6,255.2,377.2,255.2z"/>
	<linearGradient id="SVGID_6_" gradientUnits="userSpaceOnUse" x1="458.7407" y1="126.2282" x2="458.7407" y2="486.6114">
		<stop  offset="0" style="stop-color:#DCFDED"/>
		<stop  offset="1" style="stop-color:#B7D4D4"/>
	</linearGradient>
	<path class="st5" d="M431.9,251.6v3.5h0.3c9.5,0,11,2.3,11,16.4v23c0,14.2-1.5,16.5-11,16.5h-0.3v3.5h33.5v-3.5H465
		c-9.5,0-11-2.3-11-16.5V284h0.6c14.1,0,15.2,1.7,15.2,11v0.3h3.5v-28.6h-3.5v0.3c0,9.5-1,11-15.2,11H454v-20.8h10.9
		c12.9,0,14.6,2.3,16.4,9l0.8,3.1h3.6l-1.2-17.8H431.9z"/>
	<linearGradient id="SVGID_7_" gradientUnits="userSpaceOnUse" x1="573.7672" y1="126.2282" x2="573.7672" y2="486.6114">
		<stop  offset="0" style="stop-color:#DCFDED"/>
		<stop  offset="1" style="stop-color:#B7D4D4"/>
	</linearGradient>
	<path class="st6" d="M546.9,251.6v3.5h0.3c9.5,0,11,2.3,11,16.4v23c0,14.2-1.5,16.5-11,16.5h-0.3v3.5h33.5v-3.5h-0.3
		c-9.5,0-11-2.3-11-16.5V284h0.6c14.1,0,15.2,1.7,15.2,11v0.3h3.5v-28.6h-3.5v0.3c0,9.5-1,11-15.2,11H569v-20.8h10.9
		c12.9,0,14.6,2.3,16.4,9l0.8,3.1h3.6l-1.2-17.8H546.9z"/>
	<linearGradient id="SVGID_8_" gradientUnits="userSpaceOnUse" x1="644.8054" y1="126.2282" x2="644.8054" y2="486.6114">
		<stop  offset="0" style="stop-color:#DCFDED"/>
		<stop  offset="1" style="stop-color:#B7D4D4"/>
	</linearGradient>
	<path class="st7" d="M628.1,255h0.3c9.5,0,11,2.3,11,16.4v23c0,14.2-1.5,16.5-11,16.5h-0.3v3.5h33.5v-3.5h-0.3
		c-9.5,0-11-2.3-11-16.5v-23c0-14.1,1.5-16.4,11-16.4h0.3v-3.5h-33.5V255z"/>
	<linearGradient id="SVGID_9_" gradientUnits="userSpaceOnUse" x1="711.5032" y1="126.2282" x2="711.5032" y2="486.6114">
		<stop  offset="0" style="stop-color:#DCFDED"/>
		<stop  offset="1" style="stop-color:#B7D4D4"/>
	</linearGradient>
	<path class="st8" d="M724.2,297.6l-8.6-10.4c10.3-1.6,17.1-8.6,17.1-17.6c0-11-9.1-18.1-23.3-18.1h-30v3.5h0.3
		c9.5,0,11,2.3,11,16.4v23c0,14.2-1.5,16.5-11,16.5h-0.3v3.5H713v-3.5h-0.3c-9.5,0-11-2.3-11-16.5v-6.7h3.6l19.4,26.6l0.1,0.1h18.8
		v-3.4l-0.3,0C737.4,310,731,305.5,724.2,297.6z M721,269.7c0,5.8-3,12-11.5,12h-7.9v-24.4h7.9C718,257.3,721,263.7,721,269.7z"/>
	<linearGradient id="SVGID_10_" gradientUnits="userSpaceOnUse" x1="782.0148" y1="126.2282" x2="782.0148" y2="486.6114">
		<stop  offset="0" style="stop-color:#DCFDED"/>
		<stop  offset="1" style="stop-color:#B7D4D4"/>
	</linearGradient>
	<path class="st9" d="M806.3,296.4l-0.8,3.1c-1.7,6.6-3.4,9-16.4,9h-1.7c-9.5,0-11-2.3-11-16.4v-8h0.6c14.1,0,15.2,1.7,15.2,11v0.3
		h3.5v-28.6h-3.5v0.3c0,9.5-1,11-15.2,11h-0.6v-20.8h9.3c12.9,0,14.7,2.5,16.2,9l0.8,3.1h3.6l-1.2-17.8h-50.8v3.5h0.3
		c9.5,0,11,2.3,11,16.4v23c0,14.2-1.5,16.5-11,16.5h-0.3v3.5h54.3l1.2-18H806.3z"/>
	<linearGradient id="SVGID_11_" gradientUnits="userSpaceOnUse" x1="330.5899" y1="119.4576" x2="330.5899" y2="479.8408">
		<stop  offset="0" style="stop-color:#DCFDED"/>
		<stop  offset="1" style="stop-color:#B7D4D4"/>
	</linearGradient>
	<path class="st10" d="M323.3,181.4h0.3c3.7,0,4.5,0.6,4.5,6.7v9.7c0,5.9-0.6,6.8-4.5,6.8h-0.3v1.8h14.5v-1.8h-0.3
		c-3.9,0-4.5-0.9-4.5-6.8v-9.7c0-6.1,0.8-6.7,4.5-6.7h0.3v-1.8h-14.5V181.4z"/>
	<linearGradient id="SVGID_12_" gradientUnits="userSpaceOnUse" x1="357.7831" y1="119.4576" x2="357.7831" y2="479.8408">
		<stop  offset="0" style="stop-color:#DCFDED"/>
		<stop  offset="1" style="stop-color:#B7D4D4"/>
	</linearGradient>
	<path class="st11" d="M354.6,204.6h-0.3c-3.9,0-4.5-0.9-4.5-6.8v-11l17.1,20.5l0.1,0.1h1.6v-19.3c0-6.1,0.8-6.7,4.5-6.7h0.3v-1.8
		H361v1.8h0.3c3.7,0,4.5,0.6,4.5,6.7v10.1l-15.6-18.5l-0.1-0.1h-7.9v1.8h0.3c3.7,0,4.5,0.6,4.5,6.7v9.7c0,5.9-0.6,6.8-4.5,6.8h-0.3
		v1.8h12.4V204.6z"/>
	<linearGradient id="SVGID_13_" gradientUnits="userSpaceOnUse" x1="404.0713" y1="119.4576" x2="404.0713" y2="479.8408">
		<stop  offset="0" style="stop-color:#DCFDED"/>
		<stop  offset="1" style="stop-color:#B7D4D4"/>
	</linearGradient>
	<path class="st12" d="M390.2,179.6l-0.4,8.1h1.8l0.4-1.4c0.7-2.6,0.9-3.7,6.5-3.7h3.2v15.3c0,6.2-0.9,6.8-4.5,6.8h-0.3v1.8h14.5
		v-1.8h-0.3c-3.7,0-4.5-0.6-4.5-6.8v-15.3h2.8c5.6,0,6.1,1.1,6.7,3.6l0.4,1.4h1.8l-0.5-8.1H390.2z"/>
	<linearGradient id="SVGID_14_" gradientUnits="userSpaceOnUse" x1="438.2014" y1="119.4576" x2="438.2014" y2="479.8408">
		<stop  offset="0" style="stop-color:#DCFDED"/>
		<stop  offset="1" style="stop-color:#B7D4D4"/>
	</linearGradient>
	<path class="st13" d="M436.4,204.6h-0.3c-3.9,0-4.5-0.9-4.5-6.8v-4.2h13.1v4.2c0,5.9-0.6,6.8-4.5,6.8H440v1.8h14.5v-1.8h-0.3
		c-3.6,0-4.5-0.6-4.5-6.8v-9.7c0-6.1,0.8-6.7,4.5-6.7h0.3v-1.8H440v1.8h0.3c3.7,0,4.5,0.6,4.5,6.7v2.7h-13.1v-2.7
		c0-6.1,0.8-6.7,4.5-6.7h0.3v-1.8h-14.5v1.8h0.3c3.7,0,4.5,0.6,4.5,6.7v9.7c0,5.9-0.6,6.8-4.5,6.8h-0.3v1.8h14.5V204.6z"/>
	<linearGradient id="SVGID_15_" gradientUnits="userSpaceOnUse" x1="470.0289" y1="119.4576" x2="470.0289" y2="479.8408">
		<stop  offset="0" style="stop-color:#DCFDED"/>
		<stop  offset="1" style="stop-color:#B7D4D4"/>
	</linearGradient>
	<path class="st14" d="M481.9,198.5h-1.8l-0.4,1.4c-0.7,2.7-1.4,3.6-6.7,3.6h-0.7c-3.7,0-4.5-0.6-4.5-6.7v-3.2h0.1
		c6,0,6.2,0.8,6.2,4.5v0.3h1.8V186h-1.8v0.3c0,3.8-0.2,4.5-6.2,4.5h-0.1v-8.4h3.8c5.6,0,6.1,1.1,6.7,3.6l0.4,1.4h1.8l-0.5-7.9h-21.8
		v1.8h0.3c3.7,0,4.5,0.6,4.5,6.7v9.7c0,5.9-0.6,6.8-4.5,6.8h-0.3v1.8h23.2L481.9,198.5z"/>
	<g>
		<linearGradient id="SVGID_16_" gradientUnits="userSpaceOnUse" x1="0.6733" y1="70.9543" x2="71.6279" y2="70.9543">
			<stop  offset="0" style="stop-color:#DCFDED"/>
			<stop  offset="1" style="stop-color:#B7D4D4"/>
		</linearGradient>
		<path class="st15" d="M68.1,0c2,0,3.5,1.6,3.5,3.5v112.8c0,16.7-8.9,25.5-25.5,25.5H26.2c-16.7,0-25.5-8.9-25.5-25.5V3.5
			c0-2,1.6-3.5,3.5-3.5h17c2,0,3.5,1.6,3.5,3.5v107.9c0,4.8,2.5,7.1,7.1,7.1h9.2c4.6,0,7.1-2.3,7.1-7.1V3.5c0-2,1.6-3.5,3.5-3.5
			H68.1z"/>
		<linearGradient id="SVGID_17_" gradientUnits="userSpaceOnUse" x1="89.3684" y1="79.8235" x2="168.4628" y2="79.8235">
			<stop  offset="0" style="stop-color:#DCFDED"/>
			<stop  offset="1" style="stop-color:#B7D4D4"/>
		</linearGradient>
		<path class="st16" d="M146.5,141.9c-2.1,0-3.2-0.9-4.1-2.7l-22.4-43.8l-6.6,12.6v30.3c0,2.3-1.2,3.5-3.5,3.5h-17
			c-2.3,0-3.5-1.2-3.5-3.5V21.3c0-2.3,1.2-3.5,3.5-3.5h17c2.3,0,3.5,1.2,3.5,3.5v46.1l27.3-47c0.9-1.6,2.1-2.7,4.1-2.7h18.6
			c2.7,0,3.9,2,2.5,4.3l-30.2,53l32.1,62.8c1.2,2.3,0.2,4.1-2.7,4.1H146.5z"/>
		<linearGradient id="SVGID_18_" gradientUnits="userSpaceOnUse" x1="177.3279" y1="79.8235" x2="267.1357" y2="79.8235">
			<stop  offset="0" style="stop-color:#DCFDED"/>
			<stop  offset="1" style="stop-color:#B7D4D4"/>
		</linearGradient>
		<path class="st17" d="M263.9,17.7c2.7,0,3.9,1.8,2.8,4.1l-32.5,73.6v42.9c0,2.3-1.2,3.5-3.5,3.5h-17c-2.3,0-3.5-1.2-3.5-3.5V95.4
			l-32.5-73.6c-1.1-2.3,0.2-4.1,2.8-4.1h17.7c2.1,0,3.4,1.1,4.1,2.8l19.9,45.6l19.9-45.6c0.7-1.8,2-2.8,4.1-2.8H263.9z"/>
		<linearGradient id="SVGID_19_" gradientUnits="userSpaceOnUse" x1="472.7172" y1="70.9543" x2="541.8978" y2="70.9543">
			<stop  offset="0" style="stop-color:#DCFDED"/>
			<stop  offset="1" style="stop-color:#B7D4D4"/>
		</linearGradient>
		<path class="st18" d="M496.8,118.5h42.2c2,0,2.8,1.1,2.8,2.8v17.7c0,2-0.9,2.8-2.8,2.8h-63.5c-1.8,0-2.8-0.9-2.8-2.8V2.8
			c0-1.8,1.1-2.8,2.8-2.8H494c2,0,2.8,1.1,2.8,2.8V118.5z"/>
		<linearGradient id="SVGID_20_" gradientUnits="userSpaceOnUse" x1="555.6363" y1="79.8235" x2="626.5909" y2="79.8235">
			<stop  offset="0" style="stop-color:#DCFDED"/>
			<stop  offset="1" style="stop-color:#B7D4D4"/>
		</linearGradient>
		<path class="st19" d="M555.6,43.3c0-16.7,8.9-25.5,25.5-25.5H601c16.7,0,25.5,8.9,25.5,25.5v73.1c0,16.7-8.9,25.5-25.5,25.5h-19.9
			c-16.7,0-25.5-8.9-25.5-25.5V43.3z M597.1,119c4.6,0,7.1-2.3,7.1-7.1V47.7c0-4.6-2.5-7.1-7.1-7.1h-11.4c-4.6,0-7.1,2.5-7.1,7.1
			v64.2c0,4.8,2.5,7.1,7.1,7.1H597.1z"/>
		<linearGradient id="SVGID_21_" gradientUnits="userSpaceOnUse" x1="641.1313" y1="79.8235" x2="703.2161" y2="79.8235">
			<stop  offset="0" style="stop-color:#DCFDED"/>
			<stop  offset="1" style="stop-color:#B7D4D4"/>
		</linearGradient>
		<path class="st20" d="M665.3,118.5h35.1c2,0,2.8,1.1,2.8,2.8v17.7c0,2-0.9,2.8-2.8,2.8H644c-1.8,0-2.8-0.9-2.8-2.8V20.6
			c0-1.8,1.1-2.8,2.8-2.8h18.4c2,0,2.8,1.1,2.8,2.8V118.5z"/>
		<linearGradient id="SVGID_22_" gradientUnits="userSpaceOnUse" x1="714.6883" y1="79.8235" x2="804.5711" y2="79.8235">
			<stop  offset="0" style="stop-color:#DCFDED"/>
			<stop  offset="1" style="stop-color:#B7D4D4"/>
		</linearGradient>
		<path class="st21" d="M784.7,141.9c-1.6,0-2.5-0.9-2.8-2.5l-5.7-22.4h-33.3l-5.5,22.4c-0.4,1.6-1.2,2.5-2.8,2.5h-17.4
			c-2,0-2.8-1.1-2.3-3l29.4-118.7c0.4-1.8,1.4-2.5,3-2.5H772c1.6,0,2.7,0.7,3,2.5l29.4,118.7c0.5,2-0.4,3-2.5,3H784.7z M759.5,48.2
			l-11.2,48.2h22.4L759.5,48.2z"/>
	</g>
	<linearGradient id="SVGID_23_" gradientUnits="userSpaceOnUse" x1="144.2244" y1="184.4433" x2="144.2244" y2="200.4482">
		<stop  offset="0" style="stop-color:#DCFDED"/>
		<stop  offset="1" style="stop-color:#B7D4D4"/>
	</linearGradient>
	<polygon class="st22" points="286.4,191.4 168.4,191.4 161.5,184.4 154.5,191.4 152.4,191.4 145.5,184.4 138.5,191.4 136.4,191.4 
		129.5,184.4 122.5,191.4 2,191.4 2,193.6 122.6,193.6 129.5,200.4 136.3,193.6 138.6,193.6 145.5,200.4 152.3,193.6 154.6,193.6 
		161.5,200.4 168.3,193.6 286.4,193.6 	"/>
	<linearGradient id="SVGID_24_" gradientUnits="userSpaceOnUse" x1="664.2244" y1="184.4433" x2="664.2244" y2="200.4482">
		<stop  offset="0" style="stop-color:#DCFDED"/>
		<stop  offset="1" style="stop-color:#B7D4D4"/>
	</linearGradient>
	<polygon class="st23" points="806.4,191.4 688.4,191.4 681.5,184.4 674.5,191.4 672.4,191.4 665.5,184.4 658.5,191.4 656.4,191.4 
		649.5,184.4 642.5,191.4 522,191.4 522,193.6 642.6,193.6 649.5,200.4 656.3,193.6 658.6,193.6 665.5,200.4 672.3,193.6 
		674.6,193.6 681.5,200.4 688.3,193.6 806.4,193.6 	"/>
	<g>
		<linearGradient id="SVGID_25_" gradientUnits="userSpaceOnUse" x1="304.017" y1="84.3315" x2="341.0634" y2="84.3315">
			<stop  offset="0" style="stop-color:#DCFDED"/>
			<stop  offset="1" style="stop-color:#B7D4D4"/>
		</linearGradient>
		<path class="st24" d="M332.2,113.6c-0.7,0-1-0.4-1.2-1l-2-10.7h-13l-2,10.7c-0.1,0.7-0.5,1-1.2,1H305c-0.8,0-1.2-0.4-1-1.2
			l12.1-56.3c0.1-0.7,0.6-1,1.2-1h10.2c0.7,0,1.1,0.3,1.2,1l12.1,56.3c0.1,0.8-0.1,1.2-1,1.2H332.2z M322.5,67.9l-4.7,25.5h9.4
			L322.5,67.9z"/>
		<linearGradient id="SVGID_26_" gradientUnits="userSpaceOnUse" x1="346.8826" y1="84.3315" x2="378.1234" y2="84.3315">
			<stop  offset="0" style="stop-color:#DCFDED"/>
			<stop  offset="1" style="stop-color:#B7D4D4"/>
		</linearGradient>
		<path class="st25" d="M377,55.1c0.7,0,1.2,0.4,1.2,1.2v56.2c0,0.7-0.4,1.2-1.2,1.2h-7.2c-0.7,0-1.1-0.3-1.3-1l-11.2-31.2h-0.4v31
			c0,0.7-0.4,1.2-1.2,1.2h-7.6c-0.7,0-1.2-0.4-1.2-1.2V56.2c0-0.7,0.4-1.2,1.2-1.2h7.2c0.7,0,1.1,0.3,1.3,1l11.1,31.1h0.4V56.2
			c0-0.7,0.4-1.2,1.2-1.2H377z"/>
		<linearGradient id="SVGID_27_" gradientUnits="userSpaceOnUse" x1="385.441" y1="84.3315" x2="414.7068" y2="84.3315">
			<stop  offset="0" style="stop-color:#DCFDED"/>
			<stop  offset="1" style="stop-color:#B7D4D4"/>
		</linearGradient>
		<path class="st26" d="M385.4,56.2c0-0.7,0.4-1.2,1.2-1.2h17.6c6.9,0,10.5,3.7,10.5,10.6v37.4c0,6.9-3.7,10.5-10.5,10.5h-17.6
			c-0.8,0-1.2-0.4-1.2-1.2V56.2z M402.1,103.9c1.9,0,2.9-1,2.9-2.9V67.7c0-2-1-3-2.9-3h-6.7v39.2H402.1z"/>
	</g>
</g>
</svg>
