<?xml version="1.0" encoding="utf-8"?>
<!-- Generator: Adobe Illustrator 23.0.1, SVG Export Plug-In . SVG Version: 6.00 Build 0)  -->
<svg version="1.1" id="Layer_1" xmlns="http://www.w3.org/2000/svg" xmlns:xlink="http://www.w3.org/1999/xlink" x="0px" y="0px"
	 viewBox="0 0 809.8 316.8" style="enable-background:new 0 0 809.8 316.8;" xml:space="preserve">
<style type="text/css">
	.st0{fill:url(#SVGID_1_);}
	.st1{fill:url(#SVGID_2_);}
	.st2{fill:url(#SVGID_3_);}
	.st3{fill:url(#SVGID_4_);}
	.st4{fill:url(#SVGID_5_);}
	.st5{fill:url(#SVGID_6_);}
	.st6{fill:url(#SVGID_7_);}
	.st7{fill:url(#SVGID_8_);}
	.st8{fill:url(#SVGID_9_);}
	.st9{fill:url(#SVGID_10_);}
	.st10{fill:url(#SVGID_11_);}
	.st11{fill:url(#SVGID_12_);}
	.st12{fill:url(#SVGID_13_);}
	.st13{fill:url(#SVGID_14_);}
	.st14{fill:url(#SVGID_15_);}
	.st15{fill:url(#SVGID_16_);}
	.st16{fill:url(#SVGID_17_);}
	.st17{fill:url(#SVGID_18_);}
	.st18{fill:url(#SVGID_19_);}
	.st19{fill:url(#SVGID_20_);}
	.st20{fill:url(#SVGID_21_);}
	.st21{fill:url(#SVGID_22_);}
	.st22{fill:url(#SVGID_23_);}
	.st23{fill:url(#SVGID_24_);}
	.st24{fill:url(#SVGID_25_);}
	.st25{fill:url(#SVGID_26_);}
</style>
<linearGradient id="SVGID_1_" gradientUnits="userSpaceOnUse" x1="414.9062" y1="124.0712" x2="414.9062" y2="484.4544">
	<stop  offset="0" style="stop-color:#DCFDED"/>
	<stop  offset="1" style="stop-color:#B7D4D4"/>
</linearGradient>
<path class="st0" d="M411.7,209.2h-0.3c-3.9,0-4.5-0.9-4.5-6.8v-11l17.1,20.5l0.1,0.1h1.6v-19.3c0-6.1,0.8-6.7,4.5-6.7h0.3v-1.8
	h-12.4v1.8h0.3c3.7,0,4.5,0.6,4.5,6.7v10.1l-15.6-18.5l-0.1-0.1h-7.9v1.8h0.3c3.7,0,4.5,0.6,4.5,6.7v9.7c0,5.9-0.6,6.8-4.5,6.8h-0.3
	v1.8h12.4V209.2z"/>
<linearGradient id="SVGID_2_" gradientUnits="userSpaceOnUse" x1="384.152" y1="124.0712" x2="384.152" y2="484.4544">
	<stop  offset="0" style="stop-color:#DCFDED"/>
	<stop  offset="1" style="stop-color:#B7D4D4"/>
</linearGradient>
<path class="st1" d="M396,203.1h-1.8l-0.4,1.4c-0.7,2.7-1.4,3.6-6.7,3.6h-0.7c-3.7,0-4.5-0.6-4.5-6.7v-3.2h0.1c6,0,6.2,0.8,6.2,4.5
	v0.3h1.8v-12.4h-1.8v0.3c0,3.8-0.2,4.5-6.2,4.5H382V187h3.8c5.6,0,6.1,1.1,6.7,3.6l0.4,1.4h1.8l-0.5-7.9h-21.8v1.8h0.3
	c3.7,0,4.5,0.6,4.5,6.7v9.7c0,5.9-0.6,6.8-4.5,6.8h-0.3v1.8h23.2L396,203.1z"/>
<g>
	<linearGradient id="SVGID_3_" gradientUnits="userSpaceOnUse" x1="1.7963" y1="75.5679" x2="72.7509" y2="75.5679">
		<stop  offset="0" style="stop-color:#DCFDED"/>
		<stop  offset="1" style="stop-color:#B7D4D4"/>
	</linearGradient>
	<path class="st2" d="M69.2,4.6c2,0,3.5,1.6,3.5,3.5V121c0,16.7-8.9,25.5-25.5,25.5H27.3c-16.7,0-25.5-8.9-25.5-25.5V8.2
		c0-2,1.6-3.5,3.5-3.5h17c2,0,3.5,1.6,3.5,3.5V116c0,4.8,2.5,7.1,7.1,7.1h9.2c4.6,0,7.1-2.3,7.1-7.1V8.2c0-2,1.6-3.5,3.5-3.5H69.2z"
		/>
	<linearGradient id="SVGID_4_" gradientUnits="userSpaceOnUse" x1="90.4914" y1="84.4372" x2="169.5859" y2="84.4372">
		<stop  offset="0" style="stop-color:#DCFDED"/>
		<stop  offset="1" style="stop-color:#B7D4D4"/>
	</linearGradient>
	<path class="st3" d="M147.6,146.5c-2.1,0-3.2-0.9-4.1-2.7L121.2,100l-6.6,12.6V143c0,2.3-1.2,3.5-3.5,3.5H94
		c-2.3,0-3.5-1.2-3.5-3.5V25.9c0-2.3,1.2-3.5,3.5-3.5h17c2.3,0,3.5,1.2,3.5,3.5V72l27.3-47c0.9-1.6,2.1-2.7,4.1-2.7h18.6
		c2.7,0,3.9,2,2.5,4.3l-30.2,53l32.1,62.8c1.2,2.3,0.2,4.1-2.7,4.1H147.6z"/>
	<linearGradient id="SVGID_5_" gradientUnits="userSpaceOnUse" x1="178.4509" y1="84.4372" x2="268.2588" y2="84.4372">
		<stop  offset="0" style="stop-color:#DCFDED"/>
		<stop  offset="1" style="stop-color:#B7D4D4"/>
	</linearGradient>
	<path class="st4" d="M265,22.4c2.7,0,3.9,1.8,2.8,4.1L235.4,100V143c0,2.3-1.2,3.5-3.5,3.5h-17c-2.3,0-3.5-1.2-3.5-3.5V100
		l-32.5-73.6c-1.1-2.3,0.2-4.1,2.8-4.1h17.7c2.1,0,3.4,1.1,4.1,2.8l19.9,45.6l19.9-45.6c0.7-1.8,2-2.8,4.1-2.8H265z"/>
	<linearGradient id="SVGID_6_" gradientUnits="userSpaceOnUse" x1="342.7484" y1="88.9954" x2="384.6032" y2="88.9954">
		<stop  offset="0" style="stop-color:#DCFDED"/>
		<stop  offset="1" style="stop-color:#B7D4D4"/>
	</linearGradient>
	<path class="st5" d="M383.1,60.1c1.2,0,1.8,0.8,1.3,1.9l-15.1,34.3v20c0,1.1-0.6,1.7-1.7,1.7h-7.9c-1.1,0-1.7-0.6-1.7-1.7v-20
		L342.9,62c-0.5-1.1,0.1-1.9,1.3-1.9h8.3c1,0,1.6,0.5,1.9,1.3l9.3,21.2l9.3-21.2c0.3-0.8,0.9-1.3,1.9-1.3H383.1z"/>
	<linearGradient id="SVGID_7_" gradientUnits="userSpaceOnUse" x1="473.8402" y1="75.5679" x2="543.0209" y2="75.5679">
		<stop  offset="0" style="stop-color:#DCFDED"/>
		<stop  offset="1" style="stop-color:#B7D4D4"/>
	</linearGradient>
	<path class="st6" d="M498,123.1h42.2c2,0,2.8,1.1,2.8,2.8v17.7c0,2-0.9,2.8-2.8,2.8h-63.5c-1.8,0-2.8-0.9-2.8-2.8V7.5
		c0-1.8,1.1-2.8,2.8-2.8h18.4c2,0,2.8,1.1,2.8,2.8V123.1z"/>
	<linearGradient id="SVGID_8_" gradientUnits="userSpaceOnUse" x1="556.7593" y1="84.4372" x2="627.7139" y2="84.4372">
		<stop  offset="0" style="stop-color:#DCFDED"/>
		<stop  offset="1" style="stop-color:#B7D4D4"/>
	</linearGradient>
	<path class="st7" d="M556.8,47.9c0-16.7,8.9-25.5,25.5-25.5h19.9c16.7,0,25.5,8.9,25.5,25.5V121c0,16.7-8.9,25.5-25.5,25.5h-19.9
		c-16.7,0-25.5-8.9-25.5-25.5V47.9z M598.3,123.6c4.6,0,7.1-2.3,7.1-7.1V52.3c0-4.6-2.5-7.1-7.1-7.1h-11.4c-4.6,0-7.1,2.5-7.1,7.1
		v64.2c0,4.8,2.5,7.1,7.1,7.1H598.3z"/>
	<linearGradient id="SVGID_9_" gradientUnits="userSpaceOnUse" x1="642.2544" y1="84.4372" x2="704.3391" y2="84.4372">
		<stop  offset="0" style="stop-color:#DCFDED"/>
		<stop  offset="1" style="stop-color:#B7D4D4"/>
	</linearGradient>
	<path class="st8" d="M666.4,123.1h35.1c2,0,2.8,1.1,2.8,2.8v17.7c0,2-0.9,2.8-2.8,2.8h-56.4c-1.8,0-2.8-0.9-2.8-2.8V25.2
		c0-1.8,1.1-2.8,2.8-2.8h18.4c2,0,2.8,1.1,2.8,2.8V123.1z"/>
	<linearGradient id="SVGID_10_" gradientUnits="userSpaceOnUse" x1="715.8113" y1="84.4372" x2="805.6942" y2="84.4372">
		<stop  offset="0" style="stop-color:#DCFDED"/>
		<stop  offset="1" style="stop-color:#B7D4D4"/>
	</linearGradient>
	<path class="st9" d="M785.9,146.5c-1.6,0-2.5-0.9-2.8-2.5l-5.7-22.4H744l-5.5,22.4c-0.4,1.6-1.2,2.5-2.8,2.5h-17.4
		c-2,0-2.8-1.1-2.3-3l29.4-118.7c0.4-1.8,1.4-2.5,3-2.5h24.7c1.6,0,2.7,0.7,3,2.5l29.4,118.7c0.5,2-0.4,3-2.5,3H785.9z M760.7,52.9
		l-11.2,48.2h22.4L760.7,52.9z"/>
</g>
<linearGradient id="SVGID_11_" gradientUnits="userSpaceOnUse" x1="145.3475" y1="189.0569" x2="145.3475" y2="205.0618">
	<stop  offset="0" style="stop-color:#DCFDED"/>
	<stop  offset="1" style="stop-color:#B7D4D4"/>
</linearGradient>
<polygon class="st10" points="287.5,196 169.6,196 162.6,189.1 155.6,196 153.6,196 146.6,189.1 139.6,196 137.6,196 130.6,189.1 
	123.6,196 3.2,196 3.2,198.2 123.7,198.2 130.6,205.1 137.5,198.2 139.7,198.2 146.6,205.1 153.5,198.2 155.7,198.2 162.6,205.1 
	169.5,198.2 287.5,198.2 "/>
<linearGradient id="SVGID_12_" gradientUnits="userSpaceOnUse" x1="665.3475" y1="189.0569" x2="665.3475" y2="205.0618">
	<stop  offset="0" style="stop-color:#DCFDED"/>
	<stop  offset="1" style="stop-color:#B7D4D4"/>
</linearGradient>
<polygon class="st11" points="807.5,196 689.6,196 682.6,189.1 675.6,196 673.6,196 666.6,189.1 659.6,196 657.6,196 650.6,189.1 
	643.6,196 523.2,196 523.2,198.2 643.7,198.2 650.6,205.1 657.5,198.2 659.7,198.2 666.6,205.1 673.5,198.2 675.7,198.2 
	682.6,205.1 689.5,198.2 807.5,198.2 "/>
<g>
	<linearGradient id="SVGID_13_" gradientUnits="userSpaceOnUse" x1="1.8283" y1="278.6756" x2="50.2086" y2="278.6756">
		<stop  offset="0" style="stop-color:#DCFDED"/>
		<stop  offset="1" style="stop-color:#B7D4D4"/>
	</linearGradient>
	<path class="st12" d="M50.2,266h-2.7c-0.2-0.9-0.7-2.1-1.3-3.3c-0.6-1.3-1.3-2.5-2.1-3.7c-0.8-1.2-1.6-2.2-2.6-3.1
		c-0.9-0.9-1.8-1.4-2.7-1.5c-0.8-0.1-1.8-0.2-3.1-0.2c-1.2-0.1-2.4-0.1-3.4-0.1h-2.3v44.4c0,0.9,0.2,1.6,0.5,2.4
		c0.4,0.7,1,1.3,1.9,1.7c0.5,0.2,1.5,0.4,3,0.7c1.5,0.3,2.7,0.5,3.5,0.5v2.8H12.9v-2.8c0.7-0.1,1.8-0.2,3.3-0.3
		c1.5-0.2,2.5-0.4,3.1-0.6c0.9-0.3,1.5-0.8,1.9-1.5c0.4-0.6,0.6-1.5,0.6-2.6V254h-2.3c-0.8,0-1.8,0-3,0.1c-1.2,0-2.3,0.1-3.4,0.3
		c-0.9,0.1-1.8,0.6-2.7,1.5c-0.9,0.9-1.8,2-2.6,3.1c-0.8,1.2-1.5,2.4-2.1,3.7c-0.6,1.3-1,2.4-1.3,3.3H1.8v-15.1h48.4V266z"/>
	<linearGradient id="SVGID_14_" gradientUnits="userSpaceOnUse" x1="56.8859" y1="278.6756" x2="81.8776" y2="278.6756">
		<stop  offset="0" style="stop-color:#DCFDED"/>
		<stop  offset="1" style="stop-color:#B7D4D4"/>
	</linearGradient>
	<path class="st13" d="M81.9,306.4h-25v-2.8c0.7-0.1,1.7-0.1,3-0.2c1.3-0.1,2.3-0.3,2.8-0.5c0.9-0.3,1.5-0.8,1.9-1.4
		c0.4-0.6,0.6-1.4,0.6-2.4v-40.2c0-0.9-0.1-1.7-0.4-2.3c-0.3-0.6-1-1.1-2-1.5c-0.8-0.3-1.8-0.6-3-0.9c-1.2-0.3-2.2-0.4-2.9-0.5v-2.8
		h25v2.8c-0.8,0-1.8,0.1-2.9,0.3c-1.1,0.2-2.1,0.4-2.9,0.6c-1,0.3-1.7,0.8-2,1.5c-0.3,0.7-0.5,1.5-0.5,2.3v40.2
		c0,0.9,0.2,1.6,0.6,2.3c0.4,0.7,1,1.2,1.9,1.6c0.5,0.2,1.4,0.4,2.7,0.7c1.2,0.2,2.3,0.4,3.1,0.4V306.4z"/>
	<linearGradient id="SVGID_15_" gradientUnits="userSpaceOnUse" x1="87.3701" y1="278.6756" x2="134.4997" y2="278.6756">
		<stop  offset="0" style="stop-color:#DCFDED"/>
		<stop  offset="1" style="stop-color:#B7D4D4"/>
	</linearGradient>
	<path class="st14" d="M134.5,290.1l-1.1,16.3H87.4v-2.8c0.8-0.1,1.8-0.2,3.1-0.3c1.3-0.2,2.2-0.3,2.5-0.5c0.8-0.4,1.4-0.9,1.7-1.5
		c0.3-0.6,0.5-1.4,0.5-2.4V259c0-0.9-0.1-1.6-0.4-2.3c-0.3-0.7-0.9-1.2-1.8-1.6c-0.7-0.3-1.6-0.6-2.8-0.9c-1.2-0.3-2.1-0.4-2.8-0.5
		v-2.8h42.9v13.4h-2.9c-0.5-2-1.6-4.1-3.4-6.3c-1.7-2.2-3.4-3.4-4.9-3.7c-0.8-0.1-1.8-0.2-2.9-0.2c-1.1-0.1-2.4-0.1-3.8-0.1h-8.7
		v22.1h6.3c2,0,3.5-0.2,4.4-0.6c0.9-0.4,1.7-1,2.4-1.9c0.6-0.8,1.1-1.8,1.5-3c0.4-1.3,0.7-2.5,0.8-3.6h2.9v21.7H119
		c-0.1-1.3-0.4-2.6-0.8-4c-0.5-1.4-0.9-2.4-1.4-3c-0.8-1-1.7-1.7-2.8-2c-1-0.3-2.4-0.5-4.1-0.5h-6.3v16.6c0,1.7,0.1,3,0.4,3.9
		c0.2,1,0.7,1.7,1.4,2.2c0.7,0.5,1.6,0.8,2.8,1c1.2,0.1,2.8,0.2,5,0.2c0.9,0,2,0,3.4,0c1.4,0,2.6-0.1,3.6-0.2c1-0.1,2-0.3,3.1-0.6
		c1.1-0.3,1.8-0.6,2.2-1.1c1.2-1.3,2.5-3.1,3.8-5.7c1.3-2.5,2.2-4.4,2.5-5.6H134.5z"/>
	<linearGradient id="SVGID_16_" gradientUnits="userSpaceOnUse" x1="138.1704" y1="278.6756" x2="192.2222" y2="278.6756">
		<stop  offset="0" style="stop-color:#DCFDED"/>
		<stop  offset="1" style="stop-color:#B7D4D4"/>
	</linearGradient>
	<path class="st15" d="M192.2,306.4h-14.9c-3.3-5.2-6.3-9.7-9-13.5c-2.7-3.8-5.6-7.7-8.7-11.7h-5.7v17.6c0,0.9,0.1,1.7,0.4,2.4
		c0.3,0.7,0.9,1.2,1.8,1.6c0.5,0.2,1.3,0.4,2.5,0.5c1.2,0.2,2.2,0.2,3,0.3v2.8h-23.5v-2.8c0.6-0.1,1.5-0.1,2.7-0.3
		c1.2-0.1,2-0.3,2.5-0.5c0.8-0.3,1.3-0.8,1.7-1.5c0.4-0.7,0.5-1.5,0.5-2.5v-40.1c0-0.9-0.1-1.7-0.4-2.4c-0.3-0.7-0.9-1.2-1.8-1.6
		c-0.7-0.2-1.5-0.4-2.5-0.6c-1-0.2-1.9-0.3-2.7-0.4v-2.8h25.6c2.3,0,4.6,0.2,6.6,0.7c2.1,0.5,3.9,1.3,5.6,2.3c1.6,1,2.9,2.4,3.9,4.1
		c1,1.7,1.4,3.7,1.4,6.1c0,2.1-0.3,4-1,5.7c-0.7,1.6-1.6,3.1-2.9,4.3c-1.2,1.1-2.6,2.1-4.2,2.9c-1.6,0.8-3.5,1.5-5.4,2.1
		c2.7,3.6,5,6.7,6.8,9.2c1.8,2.5,4,5.5,6.7,9c1.1,1.6,2.2,2.7,3.1,3.5c0.9,0.7,1.8,1.3,2.8,1.8c0.7,0.3,1.5,0.6,2.5,0.8
		c1,0.2,1.9,0.3,2.5,0.3V306.4z M171.6,265.1c0-3.4-1-6-2.9-8c-1.9-2-4.7-2.9-8.2-2.9h-6.6v23.8h5.1c3.6,0,6.6-1.2,9-3.5
		C170.4,272.2,171.6,269,171.6,265.1z"/>
	<linearGradient id="SVGID_17_" gradientUnits="userSpaceOnUse" x1="196.3729" y1="278.6756" x2="250.4248" y2="278.6756">
		<stop  offset="0" style="stop-color:#DCFDED"/>
		<stop  offset="1" style="stop-color:#B7D4D4"/>
	</linearGradient>
	<path class="st16" d="M250.4,306.4h-14.9c-3.3-5.2-6.3-9.7-9-13.5c-2.7-3.8-5.6-7.7-8.7-11.7h-5.7v17.6c0,0.9,0.1,1.7,0.4,2.4
		c0.3,0.7,0.9,1.2,1.8,1.6c0.5,0.2,1.3,0.4,2.5,0.5c1.2,0.2,2.2,0.2,3,0.3v2.8h-23.5v-2.8c0.6-0.1,1.5-0.1,2.7-0.3
		c1.2-0.1,2-0.3,2.5-0.5c0.8-0.3,1.3-0.8,1.7-1.5c0.4-0.7,0.5-1.5,0.5-2.5v-40.1c0-0.9-0.1-1.7-0.4-2.4c-0.3-0.7-0.9-1.2-1.8-1.6
		c-0.7-0.2-1.5-0.4-2.5-0.6c-1-0.2-1.9-0.3-2.7-0.4v-2.8H222c2.3,0,4.6,0.2,6.6,0.7c2.1,0.5,3.9,1.3,5.6,2.3c1.6,1,2.9,2.4,3.9,4.1
		c1,1.7,1.4,3.7,1.4,6.1c0,2.1-0.3,4-1,5.7c-0.7,1.6-1.6,3.1-2.9,4.3c-1.2,1.1-2.6,2.1-4.2,2.9c-1.6,0.8-3.5,1.5-5.4,2.1
		c2.7,3.6,5,6.7,6.8,9.2c1.8,2.5,4,5.5,6.7,9c1.1,1.6,2.2,2.7,3.1,3.5c0.9,0.7,1.8,1.3,2.8,1.8c0.7,0.3,1.5,0.6,2.5,0.8
		c1,0.2,1.9,0.3,2.5,0.3V306.4z M229.9,265.1c0-3.4-1-6-2.9-8c-1.9-2-4.7-2.9-8.2-2.9h-6.6v23.8h5.1c3.6,0,6.6-1.2,9-3.5
		C228.7,272.2,229.9,269,229.9,265.1z"/>
	<linearGradient id="SVGID_18_" gradientUnits="userSpaceOnUse" x1="255.1394" y1="278.2845" x2="312.3193" y2="278.2845">
		<stop  offset="0" style="stop-color:#DCFDED"/>
		<stop  offset="1" style="stop-color:#B7D4D4"/>
	</linearGradient>
	<path class="st17" d="M312.3,306.4h-23.1v-2.8c2-0.1,3.7-0.4,5.1-0.8c1.3-0.4,2-0.9,2-1.4c0-0.2,0-0.5-0.1-0.9
		c-0.1-0.3-0.1-0.6-0.2-0.9l-4.6-12.4h-19.5c-0.7,1.8-1.3,3.4-1.8,4.8c-0.5,1.4-0.9,2.6-1.2,3.8c-0.3,1.1-0.6,2-0.7,2.7
		c-0.1,0.7-0.2,1.3-0.2,1.7c0,1,0.8,1.9,2.5,2.4c1.6,0.6,3.5,0.9,5.6,1v2.8h-20.9v-2.8c0.7-0.1,1.5-0.2,2.5-0.4c1-0.2,1.9-0.6,2.5-1
		c1-0.7,1.9-1.4,2.4-2.2c0.6-0.8,1.1-1.8,1.7-3.2c2.8-7,5.9-14.8,9.2-23.5c3.4-8.7,6.4-16.4,9-23.2h3.1l18.5,47.9
		c0.4,1,0.8,1.8,1.3,2.5c0.5,0.6,1.2,1.2,2.1,1.8c0.6,0.4,1.4,0.7,2.3,0.9c1,0.2,1.8,0.4,2.4,0.4V306.4z M290,283.7l-8.4-21.5
		l-8.3,21.5H290z"/>
	<linearGradient id="SVGID_19_" gradientUnits="userSpaceOnUse" x1="349.479" y1="278.6756" x2="402.7873" y2="278.6756">
		<stop  offset="0" style="stop-color:#DCFDED"/>
		<stop  offset="1" style="stop-color:#B7D4D4"/>
	</linearGradient>
	<path class="st18" d="M402.8,279c0,4.7-0.9,8.8-2.7,12.3c-1.8,3.5-4.1,6.3-6.9,8.5c-2.9,2.2-6.1,3.9-9.7,5
		c-3.6,1.1-7.3,1.6-11.1,1.6h-23v-2.8c0.8,0,1.7-0.1,3-0.2c1.2-0.1,2-0.3,2.4-0.5c0.8-0.3,1.3-0.8,1.7-1.5c0.4-0.7,0.5-1.5,0.5-2.4
		v-40c0-0.9-0.2-1.7-0.5-2.4s-0.9-1.3-1.8-1.7c-0.8-0.4-1.7-0.7-2.6-0.9c-0.9-0.2-1.7-0.3-2.4-0.4v-2.8H374c3.3,0,6.6,0.5,9.9,1.5
		c3.2,1,6,2.4,8.4,4.2c3.3,2.3,5.8,5.4,7.7,9.1C401.9,269.5,402.8,273.9,402.8,279z M393.2,279c0-3.7-0.5-7.1-1.5-10.1
		c-1-3-2.4-5.6-4.3-7.9c-1.8-2.1-4-3.8-6.6-5c-2.6-1.2-5.5-1.8-8.7-1.8c-1.1,0-2.3,0-3.6,0.1c-1.3,0-2.3,0.1-3,0.1v42.6
		c0,2.4,0.7,4,2.1,4.9c1.4,0.9,3.5,1.4,6.4,1.4c3.3,0,6.2-0.6,8.7-1.8c2.5-1.2,4.5-2.8,6-4.9c1.6-2.2,2.8-4.7,3.5-7.6
		C392.8,286.1,393.2,282.8,393.2,279z"/>
	<linearGradient id="SVGID_20_" gradientUnits="userSpaceOnUse" x1="402.1629" y1="278.6756" x2="449.2924" y2="278.6756">
		<stop  offset="0" style="stop-color:#DCFDED"/>
		<stop  offset="1" style="stop-color:#B7D4D4"/>
	</linearGradient>
	<path class="st19" d="M449.3,290.1l-1.1,16.3h-46.1v-2.8c0.8-0.1,1.8-0.2,3.1-0.3c1.3-0.2,2.2-0.3,2.5-0.5c0.8-0.4,1.4-0.9,1.7-1.5
		c0.3-0.6,0.5-1.4,0.5-2.4V259c0-0.9-0.1-1.6-0.4-2.3c-0.3-0.7-0.9-1.2-1.8-1.6c-0.7-0.3-1.6-0.6-2.8-0.9c-1.2-0.3-2.1-0.4-2.8-0.5
		v-2.8h42.9v13.4h-2.9c-0.5-2-1.6-4.1-3.4-6.3c-1.7-2.2-3.4-3.4-4.9-3.7c-0.8-0.1-1.8-0.2-2.9-0.2c-1.1-0.1-2.4-0.1-3.8-0.1h-8.7
		v22.1h6.3c2,0,3.5-0.2,4.4-0.6c0.9-0.4,1.7-1,2.4-1.9c0.6-0.8,1.1-1.8,1.5-3c0.4-1.3,0.7-2.5,0.8-3.6h2.9v21.7h-2.9
		c-0.1-1.3-0.4-2.6-0.8-4c-0.5-1.4-0.9-2.4-1.4-3c-0.8-1-1.7-1.7-2.8-2c-1-0.3-2.4-0.5-4.1-0.5h-6.3v16.6c0,1.7,0.1,3,0.4,3.9
		c0.2,1,0.7,1.7,1.4,2.2c0.7,0.5,1.6,0.8,2.8,1c1.2,0.1,2.8,0.2,5,0.2c0.9,0,2,0,3.4,0c1.4,0,2.6-0.1,3.6-0.2c1-0.1,2-0.3,3.1-0.6
		c1.1-0.3,1.8-0.6,2.2-1.1c1.2-1.3,2.5-3.1,3.8-5.7c1.3-2.5,2.2-4.4,2.5-5.6H449.3z"/>
	<linearGradient id="SVGID_21_" gradientUnits="userSpaceOnUse" x1="452.9632" y1="278.6756" x2="497.5105" y2="278.6756">
		<stop  offset="0" style="stop-color:#DCFDED"/>
		<stop  offset="1" style="stop-color:#B7D4D4"/>
	</linearGradient>
	<path class="st20" d="M497.5,289.9l-1.2,16.5H453v-2.8c0.6-0.1,1.5-0.1,2.7-0.3c1.2-0.1,2-0.3,2.5-0.5c0.8-0.3,1.3-0.8,1.7-1.5
		c0.4-0.7,0.5-1.5,0.5-2.5v-39.7c0-0.9-0.2-1.7-0.5-2.3c-0.3-0.7-0.9-1.2-1.8-1.6c-0.6-0.3-1.4-0.6-2.5-0.9c-1.1-0.3-2-0.5-2.7-0.5
		v-2.8h23.4v2.8c-0.7,0-1.7,0.2-2.8,0.4s-2,0.4-2.5,0.6c-0.9,0.3-1.5,0.8-1.8,1.6c-0.3,0.8-0.5,1.6-0.5,2.4V296c0,1.7,0.1,3.1,0.3,4
		c0.2,1,0.6,1.7,1.2,2.2c0.6,0.5,1.5,0.8,2.7,0.9c1.2,0.1,2.8,0.2,5,0.2c1,0,2,0,3-0.1c1-0.1,2-0.2,3-0.3c0.9-0.2,1.8-0.4,2.5-0.6
		c0.8-0.3,1.3-0.6,1.7-1c1.1-1.2,2.3-3,3.7-5.5c1.4-2.4,2.4-4.4,3-5.9H497.5z"/>
	<linearGradient id="SVGID_22_" gradientUnits="userSpaceOnUse" x1="531.1564" y1="278.6756" x2="574.6877" y2="278.6756">
		<stop  offset="0" style="stop-color:#DCFDED"/>
		<stop  offset="1" style="stop-color:#B7D4D4"/>
	</linearGradient>
	<path class="st21" d="M574.7,264.8h-2.9c-0.5-2.1-1.7-4.3-3.4-6.6c-1.7-2.3-3.4-3.6-5-3.9c-0.8-0.1-1.8-0.2-2.9-0.2
		c-1.1-0.1-2.4-0.1-3.8-0.1h-9.3v22.3h6.4c1.9,0,3.4-0.2,4.5-0.6c1.1-0.4,2-1,2.7-1.9c0.5-0.6,1-1.5,1.4-2.7
		c0.4-1.2,0.7-2.5,0.8-3.9h2.9v21.8h-2.9c-0.1-1.1-0.3-2.5-0.8-3.9c-0.5-1.5-0.9-2.5-1.5-3.2c-0.8-1-1.8-1.6-3-2
		c-1.2-0.4-2.6-0.5-4.3-0.5h-6.4v19.1c0,0.9,0.2,1.6,0.5,2.3c0.3,0.7,0.9,1.2,1.8,1.6c0.4,0.2,1.2,0.4,2.5,0.7
		c1.3,0.3,2.3,0.4,3,0.4v2.8h-24.1v-2.8c0.8-0.1,1.8-0.1,3.1-0.3c1.3-0.1,2.2-0.3,2.5-0.4c0.8-0.3,1.3-0.8,1.7-1.5
		c0.4-0.7,0.5-1.5,0.5-2.4v-40c0-0.9-0.1-1.6-0.4-2.3c-0.3-0.7-0.9-1.2-1.8-1.6c-0.7-0.3-1.6-0.6-2.8-0.9c-1.2-0.3-2.1-0.4-2.8-0.5
		v-2.8h43.5V264.8z"/>
	<linearGradient id="SVGID_23_" gradientUnits="userSpaceOnUse" x1="580.6763" y1="279.3405" x2="637.7393" y2="279.3405">
		<stop  offset="0" style="stop-color:#DCFDED"/>
		<stop  offset="1" style="stop-color:#B7D4D4"/>
	</linearGradient>
	<path class="st22" d="M637.7,253.7c-0.7,0-1.8,0.2-3.2,0.5c-1.4,0.3-2.6,0.7-3.4,1.3c-0.9,0.6-1.5,1.8-1.8,3.7
		c-0.3,1.9-0.5,4.2-0.5,6.9v24.1c0,3.1-0.6,5.7-1.9,8c-1.3,2.3-3,4.1-5,5.6c-2.1,1.4-4.2,2.4-6.5,3c-2.3,0.6-4.5,0.9-6.6,0.9
		c-3.3,0-6.3-0.4-8.9-1.3c-2.6-0.9-4.8-2.1-6.6-3.5c-1.7-1.5-3.1-3.2-4-5.1c-0.9-1.9-1.3-3.9-1.3-6V259c0-0.9-0.2-1.7-0.4-2.3
		c-0.3-0.6-0.9-1.2-1.8-1.7c-0.7-0.4-1.5-0.7-2.5-0.9c-1-0.2-1.9-0.4-2.5-0.4v-2.8h23.1v2.8c-0.7,0-1.6,0.1-2.8,0.4
		c-1.1,0.2-1.9,0.4-2.4,0.6c-0.9,0.3-1.5,0.8-1.8,1.6c-0.3,0.7-0.4,1.5-0.4,2.4v30.6c0,1.5,0.2,3,0.5,4.7c0.3,1.6,1,3.1,1.9,4.6
		c1,1.4,2.4,2.6,4.1,3.5c1.7,0.9,4.1,1.4,7.2,1.4c2.9,0,5.3-0.5,7.2-1.4c1.9-0.9,3.5-2.1,4.6-3.6c1.1-1.4,1.8-2.9,2.3-4.4
		c0.4-1.5,0.7-3.1,0.7-4.7v-22.7c0-2.9-0.2-5.3-0.6-7.1c-0.4-1.8-1-3-1.8-3.6c-0.9-0.7-2.2-1.2-3.7-1.5c-1.6-0.4-2.8-0.6-3.6-0.6
		v-2.8h22.7V253.7z"/>
	<linearGradient id="SVGID_24_" gradientUnits="userSpaceOnUse" x1="642.7286" y1="278.6756" x2="689.8582" y2="278.6756">
		<stop  offset="0" style="stop-color:#DCFDED"/>
		<stop  offset="1" style="stop-color:#B7D4D4"/>
	</linearGradient>
	<path class="st23" d="M689.9,290.1l-1.1,16.3h-46.1v-2.8c0.8-0.1,1.8-0.2,3.1-0.3c1.3-0.2,2.2-0.3,2.5-0.5c0.8-0.4,1.4-0.9,1.7-1.5
		c0.3-0.6,0.5-1.4,0.5-2.4V259c0-0.9-0.1-1.6-0.4-2.3c-0.3-0.7-0.9-1.2-1.8-1.6c-0.7-0.3-1.6-0.6-2.8-0.9c-1.2-0.3-2.1-0.4-2.8-0.5
		v-2.8h42.9v13.4h-2.9c-0.5-2-1.6-4.1-3.4-6.3c-1.7-2.2-3.4-3.4-4.9-3.7c-0.8-0.1-1.8-0.2-2.9-0.2c-1.1-0.1-2.4-0.1-3.8-0.1H659
		v22.1h6.3c2,0,3.5-0.2,4.4-0.6c0.9-0.4,1.7-1,2.4-1.9c0.6-0.8,1.1-1.8,1.5-3c0.4-1.3,0.7-2.5,0.8-3.6h2.9v21.7h-2.9
		c-0.1-1.3-0.4-2.6-0.8-4c-0.5-1.4-0.9-2.4-1.4-3c-0.8-1-1.7-1.7-2.8-2c-1-0.3-2.4-0.5-4.1-0.5H659v16.6c0,1.7,0.1,3,0.4,3.9
		c0.2,1,0.7,1.7,1.4,2.2c0.7,0.5,1.6,0.8,2.8,1c1.2,0.1,2.8,0.2,5,0.2c0.9,0,2,0,3.4,0c1.4,0,2.6-0.1,3.6-0.2c1-0.1,2-0.3,3.1-0.6
		c1.1-0.3,1.8-0.6,2.2-1.1c1.2-1.3,2.5-3.1,3.8-5.7c1.3-2.5,2.2-4.4,2.5-5.6H689.9z"/>
	<linearGradient id="SVGID_25_" gradientUnits="userSpaceOnUse" x1="694.7466" y1="278.7344" x2="749.2292" y2="278.7344">
		<stop  offset="0" style="stop-color:#DCFDED"/>
		<stop  offset="1" style="stop-color:#B7D4D4"/>
	</linearGradient>
	<path class="st24" d="M749.2,284.3c-0.6,0.1-1.5,0.2-2.5,0.4c-1.1,0.2-1.9,0.4-2.6,0.7c-0.8,0.4-1.3,0.9-1.7,1.7
		c-0.3,0.7-0.5,1.6-0.5,2.5v4.3c0,3.1,0,5.2,0.1,6.3c0,1.1,0.1,2,0.1,2.7c-3.5,1.6-6.9,2.8-10.4,3.6c-3.4,0.8-6.8,1.3-10.1,1.3
		c-3.5,0-7-0.7-10.2-2c-3.3-1.3-6.2-3.2-8.6-5.7c-2.5-2.5-4.4-5.5-5.9-9c-1.5-3.5-2.2-7.5-2.2-11.9c0-4.2,0.7-8.1,2.1-11.8
		c1.4-3.6,3.4-6.8,5.9-9.4c2.5-2.6,5.4-4.6,8.9-6.1c3.4-1.4,7.1-2.2,11-2.2c3.1,0,5.9,0.4,8.2,1.1c2.3,0.8,4.4,1.7,6.1,2.7l1.6-2.7
		h3.1l0.4,19.4h-3.2c-0.5-2.1-1.2-4.2-2-6.3c-0.8-2.1-1.9-3.9-3.1-5.6c-1.3-1.6-2.8-3-4.7-3.9c-1.8-1-4-1.5-6.6-1.5
		c-2.8,0-5.3,0.6-7.5,1.7c-2.2,1.1-4.1,2.8-5.7,5.1c-1.6,2.2-2.8,4.9-3.7,8.1s-1.3,6.8-1.3,10.8c0,3.5,0.4,6.8,1.3,10
		c0.8,3.1,2.1,5.8,3.7,8.1c1.6,2.3,3.6,4.1,6.1,5.5c2.4,1.3,5.2,2,8.3,2c2.3,0,4.4-0.4,6.3-1.1c1.9-0.7,3.2-1.4,4-2.2
		c0.2-1.4,0.3-2.7,0.3-4.1c0-1.4,0-2.6,0-3.5v-3.1c0-1.1-0.2-2.1-0.5-2.9c-0.3-0.8-0.9-1.5-1.9-1.9c-0.9-0.4-2-0.7-3.5-0.9
		c-1.5-0.2-2.6-0.3-3.5-0.4v-2.9h24.3V284.3z"/>
	<linearGradient id="SVGID_26_" gradientUnits="userSpaceOnUse" x1="752.9056" y1="278.676" x2="806.2535" y2="278.676">
		<stop  offset="0" style="stop-color:#DCFDED"/>
		<stop  offset="1" style="stop-color:#B7D4D4"/>
	</linearGradient>
	<path class="st25" d="M798.4,257.5c2.5,2.6,4.4,5.6,5.7,9.3c1.4,3.6,2.1,7.6,2.1,12c0,4.4-0.7,8.4-2.1,12s-3.4,6.7-5.9,9.2
		c-2.4,2.5-5.2,4.4-8.4,5.8c-3.2,1.4-6.6,2-10.2,2c-3.9,0-7.4-0.7-10.7-2.2c-3.3-1.4-6.1-3.5-8.4-6c-2.3-2.5-4.2-5.6-5.5-9.2
		c-1.3-3.6-2-7.5-2-11.6c0-4.5,0.7-8.5,2.1-12.1s3.4-6.6,5.8-9.2c2.5-2.6,5.3-4.5,8.5-5.9c3.2-1.4,6.6-2,10.2-2
		c3.7,0,7.1,0.7,10.4,2.1C793.2,253.1,796.1,255,798.4,257.5z M792.6,296.8c1.5-2.4,2.5-5.1,3.2-8.1c0.7-3,1-6.3,1-10.1
		c0-3.8-0.4-7.3-1.1-10.5c-0.7-3.2-1.8-5.9-3.3-8.1c-1.4-2.2-3.2-3.9-5.4-5.2c-2.2-1.2-4.6-1.9-7.4-1.9c-3.1,0-5.8,0.7-8,2.2
		c-2.2,1.4-4,3.4-5.4,5.7c-1.3,2.3-2.3,5-2.9,8.1c-0.6,3.1-1,6.3-1,9.7c0,3.8,0.3,7.1,1,10.2c0.7,3,1.7,5.7,3.2,8.1
		c1.4,2.3,3.2,4.1,5.3,5.4c2.1,1.3,4.7,1.9,7.7,1.9c2.8,0,5.3-0.7,7.5-2C789.4,301,791.2,299.2,792.6,296.8z"/>
</g>
</svg>
