<?xml version="1.0" encoding="utf-8"?>
<!-- Generator: Adobe Illustrator 21.1.0, SVG Export Plug-In . SVG Version: 6.00 Build 0)  -->
<svg version="1.1" id="Layer_1" xmlns="http://www.w3.org/2000/svg" xmlns:xlink="http://www.w3.org/1999/xlink" x="0px" y="0px"
	 viewBox="0 0 576.3 669.6" style="enable-background:new 0 0 576.3 669.6;" xml:space="preserve">
<style type="text/css">
	.st0{fill:#646464;}
</style>
<path class="st0" d="M271.8,124.1h13.4c3.2,0,5.6,0.8,7.3,2.3s2.5,3.7,2.5,6.6c0,1.7-0.3,3.2-0.9,4.3c-0.6,1.2-1.6,2.1-2.9,2.9
	c1.3,0.2,2.4,0.6,3.3,1.1s1.6,1.1,2.2,1.9c0.6,0.7,1,1.6,1.2,2.5s0.4,1.9,0.4,2.9c0,1.6-0.3,3.1-0.9,4.3c-0.6,1.3-1.4,2.3-2.4,3.2
	s-2.3,1.5-3.7,1.9c-1.5,0.4-3.1,0.6-5,0.6h-14.5V124.1z M280.8,137.7h1.7c2.8,0,4.2-1.1,4.2-3.4s-1.4-3.4-4.2-3.4h-1.7V137.7z
	 M280.8,151.8h2c2.3,0,3.9-0.3,4.9-0.9c1-0.6,1.5-1.5,1.5-2.8s-0.5-2.2-1.5-2.8s-2.6-0.9-4.9-0.9h-2V151.8z"/>
</svg>
