<?xml version="1.0" encoding="utf-8"?>
<!-- Generator: Adobe Illustrator 21.1.0, SVG Export Plug-In . SVG Version: 6.00 Build 0)  -->
<svg version="1.1" id="Layer_1" xmlns="http://www.w3.org/2000/svg" xmlns:xlink="http://www.w3.org/1999/xlink" x="0px" y="0px"
	 viewBox="0 0 576.3 669.6" style="enable-background:new 0 0 576.3 669.6;" xml:space="preserve">
<style type="text/css">
	.st0{fill:#646464;}
</style>
<path class="st0" d="M299.4,243.8h-11.2l-8.6-13.3v13.3h-9v-34.7h14c1.9,0,3.6,0.3,5.1,0.9s2.6,1.3,3.6,2.3c0.9,1,1.6,2.1,2.1,3.4
	c0.5,1.3,0.7,2.7,0.7,4.1c0,2.6-0.6,4.8-1.9,6.4s-3.2,2.8-5.6,3.3L299.4,243.8z M279.6,224.6h1.7c1.8,0,3.1-0.4,4.1-1.1
	c1-0.7,1.4-1.8,1.4-3.2s-0.5-2.4-1.4-3.2c-1-0.7-2.3-1.1-4.1-1.1h-1.7V224.6z"/>
</svg>
