<?xml version="1.0" encoding="utf-8"?>
<!-- Generator: Adobe Illustrator 21.1.0, SVG Export Plug-In . SVG Version: 6.00 Build 0)  -->
<svg version="1.1" id="Layer_1" xmlns="http://www.w3.org/2000/svg" xmlns:xlink="http://www.w3.org/1999/xlink" x="0px" y="0px"
	 viewBox="0 0 576.3 669.6" style="enable-background:new 0 0 576.3 669.6;" xml:space="preserve">
<style type="text/css">
	.st0{fill:#646464;}
</style>
<path class="st0" d="M359.6,305.7c-2.1-2.5-4.7-3.8-7.7-3.8c-1.3,0-2.6,0.2-3.7,0.7s-2.1,1.2-3,2c-0.8,0.8-1.5,1.8-2,3
	s-0.7,2.4-0.7,3.8s0.2,2.7,0.7,3.8c0.5,1.2,1.1,2.2,2,3c0.8,0.9,1.8,1.5,3,2c1.1,0.5,2.4,0.7,3.7,0.7c2.9,0,5.5-1.2,7.8-3.7V328
	l-0.9,0.3c-1.4,0.5-2.7,0.9-3.9,1.1c-1.2,0.2-2.4,0.3-3.5,0.3c-2.4,0-4.7-0.5-6.9-1.4c-2.2-0.9-4.1-2.2-5.8-3.8
	c-1.7-1.6-3-3.6-4-5.8s-1.5-4.7-1.5-7.4s0.5-5.1,1.5-7.3c1-2.2,2.3-4.1,4-5.8c1.7-1.6,3.6-2.9,5.8-3.8c2.2-0.9,4.5-1.4,6.9-1.4
	c1.4,0,2.7,0.1,4.1,0.4c1.3,0.3,2.7,0.7,4.2,1.4v10.9H359.6z"/>
</svg>
