<?xml version="1.0" encoding="utf-8"?>
<!-- Generator: Adobe Illustrator 21.1.0, SVG Export Plug-In . SVG Version: 6.00 Build 0)  -->
<svg version="1.1" id="Layer_1" xmlns="http://www.w3.org/2000/svg" xmlns:xlink="http://www.w3.org/1999/xlink" x="0px" y="0px"
	 viewBox="0 0 576.3 669.6" style="enable-background:new 0 0 576.3 669.6;" xml:space="preserve">
<style type="text/css">
	.st0{fill:#646464;}
</style>
<path class="st0" d="M265.8,396.4c0-2.6,0.5-5,1.4-7.2c1-2.2,2.3-4.2,4-5.8c1.7-1.7,3.7-3,6-3.9s4.9-1.4,7.8-1.4
	c2.8,0,5.4,0.5,7.7,1.4c2.4,0.9,4.4,2.2,6.1,3.9c1.7,1.7,3,3.6,4,5.8c1,2.2,1.4,4.6,1.4,7.2s-0.5,5-1.4,7.2s-2.3,4.2-4,5.8
	s-3.7,3-6.1,3.9s-4.9,1.4-7.7,1.4c-2.8,0-5.4-0.5-7.8-1.4c-2.3-0.9-4.4-2.2-6-3.9c-1.7-1.7-3-3.6-4-5.8
	C266.3,401.4,265.8,399,265.8,396.4z M275.2,396.4c0,1.4,0.3,2.7,0.8,3.8c0.5,1.2,1.2,2.2,2.1,3c0.9,0.9,1.9,1.5,3.1,2
	s2.4,0.7,3.7,0.7c1.3,0,2.6-0.2,3.7-0.7c1.2-0.5,2.2-1.1,3.1-2s1.6-1.9,2.1-3c0.5-1.2,0.8-2.4,0.8-3.8s-0.3-2.7-0.8-3.8
	c-0.5-1.2-1.2-2.2-2.1-3c-0.9-0.9-1.9-1.5-3.1-2s-2.4-0.7-3.7-0.7c-1.3,0-2.6,0.2-3.7,0.7c-1.2,0.5-2.2,1.1-3.1,2s-1.6,1.9-2.1,3
	C275.5,393.8,275.2,395.1,275.2,396.4z M293.3,370.3l-8.8,6.1l-3.5-3.3l7.5-7.2L293.3,370.3z"/>
</svg>
