<?xml version="1.0" encoding="utf-8"?>
<!-- Generator: Adobe Illustrator 21.1.0, SVG Export Plug-In . SVG Version: 6.00 Build 0)  -->
<svg version="1.1" id="Layer_1" xmlns="http://www.w3.org/2000/svg" xmlns:xlink="http://www.w3.org/1999/xlink" x="0px" y="0px"
	 viewBox="0 0 576.3 669.6" style="enable-background:new 0 0 576.3 669.6;" xml:space="preserve">
<style type="text/css">
	.st0{fill:#646464;}
</style>
<path class="st0" d="M278.9,464.1V483c0,1,0,2,0.1,3.1s0.3,2,0.7,2.9c0.4,0.9,1,1.6,1.8,2.1s2,0.8,3.5,0.8s2.7-0.3,3.5-0.8
	s1.4-1.2,1.8-2.1s0.6-1.8,0.7-2.9s0.1-2.1,0.1-3.1v-18.9h9v20.1c0,5.4-1.2,9.3-3.7,11.8s-6.3,3.7-11.4,3.7s-8.9-1.2-11.4-3.7
	s-3.7-6.4-3.7-11.8v-20.1H278.9z"/>
</svg>
