<?xml version="1.0" encoding="utf-8"?>
<!-- Generator: Adobe Illustrator 23.0.0, SVG Export Plug-In . SVG Version: 6.00 Build 0)  -->
<svg version="1.1" id="Layer_1" xmlns="http://www.w3.org/2000/svg" xmlns:xlink="http://www.w3.org/1999/xlink" x="0px" y="0px"
	 viewBox="0 0 410.7 534.7" style="enable-background:new 0 0 410.7 534.7;" xml:space="preserve">
<style type="text/css">
	.st0{fill:url(#SVGID_1_);}
	.st1{fill:#FF0000;}
	.st2{fill:none;}
	.st3{fill:#E3D7C4;}
</style>
<g>
	
		<linearGradient id="SVGID_1_" gradientUnits="userSpaceOnUse" x1="70.9339" y1="152.6612" x2="387.2745" y2="406.7184" gradientTransform="matrix(1 0 0 -1 0 536)">
		<stop  offset="0" style="stop-color:#FD0000;stop-opacity:0"/>
		<stop  offset="0.5259" style="stop-color:#25003F"/>
		<stop  offset="0.9106" style="stop-color:#25003F"/>
	</linearGradient>
	<polygon class="st0" points="205.2,25 205.2,526 371.7,325 	"/>
</g>
<g>
	<g>
		<g>
			<rect x="166.5" y="395" class="st1" width="214" height="4"/>
		</g>
		<g>
			<line class="st2" x1="166.5" y1="397" x2="380.5" y2="397"/>
		</g>
	</g>
</g>
<g>
	<g>
		<path class="st3" d="M85.3,108.7H72.4l-2.1,6h-9.6L73.9,80h9.8L97,114.7h-9.6L85.3,108.7z M82.9,101.8l-4.1-11.6l-4.1,11.6H82.9z"
			/>
	</g>
	<g>
		<path class="st3" d="M194.7,80h13.4c3.2,0,5.6,0.8,7.3,2.3s2.5,3.7,2.5,6.6c0,1.8-0.3,3.2-0.9,4.3c-0.6,1.2-1.6,2.1-2.9,2.9
			c1.3,0.2,2.4,0.6,3.3,1.1c0.9,0.5,1.6,1.1,2.2,1.9c0.6,0.7,1,1.6,1.2,2.5c0.2,0.9,0.4,1.9,0.4,2.9c0,1.6-0.3,3.1-0.9,4.3
			c-0.6,1.3-1.4,2.3-2.4,3.2c-1,0.9-2.3,1.5-3.8,1.9s-3.1,0.6-5,0.6h-14.5L194.7,80L194.7,80z M203.7,93.6h1.7
			c2.8,0,4.2-1.1,4.2-3.4s-1.4-3.4-4.2-3.4h-1.7V93.6z M203.7,107.7h2c2.3,0,3.9-0.3,4.9-0.9c1-0.6,1.5-1.5,1.5-2.8
			s-0.5-2.2-1.5-2.8c-1-0.6-2.6-0.9-4.9-0.9h-2V107.7z"/>
	</g>
	<g>
		<path class="st3" d="M339.6,88.9c-1-0.8-2-1.4-2.9-1.8s-1.9-0.6-2.9-0.6c-1.2,0-2.1,0.3-2.9,0.8c-0.7,0.6-1.1,1.3-1.1,2.2
			c0,0.6,0.2,1.1,0.5,1.5c0.4,0.4,0.9,0.7,1.5,1s1.3,0.5,2,0.8c0.8,0.2,1.5,0.4,2.2,0.7c2.9,1,5.1,2.3,6.5,3.9s2,3.8,2,6.4
			c0,1.8-0.3,3.4-0.9,4.8s-1.5,2.7-2.6,3.7c-1.1,1-2.6,1.8-4.2,2.4c-1.7,0.6-3.6,0.8-5.7,0.8c-4.4,0-8.5-1.3-12.2-3.9l3.9-7.3
			c1.4,1.2,2.7,2.1,4,2.7s2.6,0.9,3.9,0.9c1.5,0,2.6-0.3,3.3-1s1.1-1.4,1.1-2.3c0-0.5-0.1-1-0.3-1.4c-0.2-0.4-0.5-0.7-0.9-1.1
			c-0.4-0.3-1-0.6-1.7-0.9s-1.5-0.6-2.5-0.9c-1.2-0.4-2.3-0.8-3.4-1.2c-1.1-0.4-2.1-1-3-1.8s-1.6-1.7-2.1-2.8
			c-0.5-1.1-0.8-2.5-0.8-4.2c0-1.7,0.3-3.3,0.9-4.7c0.6-1.4,1.4-2.6,2.4-3.6c1-1,2.3-1.8,3.8-2.3s3.1-0.8,5-0.8
			c1.7,0,3.5,0.2,5.4,0.7c1.9,0.5,3.7,1.2,5.4,2.1L339.6,88.9z"/>
	</g>
	<g>
		<path class="st3" d="M83.3,172.7v27.1h-9v-27.1h-7.4V165h23.8v7.6H83.3z"/>
	</g>
	<g>
		<path class="st3" d="M222.3,199.7h-11.2l-8.6-13.3v13.3h-9V165h14c1.9,0,3.6,0.3,5.1,0.9s2.6,1.3,3.6,2.3c0.9,1,1.6,2.1,2.1,3.4
			c0.5,1.3,0.7,2.7,0.7,4.1c0,2.6-0.6,4.8-1.9,6.4s-3.1,2.8-5.6,3.3L222.3,199.7z M202.5,180.5h1.7c1.8,0,3.1-0.4,4.1-1.1
			c0.9-0.7,1.4-1.8,1.4-3.2s-0.5-2.4-1.4-3.2c-0.9-0.7-2.3-1.1-4.1-1.1h-1.7V180.5z"/>
	</g>
	<g>
		<path class="st3" d="M338.3,193.7h-12.9l-2.1,6h-9.6l13.2-34.7h9.8l13.2,34.7h-9.6L338.3,193.7z M335.9,186.8l-4-11.6l-4,11.6
			H335.9z"/>
	</g>
	<g>
		<path class="st3" d="M159.8,261.6c-2.1-2.5-4.7-3.8-7.7-3.8c-1.4,0-2.6,0.2-3.8,0.7s-2.1,1.2-3,2s-1.5,1.9-2,3
			c-0.5,1.2-0.7,2.4-0.7,3.8c0,1.4,0.2,2.6,0.7,3.8c0.5,1.2,1.1,2.2,2,3c0.8,0.9,1.8,1.5,3,2c1.1,0.5,2.4,0.7,3.7,0.7
			c2.9,0,5.5-1.2,7.8-3.7v10.7l-0.9,0.3c-1.4,0.5-2.7,0.9-3.9,1.1c-1.2,0.2-2.4,0.3-3.5,0.3c-2.4,0-4.7-0.5-6.9-1.4
			c-2.2-0.9-4.1-2.2-5.8-3.8c-1.7-1.6-3-3.6-4-5.8s-1.5-4.7-1.5-7.4s0.5-5.1,1.5-7.3c1-2.2,2.3-4.1,4-5.8s3.6-2.9,5.8-3.8
			c2.2-0.9,4.5-1.4,6.9-1.4c1.4,0,2.7,0.1,4.1,0.4c1.3,0.3,2.7,0.7,4.2,1.4L159.8,261.6L159.8,261.6z"/>
	</g>
	<g>
		<path class="st3" d="M282.5,261.6c-2.1-2.5-4.7-3.8-7.7-3.8c-1.4,0-2.6,0.2-3.8,0.7s-2.1,1.2-3,2s-1.5,1.9-2,3
			c-0.5,1.2-0.7,2.4-0.7,3.8c0,1.4,0.2,2.6,0.7,3.8c0.5,1.2,1.1,2.2,2,3c0.8,0.9,1.8,1.5,3,2c1.1,0.5,2.4,0.7,3.7,0.7
			c2.9,0,5.5-1.2,7.8-3.7v10.7l-0.9,0.3c-1.4,0.5-2.7,0.9-3.9,1.1c-1.2,0.2-2.4,0.3-3.5,0.3c-2.4,0-4.7-0.5-6.9-1.4
			c-2.2-0.9-4.1-2.2-5.8-3.8c-1.7-1.6-3-3.6-4-5.8s-1.5-4.7-1.5-7.4s0.5-5.1,1.5-7.3c1-2.2,2.3-4.1,4-5.8s3.6-2.9,5.8-3.8
			c2.2-0.9,4.5-1.4,7-1.4c1.4,0,2.7,0.1,4.1,0.4c1.3,0.3,2.7,0.7,4.2,1.4L282.5,261.6L282.5,261.6z"/>
	</g>
	<g>
		<path class="st3" d="M83.3,335v34.7h-9V335H83.3z"/>
	</g>
	<g>
		<path class="st3" d="M188.7,352.4c0-2.6,0.5-5,1.4-7.2c0.9-2.2,2.3-4.2,4-5.8s3.7-3,6.1-3.9c2.4-0.9,4.9-1.4,7.8-1.4
			c2.8,0,5.4,0.5,7.7,1.4c2.4,0.9,4.4,2.2,6.1,3.9s3,3.6,4,5.8s1.4,4.6,1.4,7.2s-0.5,5-1.4,7.2s-2.3,4.2-4,5.8s-3.7,3-6.1,3.9
			c-2.4,0.9-4.9,1.4-7.7,1.4c-2.8,0-5.4-0.5-7.8-1.4c-2.4-0.9-4.4-2.2-6.1-3.9s-3-3.6-4-5.8C189.2,357.3,188.7,354.9,188.7,352.4z
			 M198.1,352.4c0,1.4,0.3,2.6,0.8,3.8s1.2,2.2,2.1,3c0.9,0.9,1.9,1.5,3.1,2c1.2,0.5,2.4,0.7,3.8,0.7s2.6-0.2,3.8-0.7s2.2-1.1,3.1-2
			c0.9-0.9,1.6-1.9,2.1-3s0.8-2.4,0.8-3.8s-0.3-2.6-0.8-3.8s-1.2-2.2-2.1-3c-0.9-0.9-1.9-1.5-3.1-2c-1.2-0.5-2.4-0.7-3.8-0.7
			s-2.6,0.2-3.8,0.7c-1.2,0.5-2.2,1.1-3.1,2c-0.9,0.9-1.6,1.9-2.1,3S198.1,351,198.1,352.4z M216.1,326.2l-8.8,6.1l-3.5-3.3l7.5-7.2
			L216.1,326.2z"/>
	</g>
	<g>
		<path class="st3" d="M314.5,369.7V335h9l16.6,21.2V335h9v34.7h-9l-16.6-21.2v21.2H314.5z"/>
	</g>
	<g>
		<path class="st3" d="M86.6,428.9c-1-0.8-2-1.4-2.9-1.8c-1-0.4-1.9-0.6-2.8-0.6c-1.2,0-2.1,0.3-2.8,0.8c-0.7,0.5-1.1,1.3-1.1,2.2
			c0,0.6,0.2,1.1,0.6,1.5s0.8,0.7,1.4,1s1.3,0.5,2,0.8c0.8,0.2,1.5,0.4,2.2,0.7c2.9,1,5.1,2.3,6.5,3.9s2.1,3.8,2.1,6.4
			c0,1.8-0.3,3.4-0.9,4.8c-0.6,1.4-1.5,2.7-2.6,3.7c-1.2,1-2.6,1.8-4.2,2.4c-1.7,0.6-3.6,0.9-5.7,0.9c-4.4,0-8.4-1.3-12.2-3.9
			l3.9-7.3c1.3,1.2,2.7,2.1,4,2.7c1.3,0.6,2.6,0.9,3.9,0.9c1.5,0,2.6-0.3,3.3-1s1.1-1.4,1.1-2.3c0-0.5-0.1-1-0.3-1.4
			c-0.2-0.4-0.5-0.7-0.9-1.1s-1-0.6-1.7-0.9s-1.5-0.6-2.5-0.9c-1.2-0.4-2.3-0.8-3.4-1.2c-1.1-0.4-2.1-1-3-1.8s-1.6-1.7-2.1-2.8
			s-0.8-2.5-0.8-4.2c0-1.7,0.3-3.3,0.8-4.7c0.6-1.4,1.4-2.6,2.4-3.6s2.3-1.8,3.8-2.3c1.5-0.5,3.2-0.8,5-0.8c1.7,0,3.5,0.2,5.4,0.7
			c1.9,0.5,3.7,1.2,5.4,2.1L86.6,428.9z"/>
	</g>
	<g>
		<path class="st3" d="M201.8,420v18.9c0,1,0,2,0.1,3.1c0.1,1.1,0.3,2,0.7,2.9c0.4,0.9,1,1.6,1.8,2.1c0.8,0.5,2,0.8,3.5,0.8
			s2.7-0.3,3.5-0.8c0.8-0.5,1.4-1.2,1.8-2.1s0.6-1.8,0.7-2.9c0.1-1.1,0.1-2.1,0.1-3.1V420h9v20.1c0,5.4-1.2,9.3-3.7,11.8
			c-2.5,2.5-6.3,3.7-11.4,3.7s-8.9-1.2-11.4-3.7c-2.5-2.5-3.7-6.4-3.7-11.8V420L201.8,420L201.8,420z"/>
	</g>
	<g>
		<path class="st3" d="M346.2,454.7H335l-8.6-13.3v13.3h-9V420h14c1.9,0,3.6,0.3,5.1,0.9s2.6,1.3,3.6,2.3c0.9,1,1.6,2.1,2.1,3.4
			c0.5,1.3,0.7,2.7,0.7,4.1c0,2.6-0.6,4.8-1.9,6.4s-3.1,2.8-5.6,3.3L346.2,454.7z M326.4,435.5h1.7c1.8,0,3.1-0.4,4.1-1.1
			c1-0.7,1.4-1.8,1.4-3.2s-0.5-2.4-1.4-3.2c-1-0.7-2.3-1.1-4.1-1.1h-1.7V435.5z"/>
	</g>
</g>
</svg>
