<?xml version="1.0" encoding="utf-8"?>
<!-- Generator: Adobe Illustrator 21.1.0, SVG Export Plug-In . SVG Version: 6.00 Build 0)  -->
<svg version="1.1" id="Layer_1" xmlns="http://www.w3.org/2000/svg" xmlns:xlink="http://www.w3.org/1999/xlink" x="0px" y="0px"
	 viewBox="0 0 85.8 81.6" style="enable-background:new 0 0 85.8 81.6;" xml:space="preserve">
<style type="text/css">
	.st0{fill:#FFFFFF;}
</style>
<g>
	<path class="st0" d="M43,79C22,79,5,62,5,41S22,3,43,3s38,17,38,38C81,62,64,79,43,79z"/>
	<path d="M43,6c19.3,0,35,15.7,35,35c0,19.3-15.7,35-35,35C23.7,76,8,60.3,8,41C8,21.7,23.7,6,43,6 M43,0L43,0C20.4,0,2,18.4,2,41v0
		c0,22.6,18.4,41,41,41h0c22.6,0,41-18.4,41-41v0C84,18.4,65.6,0,43,0L43,0z"/>
</g>
</svg>
