<?xml version="1.0" encoding="utf-8"?>
<!-- Generator: Adobe Illustrator 23.0.0, SVG Export Plug-In . SVG Version: 6.00 Build 0)  -->
<svg version="1.1" id="Layer_1" xmlns="http://www.w3.org/2000/svg" xmlns:xlink="http://www.w3.org/1999/xlink" x="0px" y="0px"
	 viewBox="0 0 70.7 36" style="enable-background:new 0 0 70.7 36;" xml:space="preserve">
<style type="text/css">
	.st0{fill:#646464;}
</style>
<g>
	<path class="st0" d="M13.9,13.3c-0.5-0.4-1.2-0.8-1.7-1c-0.5-0.3-1-0.3-1.6-0.3c-0.7,0-1.2,0.1-1.6,0.5c-0.4,0.3-0.6,0.8-0.6,1.2
		s0.1,0.6,0.3,0.9C9,14.9,9.3,15,9.5,15.1c0.4,0.1,0.8,0.3,1.2,0.4c0.4,0.1,0.8,0.3,1.3,0.4c1.7,0.5,2.9,1.3,3.6,2.2
		c0.8,0.9,1.2,2.1,1.2,3.6c0,1-0.1,1.9-0.5,2.7c-0.4,0.8-0.8,1.6-1.4,2.1c-0.7,0.5-1.4,1-2.3,1.3c-0.9,0.3-1.9,0.5-3.2,0.5
		c-2.5,0-4.8-0.8-6.9-2.2L4.6,22c0.8,0.6,1.6,1.2,2.2,1.6C7.6,24,8.2,24.1,9,24.1c0.8,0,1.4-0.1,1.8-0.5c0.4-0.4,0.7-0.8,0.7-1.3
		c0-0.3,0-0.5-0.1-0.8c-0.1-0.3-0.3-0.4-0.5-0.6c-0.3-0.1-0.5-0.4-0.9-0.5C9.5,20.2,9,20,8.5,19.8c-0.6-0.3-1.3-0.4-1.9-0.6
		c-0.6-0.3-1.2-0.6-1.7-1s-0.9-0.9-1.2-1.6c-0.3-0.7-0.5-1.4-0.5-2.5c0-0.9,0.1-1.8,0.5-2.6c0.3-0.8,0.8-1.4,1.3-2.1
		c0.5-0.5,1.3-1,2.1-1.3c0.8-0.3,1.8-0.5,2.9-0.5c0.9,0,2,0.1,3,0.4s2.1,0.7,3,1.2L13.9,13.3z"/>
	<path class="st0" d="M27.5,8.3v10.7c0,0.5,0,1.2,0,1.8c0,0.7,0.1,1.2,0.4,1.6c0.3,0.5,0.5,0.9,1,1.2c0.5,0.3,1.2,0.5,2,0.5
		c0.8,0,1.6-0.1,2-0.5c0.5-0.3,0.8-0.6,1-1.2c0.3-0.5,0.4-1,0.4-1.6c0-0.6,0.1-1.2,0.1-1.8V8.3h5.1v11.3c0,3-0.6,5.3-2.1,6.6
		c-1.4,1.4-3.5,2.1-6.5,2.1c-3,0-5.1-0.6-6.5-2.1c-1.4-1.4-2.1-3.6-2.1-6.6V8.3C22.3,8.3,27.5,8.3,27.5,8.3z"/>
	<path class="st0" d="M62.3,27.9h-6.4l-4.8-7.5v7.5H46V8.3H54c1,0,2.1,0.1,2.9,0.5c0.8,0.3,1.4,0.8,2,1.3s0.9,1.2,1.2,2
		c0.3,0.8,0.4,1.6,0.4,2.3c0,1.4-0.4,2.7-1,3.6c-0.8,0.9-1.8,1.6-3.2,1.8L62.3,27.9z M51.1,17.1H52c1,0,1.8-0.3,2.3-0.6
		c0.5-0.4,0.8-1,0.8-1.8s-0.3-1.4-0.8-1.8c-0.5-0.4-1.3-0.6-2.3-0.6h-0.9V17.1z"/>
</g>
</svg>
