<?xml version="1.0" encoding="utf-8"?>
<!-- Generator: Adobe Illustrator 21.1.0, SVG Export Plug-In . SVG Version: 6.00 Build 0)  -->
<svg version="1.1" id="Layer_1" xmlns="http://www.w3.org/2000/svg" xmlns:xlink="http://www.w3.org/1999/xlink" x="0px" y="0px"
	 viewBox="0 0 269.1 57.7" style="enable-background:new 0 0 269.1 57.7;" xml:space="preserve">
<style type="text/css">
	.st0{fill:#FFFFFF;}
	.st1{fill:#FF0000;}
</style>
<g>
	<path class="st0" d="M45.8,36.7h-5.6l-0.9,2.6h-4.2l5.7-15.1h4.3l5.7,15.1h-4.2L45.8,36.7z M44.7,33.7l-1.8-5l-1.8,5H44.7z"/>
	<path class="st0" d="M54.5,24.2h5.8c1.4,0,2.4,0.3,3.2,1c0.7,0.7,1.1,1.6,1.1,2.9c0,0.8-0.1,1.4-0.4,1.9c-0.3,0.5-0.7,0.9-1.3,1.3
		c0.6,0.1,1,0.3,1.4,0.5c0.4,0.2,0.7,0.5,1,0.8c0.2,0.3,0.4,0.7,0.5,1.1S66,34.5,66,35c0,0.7-0.1,1.3-0.4,1.9s-0.6,1-1,1.4
		s-1,0.7-1.6,0.8s-1.4,0.3-2.2,0.3h-6.3C54.5,39.4,54.5,24.2,54.5,24.2z M58.4,30.2h0.7c1.2,0,1.8-0.5,1.8-1.5s-0.6-1.5-1.8-1.5
		h-0.7V30.2z M58.4,36.3h0.9c1,0,1.7-0.1,2.1-0.4c0.4-0.3,0.6-0.7,0.6-1.2c0-0.6-0.2-1-0.6-1.2c-0.4-0.3-1.1-0.4-2.1-0.4h-0.9V36.3z
		"/>
	<path class="st0" d="M78.5,28.1c-0.4-0.3-0.9-0.6-1.3-0.8s-0.8-0.2-1.2-0.2c-0.5,0-0.9,0.1-1.2,0.4c-0.3,0.2-0.5,0.6-0.5,0.9
		s0.1,0.5,0.2,0.7c0.2,0.2,0.4,0.3,0.6,0.5s0.6,0.2,0.9,0.3c0.3,0.1,0.6,0.2,1,0.3c1.3,0.4,2.2,1,2.8,1.7c0.6,0.7,0.9,1.6,0.9,2.8
		c0,0.8-0.1,1.5-0.4,2.1s-0.6,1.2-1.1,1.6c-0.5,0.4-1.1,0.8-1.8,1c-0.7,0.2-1.5,0.4-2.5,0.4c-1.9,0-3.7-0.6-5.3-1.7l1.7-3.2
		c0.6,0.5,1.2,0.9,1.7,1.2c0.6,0.3,1.1,0.4,1.7,0.4s1.1-0.1,1.4-0.4c0.3-0.3,0.5-0.6,0.5-1c0-0.2,0-0.4-0.1-0.6
		c-0.1-0.2-0.2-0.3-0.4-0.5c-0.2-0.1-0.4-0.3-0.7-0.4s-0.7-0.3-1.1-0.4c-0.5-0.2-1-0.3-1.5-0.5s-0.9-0.5-1.3-0.8s-0.7-0.7-0.9-1.2
		c-0.2-0.5-0.4-1.1-0.4-1.8s0.1-1.4,0.4-2c0.2-0.6,0.6-1.1,1-1.6c0.4-0.4,1-0.8,1.6-1s1.4-0.4,2.2-0.4c0.7,0,1.5,0.1,2.3,0.3
		c0.8,0.2,1.6,0.5,2.3,0.9L78.5,28.1z"/>
	<path class="st0" d="M90.9,27.6v11.8H87V27.6h-3.2v-3.3h10.4v3.3H90.9z"/>
	<path class="st0" d="M110.3,39.3h-4.9l-3.7-5.8v5.8h-3.9V24.2h6.1c0.8,0,1.6,0.1,2.2,0.4s1.1,0.6,1.5,1s0.7,0.9,0.9,1.5
		c0.2,0.6,0.3,1.2,0.3,1.8c0,1.1-0.3,2.1-0.8,2.8c-0.6,0.7-1.4,1.2-2.5,1.4L110.3,39.3z M101.6,31h0.7c0.8,0,1.4-0.2,1.8-0.5
		s0.6-0.8,0.6-1.4s-0.2-1.1-0.6-1.4s-1-0.5-1.8-0.5h-0.7V31z"/>
	<path class="st0" d="M123,36.7h-5.6l-0.9,2.6h-4.2l5.7-15.1h4.3l5.7,15.1h-4.2L123,36.7z M122,33.7l-1.8-5l-1.8,5H122z"/>
	<path class="st0" d="M142,29.3c-0.9-1.1-2-1.7-3.4-1.7c-0.6,0-1.1,0.1-1.6,0.3c-0.5,0.2-0.9,0.5-1.3,0.9c-0.4,0.4-0.6,0.8-0.9,1.3
		c-0.2,0.5-0.3,1.1-0.3,1.6c0,0.6,0.1,1.2,0.3,1.7s0.5,0.9,0.9,1.3c0.4,0.4,0.8,0.7,1.3,0.9s1,0.3,1.6,0.3c1.3,0,2.4-0.5,3.4-1.6V39
		l-0.4,0.1c-0.6,0.2-1.2,0.4-1.7,0.5s-1,0.2-1.5,0.2c-1,0-2-0.2-3-0.6c-1-0.4-1.8-0.9-2.5-1.7s-1.3-1.6-1.8-2.5
		c-0.4-1-0.7-2-0.7-3.2s0.2-2.2,0.6-3.2c0.4-1,1-1.8,1.7-2.5s1.6-1.2,2.5-1.6s2-0.6,3-0.6c0.6,0,1.2,0.1,1.8,0.2s1.2,0.3,1.8,0.6
		v4.6H142z"/>
	<path class="st0" d="M157.3,29.3c-0.9-1.1-2-1.7-3.4-1.7c-0.6,0-1.1,0.1-1.6,0.3c-0.5,0.2-0.9,0.5-1.3,0.9
		c-0.4,0.4-0.6,0.8-0.9,1.3c-0.2,0.5-0.3,1.1-0.3,1.6c0,0.6,0.1,1.2,0.3,1.7s0.5,0.9,0.9,1.3c0.4,0.4,0.8,0.7,1.3,0.9s1,0.3,1.6,0.3
		c1.3,0,2.4-0.5,3.4-1.6V39l-0.4,0.1c-0.6,0.2-1.2,0.4-1.7,0.5s-1,0.2-1.5,0.2c-1,0-2-0.2-3-0.6c-1-0.4-1.8-0.9-2.5-1.7
		s-1.3-1.6-1.8-2.5c-0.4-1-0.7-2-0.7-3.2s0.2-2.2,0.6-3.2c0.4-1,1-1.8,1.7-2.5s1.6-1.2,2.5-1.6s2-0.6,3-0.6c0.6,0,1.2,0.1,1.8,0.2
		s1.2,0.3,1.8,0.6v4.6H157.3z"/>
	<path class="st0" d="M165.6,24.2v15.1h-3.9V24.2H165.6z"/>
	<path class="st0" d="M170,31.8c0-1.1,0.2-2.2,0.6-3.1c0.4-1,1-1.8,1.7-2.5s1.6-1.3,2.6-1.7c1-0.4,2.1-0.6,3.4-0.6
		c1.2,0,2.3,0.2,3.4,0.6c1,0.4,1.9,1,2.7,1.7s1.3,1.6,1.7,2.5c0.4,1,0.6,2,0.6,3.1c0,1.1-0.2,2.2-0.6,3.1c-0.4,1-1,1.8-1.7,2.5
		s-1.6,1.3-2.7,1.7c-1,0.4-2.1,0.6-3.4,0.6c-1.2,0-2.4-0.2-3.4-0.6c-1-0.4-1.9-1-2.6-1.7c-0.7-0.7-1.3-1.6-1.7-2.5
		C170.2,33.9,170,32.9,170,31.8z M174.1,31.8c0,0.6,0.1,1.2,0.3,1.7s0.5,0.9,0.9,1.3c0.4,0.4,0.8,0.7,1.4,0.9
		c0.5,0.2,1.1,0.3,1.6,0.3s1.1-0.1,1.6-0.3s1-0.5,1.4-0.9s0.7-0.8,0.9-1.3s0.3-1.1,0.3-1.7c0-0.6-0.1-1.2-0.3-1.7s-0.5-0.9-0.9-1.3
		s-0.8-0.7-1.4-0.9c-0.5-0.2-1.1-0.3-1.6-0.3s-1.1,0.1-1.6,0.3c-0.5,0.2-1,0.5-1.4,0.9s-0.7,0.8-0.9,1.3S174.1,31.2,174.1,31.8z
		 M181.9,20.4l-3.8,2.6l-1.5-1.4l3.3-3.1L181.9,20.4z"/>
	<path class="st0" d="M191,39.3V24.2h3.9l7.2,9.2v-9.2h3.9v15.1h-3.9l-7.2-9.2v9.2C194.9,39.3,191,39.3,191,39.3z"/>
	<path class="st0" d="M228.1,28.1c-0.4-0.3-0.9-0.6-1.3-0.8s-0.8-0.2-1.2-0.2c-0.5,0-0.9,0.1-1.2,0.4c-0.3,0.2-0.5,0.6-0.5,0.9
		s0.1,0.5,0.2,0.7c0.2,0.2,0.4,0.3,0.6,0.5s0.6,0.2,0.9,0.3c0.3,0.1,0.6,0.2,1,0.3c1.3,0.4,2.2,1,2.8,1.7c0.6,0.7,0.9,1.6,0.9,2.8
		c0,0.8-0.1,1.5-0.4,2.1c-0.3,0.6-0.6,1.2-1.1,1.6c-0.5,0.4-1.1,0.8-1.8,1s-1.5,0.4-2.5,0.4c-1.9,0-3.7-0.6-5.3-1.7l1.7-3.2
		c0.6,0.5,1.2,0.9,1.7,1.2c0.6,0.3,1.1,0.4,1.7,0.4c0.6,0,1.1-0.1,1.4-0.4c0.3-0.3,0.5-0.6,0.5-1c0-0.2,0-0.4-0.1-0.6
		c-0.1-0.2-0.2-0.3-0.4-0.5c-0.2-0.1-0.4-0.3-0.7-0.4s-0.7-0.3-1.1-0.4c-0.5-0.2-1-0.3-1.5-0.5s-0.9-0.5-1.3-0.8
		c-0.4-0.3-0.7-0.7-0.9-1.2s-0.4-1.1-0.4-1.8s0.1-1.4,0.4-2c0.2-0.6,0.6-1.1,1-1.6c0.4-0.4,1-0.8,1.6-1s1.4-0.4,2.2-0.4
		c0.7,0,1.5,0.1,2.3,0.3c0.8,0.2,1.6,0.5,2.3,0.9L228.1,28.1z"/>
	<path class="st0" d="M238.6,24.2v8.2c0,0.4,0,0.9,0,1.3s0.1,0.9,0.3,1.2c0.2,0.4,0.4,0.7,0.8,0.9c0.4,0.2,0.9,0.3,1.5,0.3
		s1.2-0.1,1.5-0.3s0.6-0.5,0.8-0.9s0.3-0.8,0.3-1.2s0.1-0.9,0.1-1.3v-8.2h3.9V33c0,2.3-0.5,4.1-1.6,5.1c-1.1,1.1-2.7,1.6-5,1.6
		s-3.9-0.5-5-1.6s-1.6-2.8-1.6-5.1v-8.7L238.6,24.2L238.6,24.2z"/>
	<path class="st0" d="M265.4,39.3h-4.9l-3.7-5.8v5.8h-3.9V24.2h6.1c0.8,0,1.6,0.1,2.2,0.4s1.1,0.6,1.5,1s0.7,0.9,0.9,1.5
		c0.2,0.6,0.3,1.2,0.3,1.8c0,1.1-0.3,2.1-0.8,2.8c-0.6,0.7-1.4,1.2-2.5,1.4L265.4,39.3z M256.8,31h0.7c0.8,0,1.4-0.2,1.8-0.5
		s0.6-0.8,0.6-1.4s-0.2-1.1-0.6-1.4s-1-0.5-1.8-0.5h-0.7V31z"/>
</g>
<polygon class="st0" points="12.3,2.2 12.3,55.7 30.1,34.2 "/>
<g>
	<rect x="2.5" y="45.1" class="st1" width="263.6" height="2"/>
</g>
</svg>
