<?xml version="1.0" encoding="utf-8"?>
<!-- Generator: Adobe Illustrator 23.0.0, SVG Export Plug-In . SVG Version: 6.00 Build 0)  -->
<svg version="1.1" id="Layer_1" xmlns="http://www.w3.org/2000/svg" xmlns:xlink="http://www.w3.org/1999/xlink" x="0px" y="0px"
	 viewBox="0 0 43 234.3" style="enable-background:new 0 0 43 234.3;" xml:space="preserve">
<style type="text/css">
	.st0{fill:#646464;}
</style>
<g>
	<path class="st0" d="M24.7,214.4l0,7.3l3.4,1.2l0,5.5l-19.6-7.4l0-5.6l19.6-7.4v5.5L24.7,214.4z M20.8,215.7l-6.5,2.3l6.5,2.3
		L20.8,215.7z"/>
	<path class="st0" d="M8.4,203.1l0-7.5c0-1.8,0.4-3.1,1.3-4.2c0.9-0.9,2.1-1.4,3.8-1.4c1,0,1.8,0.1,2.5,0.5s1.2,0.9,1.7,1.6
		c0.1-0.8,0.4-1.3,0.7-1.8c0.3-0.5,0.6-0.9,1-1.3c0.4-0.3,0.9-0.5,1.4-0.7c0.5-0.1,1-0.3,1.7-0.3c0.9,0,1.7,0.1,2.5,0.5
		c0.6,0.3,1.3,0.8,1.8,1.3c0.5,0.5,0.9,1.3,1,2.1c0.3,0.8,0.4,1.8,0.4,2.9v8.2L8.4,203.1L8.4,203.1z M16.1,198v-0.9
		c0-1.6-0.6-2.3-1.9-2.3s-2,0.8-2,2.3v0.9H16.1z M24.1,198v-1.2c0-1.3-0.1-2.2-0.5-2.7c-0.4-0.5-0.9-0.8-1.6-0.8s-1.3,0.3-1.6,0.8
		c-0.4,0.5-0.5,1.4-0.5,2.7l0,1.2H24.1z"/>
	<path class="st0" d="M13.5,171.9c-0.4,0.5-0.8,1.2-1,1.7c-0.3,0.5-0.3,1-0.3,1.6c0,0.7,0.1,1.2,0.5,1.6c0.3,0.4,0.8,0.7,1.2,0.7
		c0.4,0,0.7-0.1,0.9-0.3c0.3-0.3,0.4-0.5,0.5-0.8c0.1-0.4,0.3-0.8,0.4-1.2c0.1-0.4,0.3-0.8,0.4-1.3c0.5-1.7,1.3-2.9,2.2-3.6
		c0.9-0.8,2.1-1.2,3.6-1.2c1,0,2,0.1,2.7,0.5s1.6,0.8,2.1,1.4c0.5,0.7,1,1.4,1.3,2.3c0.3,0.9,0.5,1.9,0.5,3.2c0,2.5-0.8,4.8-2.2,6.9
		l-4.2-2.2c0.7-0.8,1.2-1.6,1.6-2.2c0.4-0.8,0.5-1.4,0.5-2.2s-0.1-1.4-0.5-1.8s-0.8-0.6-1.3-0.6c-0.3,0-0.5,0-0.8,0.1
		c-0.3,0.1-0.4,0.3-0.6,0.5c-0.1,0.3-0.4,0.5-0.5,0.9c-0.1,0.4-0.4,0.9-0.5,1.4c-0.3,0.6-0.4,1.3-0.6,1.9c-0.3,0.6-0.7,1.2-1,1.7
		c-0.4,0.5-0.9,0.9-1.6,1.2c-0.7,0.3-1.4,0.5-2.3,0.5c-0.9,0-1.8-0.1-2.6-0.5c-0.8-0.3-1.4-0.8-2.1-1.3c-0.5-0.5-1-1.3-1.3-2.1
		c-0.3-0.8-0.5-1.8-0.5-2.9c0-0.9,0.1-1.9,0.4-3c0.3-1,0.6-2.1,1.2-3L13.5,171.9z"/>
	<path class="st0" d="M12.7,155.8H28v5.1H12.7l0,4.2H8.4l0-13.5h4.3L12.7,155.8z"/>
	<path class="st0" d="M28,130.6l0,6.4l-7.5,4.8H28v5.1H8.4l0-7.9c0-1,0.1-2.1,0.5-2.9c0.3-0.8,0.8-1.4,1.3-1.9s1.2-0.9,1.9-1.2
		c0.8-0.3,1.6-0.4,2.3-0.4c1.4,0,2.7,0.4,3.6,1c0.9,0.8,1.6,1.8,1.8,3.2L28,130.6z M17.2,141.7v-0.9c0-1-0.3-1.8-0.6-2.3
		c-0.4-0.5-1-0.8-1.8-0.8s-1.4,0.3-1.8,0.8s-0.7,1.3-0.7,2.3v0.9H17.2z"/>
	<path class="st0" d="M24.7,113.9v7.3l3.4,1.2v5.5l-19.6-7.4l0-5.6l19.6-7.4l0,5.5L24.7,113.9z M20.8,115.3l-6.5,2.3l6.5,2.3V115.3z
		"/>
	<path class="st0" d="M15,89.2c-1.4,1.2-2.2,2.6-2.2,4.4c0,0.8,0.1,1.4,0.4,2.1s0.6,1.2,1.2,1.7c0.5,0.5,1,0.8,1.7,1.2
		c0.6,0.3,1.4,0.4,2.1,0.4c0.8,0,1.6-0.1,2.2-0.4c0.6-0.3,1.2-0.7,1.7-1.2c0.5-0.5,0.9-1,1.2-1.7c0.3-0.7,0.4-1.3,0.4-2.1
		c0-1.7-0.6-3.1-2.1-4.4h6l0.1,0.5c0.3,0.8,0.5,1.6,0.6,2.2c0.1,0.6,0.1,1.3,0.1,1.9c0,1.3-0.3,2.6-0.8,3.9
		c-0.5,1.3-1.2,2.3-2.2,3.2c-0.9,0.9-2.1,1.7-3.2,2.3c-1.3,0.5-2.6,0.9-4.2,0.9s-2.9-0.3-4.2-0.8c-1.3-0.5-2.3-1.3-3.2-2.2
		c-0.9-0.9-1.6-2.1-2.1-3.2c-0.5-1.3-0.8-2.6-0.8-3.9c0-0.8,0.1-1.6,0.3-2.3c0.1-0.8,0.4-1.6,0.8-2.3H15C15,89.5,15,89.2,15,89.2z"
		/>
	<path class="st0" d="M15,69.5c-1.4,1.2-2.2,2.6-2.2,4.4c0,0.8,0.1,1.4,0.4,2.1s0.6,1.2,1.2,1.7c0.5,0.5,1,0.8,1.7,1.2
		c0.6,0.3,1.4,0.4,2.1,0.4c0.8,0,1.6-0.1,2.2-0.4c0.7-0.3,1.2-0.7,1.7-1.2c0.5-0.5,0.9-1,1.2-1.7s0.4-1.3,0.4-2.1
		c0-1.7-0.6-3.1-2.1-4.4h6l0.1,0.5c0.3,0.8,0.5,1.6,0.6,2.2c0.1,0.7,0.1,1.3,0.1,2c0,1.3-0.3,2.6-0.8,3.9c-0.5,1.3-1.2,2.3-2.2,3.2
		c-0.9,0.9-2.1,1.7-3.2,2.3c-1.3,0.5-2.6,0.9-4.2,0.9s-2.9-0.3-4.2-0.8c-1.3-0.5-2.3-1.3-3.2-2.2s-1.6-2.1-2.1-3.2
		C8,77,7.8,75.7,7.8,74.4c0-0.8,0.1-1.6,0.3-2.3c0.1-0.8,0.4-1.6,0.8-2.3H15C15,69.7,15,69.5,15,69.5z"/>
	<path class="st0" d="M8.4,58.7H28v5.1H8.4L8.4,58.7z"/>
	<path class="st0" d="M18.3,52.9c-1.4,0-2.9-0.3-4-0.8C13,51.6,11.9,50.9,11,50c-0.9-0.9-1.7-2.1-2.2-3.4C8.3,45.3,8,43.8,8,42.2
		c0-1.6,0.3-3,0.8-4.4c0.5-1.3,1.3-2.5,2.2-3.5c0.9-0.9,2.1-1.7,3.3-2.2c1.3-0.5,2.6-0.8,4-0.8s2.9,0.3,4,0.8
		c1.3,0.5,2.3,1.3,3.2,2.2c0.9,0.9,1.7,2.1,2.2,3.5c0.5,1.3,0.8,2.7,0.8,4.4c0,1.6-0.3,3.1-0.8,4.4c-0.5,1.3-1.3,2.5-2.2,3.4
		c-0.9,0.9-2.1,1.7-3.2,2.2C21,52.7,19.7,52.9,18.3,52.9z M18.3,47.6c0.8,0,1.6-0.1,2.2-0.4c0.7-0.3,1.2-0.6,1.7-1.2
		c0.5-0.5,0.9-1,1.2-1.8c0.3-0.7,0.4-1.4,0.4-2.1c0-0.6-0.1-1.4-0.4-2.1c-0.3-0.7-0.6-1.3-1.2-1.8c-0.5-0.5-1-0.9-1.7-1.2
		c-0.6-0.3-1.4-0.4-2.2-0.4s-1.6,0.1-2.2,0.4c-0.6,0.3-1.2,0.6-1.7,1.2s-0.9,1-1.2,1.8c-0.3,0.7-0.4,1.4-0.4,2.1
		c0,0.7,0.1,1.4,0.4,2.1c0.3,0.6,0.7,1.3,1.2,1.8c0.5,0.5,1,0.9,1.7,1.2C16.7,47.5,17.5,47.6,18.3,47.6z M3.5,37.5l3.4,4.9l-1.8,2
		l-4-4.3L3.5,37.5z"/>
	<path class="st0" d="M28,25.5H8.4l0-5.1l12-9.4h-12l0-5.1H28v5.1l-12,9.4h12L28,25.5z"/>
</g>
</svg>
