<?xml version="1.0" encoding="utf-8"?>
<!-- Generator: Adobe Illustrator 21.1.0, SVG Export Plug-In . SVG Version: 6.00 Build 0)  -->
<svg version="1.1" id="Layer_1" xmlns="http://www.w3.org/2000/svg" xmlns:xlink="http://www.w3.org/1999/xlink" x="0px" y="0px"
	 viewBox="0 0 315 72" style="enable-background:new 0 0 315 72;" xml:space="preserve">
<style type="text/css">
	.st0{fill:#646464;}
	.st1{fill:none;stroke:#FF0000;stroke-width:2;stroke-miterlimit:10;}
</style>
<g>
	<path class="st0" d="M35.6,25.6H30l-0.9,2.6h-4.2l5.7-15.1h4.3l5.7,15.1h-4.2L35.6,25.6z M34.6,22.6l-1.8-5l-1.8,5H34.6z"/>
	<path class="st0" d="M44.3,13.1h5.8c1.4,0,2.4,0.3,3.2,1c0.7,0.7,1.1,1.6,1.1,2.9c0,0.8-0.1,1.4-0.4,1.9s-0.7,0.9-1.2,1.3
		c0.6,0.1,1,0.3,1.4,0.5c0.4,0.2,0.7,0.5,1,0.8c0.2,0.3,0.4,0.7,0.5,1.1c0.1,0.4,0.2,0.8,0.2,1.3c0,0.7-0.1,1.3-0.4,1.9
		c-0.2,0.5-0.6,1-1,1.4c-0.4,0.4-1,0.7-1.6,0.8c-0.6,0.2-1.4,0.3-2.2,0.3h-6.3V13.1z M48.2,19h0.7c1.2,0,1.8-0.5,1.8-1.5
		c0-1-0.6-1.5-1.8-1.5h-0.7V19z M48.2,25.2h0.9c1,0,1.7-0.1,2.1-0.4c0.4-0.3,0.6-0.7,0.6-1.2s-0.2-1-0.6-1.2
		c-0.4-0.3-1.1-0.4-2.1-0.4h-0.9V25.2z"/>
	<path class="st0" d="M68.3,17c-0.4-0.3-0.9-0.6-1.3-0.8C66.6,16,66.2,16,65.8,16c-0.5,0-0.9,0.1-1.2,0.4c-0.3,0.2-0.5,0.6-0.5,0.9
		c0,0.3,0.1,0.5,0.2,0.7c0.2,0.2,0.4,0.3,0.6,0.4c0.3,0.1,0.6,0.2,0.9,0.3c0.3,0.1,0.6,0.2,1,0.3c1.3,0.4,2.2,1,2.8,1.7
		c0.6,0.7,0.9,1.6,0.9,2.8c0,0.8-0.1,1.5-0.4,2.1c-0.3,0.6-0.6,1.2-1.1,1.6c-0.5,0.4-1.1,0.8-1.8,1s-1.5,0.4-2.5,0.4
		c-1.9,0-3.7-0.6-5.3-1.7l1.7-3.2c0.6,0.5,1.2,0.9,1.7,1.2c0.6,0.3,1.1,0.4,1.7,0.4c0.6,0,1.1-0.1,1.4-0.4c0.3-0.3,0.5-0.6,0.5-1
		c0-0.2,0-0.4-0.1-0.6c-0.1-0.2-0.2-0.3-0.4-0.5c-0.2-0.1-0.4-0.3-0.7-0.4c-0.3-0.1-0.7-0.3-1.1-0.4c-0.5-0.2-1-0.3-1.5-0.5
		s-0.9-0.5-1.3-0.8s-0.7-0.7-0.9-1.2S60,18.4,60,17.7c0-0.7,0.1-1.4,0.4-2c0.2-0.6,0.6-1.1,1-1.6c0.4-0.4,1-0.8,1.6-1
		c0.6-0.2,1.4-0.4,2.2-0.4c0.7,0,1.5,0.1,2.3,0.3c0.8,0.2,1.6,0.5,2.3,0.9L68.3,17z"/>
	<path class="st0" d="M80.7,16.4v11.8h-3.9V16.4h-3.2v-3.3h10.4v3.3H80.7z"/>
	<path class="st0" d="M100.1,28.2h-4.9l-3.7-5.8v5.8h-3.9V13.1h6.1c0.8,0,1.6,0.1,2.2,0.4c0.6,0.2,1.1,0.6,1.5,1
		c0.4,0.4,0.7,0.9,0.9,1.5c0.2,0.6,0.3,1.2,0.3,1.8c0,1.1-0.3,2.1-0.8,2.8c-0.6,0.7-1.4,1.2-2.5,1.4L100.1,28.2z M91.5,19.9h0.7
		c0.8,0,1.4-0.2,1.8-0.5c0.4-0.3,0.6-0.8,0.6-1.4c0-0.6-0.2-1.1-0.6-1.4c-0.4-0.3-1-0.5-1.8-0.5h-0.7V19.9z"/>
	<path class="st0" d="M112.9,25.6h-5.6l-0.9,2.6h-4.2l5.7-15.1h4.3l5.7,15.1h-4.2L112.9,25.6z M111.8,22.6l-1.8-5l-1.8,5H111.8z"/>
	<path class="st0" d="M131.9,18.2c-0.9-1.1-2-1.7-3.4-1.7c-0.6,0-1.1,0.1-1.6,0.3s-0.9,0.5-1.3,0.9c-0.4,0.4-0.6,0.8-0.9,1.3
		c-0.2,0.5-0.3,1.1-0.3,1.6c0,0.6,0.1,1.2,0.3,1.7c0.2,0.5,0.5,0.9,0.9,1.3c0.4,0.4,0.8,0.7,1.3,0.9c0.5,0.2,1,0.3,1.6,0.3
		c1.3,0,2.4-0.5,3.4-1.6v4.6l-0.4,0.1c-0.6,0.2-1.2,0.4-1.7,0.5c-0.5,0.1-1,0.1-1.5,0.1c-1,0-2-0.2-3-0.6s-1.8-0.9-2.5-1.7
		c-0.7-0.7-1.3-1.6-1.8-2.5c-0.4-1-0.7-2-0.7-3.2s0.2-2.2,0.6-3.2c0.4-1,1-1.8,1.7-2.5s1.6-1.2,2.5-1.6c1-0.4,2-0.6,3-0.6
		c0.6,0,1.2,0.1,1.8,0.2c0.6,0.1,1.2,0.3,1.8,0.6V18.2z"/>
	<path class="st0" d="M147.1,18.2c-0.9-1.1-2-1.7-3.4-1.7c-0.6,0-1.1,0.1-1.6,0.3s-0.9,0.5-1.3,0.9c-0.4,0.4-0.6,0.8-0.9,1.3
		c-0.2,0.5-0.3,1.1-0.3,1.6c0,0.6,0.1,1.2,0.3,1.7c0.2,0.5,0.5,0.9,0.9,1.3c0.4,0.4,0.8,0.7,1.3,0.9c0.5,0.2,1,0.3,1.6,0.3
		c1.3,0,2.4-0.5,3.4-1.6v4.6l-0.4,0.1c-0.6,0.2-1.2,0.4-1.7,0.5c-0.5,0.1-1,0.1-1.5,0.1c-1,0-2-0.2-3-0.6s-1.8-0.9-2.5-1.7
		c-0.7-0.7-1.3-1.6-1.8-2.5c-0.4-1-0.7-2-0.7-3.2s0.2-2.2,0.6-3.2c0.4-1,1-1.8,1.7-2.5s1.6-1.2,2.5-1.6c1-0.4,2-0.6,3-0.6
		c0.6,0,1.2,0.1,1.8,0.2c0.6,0.1,1.2,0.3,1.8,0.6V18.2z"/>
	<path class="st0" d="M155.4,13.1v15.1h-3.9V13.1H155.4z"/>
	<path class="st0" d="M159.8,20.7c0-1.1,0.2-2.2,0.6-3.1c0.4-1,1-1.8,1.7-2.5c0.7-0.7,1.6-1.3,2.6-1.7c1-0.4,2.1-0.6,3.4-0.6
		c1.2,0,2.3,0.2,3.4,0.6c1,0.4,1.9,1,2.7,1.7c0.7,0.7,1.3,1.6,1.7,2.5c0.4,1,0.6,2,0.6,3.1s-0.2,2.2-0.6,3.1c-0.4,1-1,1.8-1.7,2.5
		c-0.7,0.7-1.6,1.3-2.7,1.7c-1,0.4-2.1,0.6-3.4,0.6c-1.2,0-2.4-0.2-3.4-0.6c-1-0.4-1.9-1-2.6-1.7c-0.7-0.7-1.3-1.6-1.7-2.5
		C160,22.8,159.8,21.8,159.8,20.7z M163.9,20.7c0,0.6,0.1,1.2,0.3,1.7s0.5,0.9,0.9,1.3c0.4,0.4,0.8,0.7,1.4,0.9
		c0.5,0.2,1.1,0.3,1.6,0.3s1.1-0.1,1.6-0.3c0.5-0.2,1-0.5,1.4-0.9c0.4-0.4,0.7-0.8,0.9-1.3s0.3-1.1,0.3-1.7s-0.1-1.2-0.3-1.7
		c-0.2-0.5-0.5-0.9-0.9-1.3c-0.4-0.4-0.8-0.7-1.4-0.9c-0.5-0.2-1.1-0.3-1.6-0.3s-1.1,0.1-1.6,0.3c-0.5,0.2-1,0.5-1.4,0.9
		c-0.4,0.4-0.7,0.8-0.9,1.3C164,19.5,163.9,20.1,163.9,20.7z M171.7,9.3l-3.8,2.6l-1.5-1.4l3.3-3.1L171.7,9.3z"/>
	<path class="st0" d="M180.9,28.2V13.1h3.9l7.2,9.2v-9.2h3.9v15.1H192l-7.2-9.2v9.2H180.9z"/>
	<path class="st0" d="M218,17c-0.4-0.3-0.9-0.6-1.3-0.8c-0.4-0.2-0.8-0.2-1.2-0.2c-0.5,0-0.9,0.1-1.2,0.4c-0.3,0.2-0.5,0.6-0.5,0.9
		c0,0.3,0.1,0.5,0.2,0.7c0.2,0.2,0.4,0.3,0.6,0.4c0.3,0.1,0.6,0.2,0.9,0.3c0.3,0.1,0.6,0.2,1,0.3c1.3,0.4,2.2,1,2.8,1.7
		c0.6,0.7,0.9,1.6,0.9,2.8c0,0.8-0.1,1.5-0.4,2.1c-0.3,0.6-0.6,1.2-1.1,1.6c-0.5,0.4-1.1,0.8-1.8,1s-1.5,0.4-2.5,0.4
		c-1.9,0-3.7-0.6-5.3-1.7l1.7-3.2c0.6,0.5,1.2,0.9,1.7,1.2c0.6,0.3,1.1,0.4,1.7,0.4c0.6,0,1.1-0.1,1.4-0.4c0.3-0.3,0.5-0.6,0.5-1
		c0-0.2,0-0.4-0.1-0.6c-0.1-0.2-0.2-0.3-0.4-0.5c-0.2-0.1-0.4-0.3-0.7-0.4c-0.3-0.1-0.7-0.3-1.1-0.4c-0.5-0.2-1-0.3-1.5-0.5
		s-0.9-0.5-1.3-0.8s-0.7-0.7-0.9-1.2s-0.4-1.1-0.4-1.9c0-0.7,0.1-1.4,0.4-2c0.2-0.6,0.6-1.1,1-1.6c0.4-0.4,1-0.8,1.6-1
		c0.6-0.2,1.4-0.4,2.2-0.4c0.7,0,1.5,0.1,2.3,0.3c0.8,0.2,1.6,0.5,2.3,0.9L218,17z"/>
	<path class="st0" d="M228.4,13.1v8.2c0,0.4,0,0.9,0,1.4c0,0.5,0.1,0.9,0.3,1.2c0.2,0.4,0.4,0.7,0.8,0.9c0.4,0.2,0.9,0.4,1.5,0.4
		s1.2-0.1,1.5-0.4c0.4-0.2,0.6-0.5,0.8-0.9c0.2-0.4,0.3-0.8,0.3-1.2c0-0.5,0.1-0.9,0.1-1.4v-8.2h3.9v8.7c0,2.3-0.5,4.1-1.6,5.1
		c-1.1,1.1-2.7,1.6-5,1.6s-3.9-0.5-5-1.6c-1.1-1.1-1.6-2.8-1.6-5.1v-8.7H228.4z"/>
	<path class="st0" d="M255.2,28.2h-4.9l-3.7-5.8v5.8h-3.9V13.1h6.1c0.8,0,1.6,0.1,2.2,0.4c0.6,0.2,1.1,0.6,1.5,1
		c0.4,0.4,0.7,0.9,0.9,1.5c0.2,0.6,0.3,1.2,0.3,1.8c0,1.1-0.3,2.1-0.8,2.8c-0.6,0.7-1.4,1.2-2.5,1.4L255.2,28.2z M246.6,19.9h0.7
		c0.8,0,1.4-0.2,1.8-0.5c0.4-0.3,0.6-0.8,0.6-1.4c0-0.6-0.2-1.1-0.6-1.4c-0.4-0.3-1-0.5-1.8-0.5h-0.7V19.9z"/>
</g>
<line class="st1" x1="72.5" y1="57" x2="286.5" y2="57"/>
</svg>
